G04 #@! TF.FileFunction,Soldermask,Top*
%FSLAX46Y46*%
G04 Gerber Fmt 4.6, Leading zero omitted, Abs format (unit mm)*
G04 Created by KiCad (PCBNEW 4.0.7) date 07/23/18 15:50:34*
%MOMM*%
%LPD*%
G01*
G04 APERTURE LIST*
%ADD10C,0.100000*%
%ADD11R,1.700000X1.100000*%
%ADD12R,1.650000X1.400000*%
%ADD13R,2.000000X2.000000*%
%ADD14C,2.000000*%
%ADD15R,2.100000X2.100000*%
%ADD16O,2.100000X2.100000*%
%ADD17R,1.700000X2.100000*%
%ADD18R,1.300000X2.100000*%
%ADD19R,1.200000X1.300000*%
%ADD20R,1.950000X1.000000*%
%ADD21R,1.600000X1.600000*%
%ADD22C,1.700000*%
%ADD23R,1.700000X1.700000*%
%ADD24R,1.200000X0.900000*%
%ADD25R,1.200000X0.800000*%
%ADD26R,0.900000X1.200000*%
%ADD27R,0.800000X1.200000*%
%ADD28R,1.700000X0.650000*%
%ADD29R,0.650000X1.700000*%
G04 APERTURE END LIST*
D10*
D11*
X180600000Y-69550000D03*
X180600000Y-67650000D03*
X180600000Y-70750000D03*
X180600000Y-72650000D03*
X182800000Y-65750000D03*
X182800000Y-63850000D03*
D12*
X185000000Y-65800000D03*
X185000000Y-63800000D03*
D13*
X164500000Y-64700000D03*
D14*
X162500000Y-64700000D03*
D15*
X158460000Y-56940000D03*
D16*
X161000000Y-56940000D03*
X158460000Y-59480000D03*
X161000000Y-59480000D03*
X158460000Y-62020000D03*
X161000000Y-62020000D03*
D17*
X167300000Y-55700000D03*
X163800000Y-55700000D03*
D13*
X167300000Y-60100000D03*
D14*
X165300000Y-60100000D03*
D18*
X163800000Y-53400000D03*
X166700000Y-53400000D03*
D19*
X172050000Y-52600000D03*
X170150000Y-52600000D03*
X171100000Y-54600000D03*
D12*
X177700000Y-54600000D03*
X177700000Y-52600000D03*
D17*
X169500000Y-62900000D03*
X173000000Y-62900000D03*
D12*
X175300000Y-62000000D03*
X175300000Y-64000000D03*
D20*
X171000000Y-56395000D03*
X171000000Y-57665000D03*
X171000000Y-58935000D03*
X171000000Y-60205000D03*
X176400000Y-60205000D03*
X176400000Y-58935000D03*
X176400000Y-57665000D03*
X176400000Y-56395000D03*
D19*
X175650000Y-52600000D03*
X173750000Y-52600000D03*
X174700000Y-54600000D03*
D21*
X185000000Y-59500000D03*
X185000000Y-61700000D03*
D11*
X178500000Y-60250000D03*
X178500000Y-62150000D03*
X180500000Y-60250000D03*
X180500000Y-62150000D03*
D12*
X182800000Y-62300000D03*
X182800000Y-60300000D03*
D11*
X178500000Y-56350000D03*
X178500000Y-58250000D03*
D13*
X183300000Y-56100000D03*
D14*
X183300000Y-54100000D03*
D22*
X170169583Y-66587593D03*
D23*
X168899583Y-69127593D03*
D22*
X171439583Y-69127593D03*
X172709583Y-66587593D03*
X173979583Y-69127593D03*
X175249583Y-66587593D03*
D11*
X168900000Y-71850000D03*
X168900000Y-73750000D03*
X176900000Y-73750000D03*
X176900000Y-71850000D03*
X172900000Y-71850000D03*
X172900000Y-73750000D03*
X170900000Y-71850000D03*
X170900000Y-73750000D03*
D12*
X174900000Y-73800000D03*
X174900000Y-71800000D03*
D24*
X180200000Y-74300000D03*
D25*
X180200000Y-75900000D03*
X180200000Y-75100000D03*
D24*
X180200000Y-76700000D03*
D25*
X182000000Y-75100000D03*
D24*
X182000000Y-74300000D03*
D25*
X182000000Y-75900000D03*
D24*
X182000000Y-76700000D03*
X180200000Y-84500000D03*
D25*
X180200000Y-86100000D03*
X180200000Y-85300000D03*
D24*
X180200000Y-86900000D03*
D25*
X182000000Y-85300000D03*
D24*
X182000000Y-84500000D03*
D25*
X182000000Y-86100000D03*
D24*
X182000000Y-86900000D03*
X180200000Y-79400000D03*
D25*
X180200000Y-81000000D03*
X180200000Y-80200000D03*
D24*
X180200000Y-81800000D03*
D25*
X182000000Y-80200000D03*
D24*
X182000000Y-79400000D03*
D25*
X182000000Y-81000000D03*
D24*
X182000000Y-81800000D03*
D15*
X183860000Y-69650000D03*
D16*
X186400000Y-69650000D03*
X183860000Y-72190000D03*
X186400000Y-72190000D03*
X183860000Y-74730000D03*
X186400000Y-74730000D03*
X183860000Y-77270000D03*
X186400000Y-77270000D03*
X183860000Y-79810000D03*
X186400000Y-79810000D03*
X183860000Y-82350000D03*
X186400000Y-82350000D03*
X183860000Y-84890000D03*
X186400000Y-84890000D03*
X183860000Y-87430000D03*
X186400000Y-87430000D03*
X183860000Y-89970000D03*
X186400000Y-89970000D03*
X183860000Y-92510000D03*
X186400000Y-92510000D03*
D24*
X180200000Y-89600000D03*
D25*
X180200000Y-91200000D03*
X180200000Y-90400000D03*
D24*
X180200000Y-92000000D03*
D25*
X182000000Y-90400000D03*
D24*
X182000000Y-89600000D03*
D25*
X182000000Y-91200000D03*
D24*
X182000000Y-92000000D03*
X164700000Y-76800000D03*
D25*
X164700000Y-75200000D03*
X164700000Y-76000000D03*
D24*
X164700000Y-74400000D03*
D25*
X162900000Y-76000000D03*
D24*
X162900000Y-76800000D03*
D25*
X162900000Y-75200000D03*
D24*
X162900000Y-74400000D03*
X164660000Y-87000000D03*
D25*
X164660000Y-85400000D03*
X164660000Y-86200000D03*
D24*
X164660000Y-84600000D03*
D25*
X162860000Y-86200000D03*
D24*
X162860000Y-87000000D03*
D25*
X162860000Y-85400000D03*
D24*
X162860000Y-84600000D03*
X164700000Y-71800000D03*
D25*
X164700000Y-70200000D03*
X164700000Y-71000000D03*
D24*
X164700000Y-69400000D03*
D25*
X162900000Y-71000000D03*
D24*
X162900000Y-71800000D03*
D25*
X162900000Y-70200000D03*
D24*
X162900000Y-69400000D03*
X164700000Y-81900000D03*
D25*
X164700000Y-80300000D03*
X164700000Y-81100000D03*
D24*
X164700000Y-79500000D03*
D25*
X162900000Y-81100000D03*
D24*
X162900000Y-81900000D03*
D25*
X162900000Y-80300000D03*
D24*
X162900000Y-79500000D03*
D15*
X158460000Y-69650000D03*
D16*
X161000000Y-69650000D03*
X158460000Y-72190000D03*
X161000000Y-72190000D03*
X158460000Y-74730000D03*
X161000000Y-74730000D03*
X158460000Y-77270000D03*
X161000000Y-77270000D03*
X158460000Y-79810000D03*
X161000000Y-79810000D03*
X158460000Y-82350000D03*
X161000000Y-82350000D03*
X158460000Y-84890000D03*
X161000000Y-84890000D03*
X158460000Y-87430000D03*
X161000000Y-87430000D03*
X158460000Y-89970000D03*
X161000000Y-89970000D03*
X158460000Y-92510000D03*
X161000000Y-92510000D03*
D26*
X174200000Y-92350000D03*
D27*
X172600000Y-92350000D03*
X173400000Y-92350000D03*
D26*
X171800000Y-92350000D03*
D27*
X173400000Y-94150000D03*
D26*
X174200000Y-94150000D03*
D27*
X172600000Y-94150000D03*
D26*
X171800000Y-94150000D03*
D21*
X178460000Y-94600000D03*
X178460000Y-92400000D03*
X175900000Y-94600000D03*
X175900000Y-92400000D03*
X167760000Y-94600000D03*
X167760000Y-92400000D03*
X170100000Y-94600000D03*
X170100000Y-92400000D03*
D24*
X164660000Y-91900000D03*
D25*
X164660000Y-90300000D03*
X164660000Y-91100000D03*
D24*
X164660000Y-89500000D03*
D25*
X162860000Y-91100000D03*
D24*
X162860000Y-91900000D03*
D25*
X162860000Y-90300000D03*
D24*
X162860000Y-89500000D03*
D28*
X168450000Y-82050000D03*
X168450000Y-82550000D03*
X168450000Y-83050000D03*
X168450000Y-83550000D03*
X168450000Y-84050000D03*
X168450000Y-84550000D03*
X168450000Y-85050000D03*
X168450000Y-85550000D03*
X168450000Y-86050000D03*
X168450000Y-86550000D03*
X168450000Y-87050000D03*
X168450000Y-87550000D03*
D29*
X170050000Y-89150000D03*
X170550000Y-89150000D03*
X171050000Y-89150000D03*
X171550000Y-89150000D03*
X172050000Y-89150000D03*
X172550000Y-89150000D03*
X173050000Y-89150000D03*
X173550000Y-89150000D03*
X174050000Y-89150000D03*
X174550000Y-89150000D03*
X175050000Y-89150000D03*
X175550000Y-89150000D03*
D28*
X177150000Y-87550000D03*
X177150000Y-87050000D03*
X177150000Y-86550000D03*
X177150000Y-86050000D03*
X177150000Y-85550000D03*
X177150000Y-85050000D03*
X177150000Y-84550000D03*
X177150000Y-84050000D03*
X177150000Y-83550000D03*
X177150000Y-83050000D03*
X177150000Y-82550000D03*
X177150000Y-82050000D03*
D29*
X175550000Y-80450000D03*
X175050000Y-80450000D03*
X174550000Y-80450000D03*
X174050000Y-80450000D03*
X173550000Y-80450000D03*
X173050000Y-80450000D03*
X172550000Y-80450000D03*
X172050000Y-80450000D03*
X171550000Y-80450000D03*
X171050000Y-80450000D03*
X170550000Y-80450000D03*
X170050000Y-80450000D03*
D11*
X146500000Y-56350000D03*
X146500000Y-58250000D03*
D12*
X145700000Y-54600000D03*
X145700000Y-52600000D03*
D13*
X151300000Y-56100000D03*
D14*
X151300000Y-54100000D03*
D17*
X135300000Y-55700000D03*
X131800000Y-55700000D03*
D18*
X131800000Y-53400000D03*
X134700000Y-53400000D03*
D15*
X126460000Y-56940000D03*
D16*
X129000000Y-56940000D03*
X126460000Y-59480000D03*
X129000000Y-59480000D03*
X126460000Y-62020000D03*
X129000000Y-62020000D03*
D13*
X132500000Y-64700000D03*
D14*
X130500000Y-64700000D03*
D13*
X135300000Y-60100000D03*
D14*
X133300000Y-60100000D03*
D12*
X150800000Y-62300000D03*
X150800000Y-60300000D03*
D11*
X150800000Y-65750000D03*
X150800000Y-63850000D03*
D21*
X153000000Y-59500000D03*
X153000000Y-61700000D03*
D12*
X153000000Y-65800000D03*
X153000000Y-63800000D03*
D11*
X148500000Y-60250000D03*
X148500000Y-62150000D03*
X146500000Y-60250000D03*
X146500000Y-62150000D03*
D19*
X140050000Y-52600000D03*
X138150000Y-52600000D03*
X139100000Y-54600000D03*
X143650000Y-52600000D03*
X141750000Y-52600000D03*
X142700000Y-54600000D03*
D17*
X137500000Y-62900000D03*
X141000000Y-62900000D03*
D20*
X139000000Y-56395000D03*
X139000000Y-57665000D03*
X139000000Y-58935000D03*
X139000000Y-60205000D03*
X144400000Y-60205000D03*
X144400000Y-58935000D03*
X144400000Y-57665000D03*
X144400000Y-56395000D03*
D12*
X143300000Y-62000000D03*
X143300000Y-64000000D03*
D24*
X100700000Y-76800000D03*
D25*
X100700000Y-75200000D03*
X100700000Y-76000000D03*
D24*
X100700000Y-74400000D03*
D25*
X98900000Y-76000000D03*
D24*
X98900000Y-76800000D03*
D25*
X98900000Y-75200000D03*
D24*
X98900000Y-74400000D03*
D15*
X94460000Y-69650000D03*
D16*
X97000000Y-69650000D03*
X94460000Y-72190000D03*
X97000000Y-72190000D03*
X94460000Y-74730000D03*
X97000000Y-74730000D03*
X94460000Y-77270000D03*
X97000000Y-77270000D03*
X94460000Y-79810000D03*
X97000000Y-79810000D03*
X94460000Y-82350000D03*
X97000000Y-82350000D03*
X94460000Y-84890000D03*
X97000000Y-84890000D03*
X94460000Y-87430000D03*
X97000000Y-87430000D03*
X94460000Y-89970000D03*
X97000000Y-89970000D03*
X94460000Y-92510000D03*
X97000000Y-92510000D03*
D24*
X100700000Y-81900000D03*
D25*
X100700000Y-80300000D03*
X100700000Y-81100000D03*
D24*
X100700000Y-79500000D03*
D25*
X98900000Y-81100000D03*
D24*
X98900000Y-81900000D03*
D25*
X98900000Y-80300000D03*
D24*
X98900000Y-79500000D03*
X100660000Y-91900000D03*
D25*
X100660000Y-90300000D03*
X100660000Y-91100000D03*
D24*
X100660000Y-89500000D03*
D25*
X98860000Y-91100000D03*
D24*
X98860000Y-91900000D03*
D25*
X98860000Y-90300000D03*
D24*
X98860000Y-89500000D03*
X100660000Y-87000000D03*
D25*
X100660000Y-85400000D03*
X100660000Y-86200000D03*
D24*
X100660000Y-84600000D03*
D25*
X98860000Y-86200000D03*
D24*
X98860000Y-87000000D03*
D25*
X98860000Y-85400000D03*
D24*
X98860000Y-84600000D03*
D28*
X104450000Y-82050000D03*
X104450000Y-82550000D03*
X104450000Y-83050000D03*
X104450000Y-83550000D03*
X104450000Y-84050000D03*
X104450000Y-84550000D03*
X104450000Y-85050000D03*
X104450000Y-85550000D03*
X104450000Y-86050000D03*
X104450000Y-86550000D03*
X104450000Y-87050000D03*
X104450000Y-87550000D03*
D29*
X106050000Y-89150000D03*
X106550000Y-89150000D03*
X107050000Y-89150000D03*
X107550000Y-89150000D03*
X108050000Y-89150000D03*
X108550000Y-89150000D03*
X109050000Y-89150000D03*
X109550000Y-89150000D03*
X110050000Y-89150000D03*
X110550000Y-89150000D03*
X111050000Y-89150000D03*
X111550000Y-89150000D03*
D28*
X113150000Y-87550000D03*
X113150000Y-87050000D03*
X113150000Y-86550000D03*
X113150000Y-86050000D03*
X113150000Y-85550000D03*
X113150000Y-85050000D03*
X113150000Y-84550000D03*
X113150000Y-84050000D03*
X113150000Y-83550000D03*
X113150000Y-83050000D03*
X113150000Y-82550000D03*
X113150000Y-82050000D03*
D29*
X111550000Y-80450000D03*
X111050000Y-80450000D03*
X110550000Y-80450000D03*
X110050000Y-80450000D03*
X109550000Y-80450000D03*
X109050000Y-80450000D03*
X108550000Y-80450000D03*
X108050000Y-80450000D03*
X107550000Y-80450000D03*
X107050000Y-80450000D03*
X106550000Y-80450000D03*
X106050000Y-80450000D03*
D11*
X116600000Y-70750000D03*
X116600000Y-72650000D03*
D24*
X116200000Y-79400000D03*
D25*
X116200000Y-81000000D03*
X116200000Y-80200000D03*
D24*
X116200000Y-81800000D03*
D25*
X118000000Y-80200000D03*
D24*
X118000000Y-79400000D03*
D25*
X118000000Y-81000000D03*
D24*
X118000000Y-81800000D03*
X116200000Y-74300000D03*
D25*
X116200000Y-75900000D03*
X116200000Y-75100000D03*
D24*
X116200000Y-76700000D03*
D25*
X118000000Y-75100000D03*
D24*
X118000000Y-74300000D03*
D25*
X118000000Y-75900000D03*
D24*
X118000000Y-76700000D03*
X116200000Y-89600000D03*
D25*
X116200000Y-91200000D03*
X116200000Y-90400000D03*
D24*
X116200000Y-92000000D03*
D25*
X118000000Y-90400000D03*
D24*
X118000000Y-89600000D03*
D25*
X118000000Y-91200000D03*
D24*
X118000000Y-92000000D03*
D21*
X114460000Y-94600000D03*
X114460000Y-92400000D03*
X103760000Y-94600000D03*
X103760000Y-92400000D03*
X106100000Y-94600000D03*
X106100000Y-92400000D03*
X111900000Y-94600000D03*
X111900000Y-92400000D03*
D26*
X110200000Y-92350000D03*
D27*
X108600000Y-92350000D03*
X109400000Y-92350000D03*
D26*
X107800000Y-92350000D03*
D27*
X109400000Y-94150000D03*
D26*
X110200000Y-94150000D03*
D27*
X108600000Y-94150000D03*
D26*
X107800000Y-94150000D03*
D17*
X105500000Y-62900000D03*
X109000000Y-62900000D03*
D22*
X106169583Y-66587593D03*
D23*
X104899583Y-69127593D03*
D22*
X107439583Y-69127593D03*
X108709583Y-66587593D03*
X109979583Y-69127593D03*
X111249583Y-66587593D03*
D11*
X106900000Y-71850000D03*
X106900000Y-73750000D03*
X104900000Y-71850000D03*
X104900000Y-73750000D03*
X108900000Y-71850000D03*
X108900000Y-73750000D03*
D24*
X100700000Y-71800000D03*
D25*
X100700000Y-70200000D03*
X100700000Y-71000000D03*
D24*
X100700000Y-69400000D03*
D25*
X98900000Y-71000000D03*
D24*
X98900000Y-71800000D03*
D25*
X98900000Y-70200000D03*
D24*
X98900000Y-69400000D03*
D13*
X100500000Y-64700000D03*
D14*
X98500000Y-64700000D03*
D18*
X99800000Y-53400000D03*
X102700000Y-53400000D03*
D13*
X103300000Y-60100000D03*
D14*
X101300000Y-60100000D03*
D17*
X103300000Y-55700000D03*
X99800000Y-55700000D03*
D15*
X94460000Y-56940000D03*
D16*
X97000000Y-56940000D03*
X94460000Y-59480000D03*
X97000000Y-59480000D03*
X94460000Y-62020000D03*
X97000000Y-62020000D03*
D12*
X110900000Y-73800000D03*
X110900000Y-71800000D03*
D11*
X112900000Y-73750000D03*
X112900000Y-71850000D03*
D19*
X111650000Y-52600000D03*
X109750000Y-52600000D03*
X110700000Y-54600000D03*
D20*
X107000000Y-56395000D03*
X107000000Y-57665000D03*
X107000000Y-58935000D03*
X107000000Y-60205000D03*
X112400000Y-60205000D03*
X112400000Y-58935000D03*
X112400000Y-57665000D03*
X112400000Y-56395000D03*
D19*
X108050000Y-52600000D03*
X106150000Y-52600000D03*
X107100000Y-54600000D03*
D12*
X111300000Y-62000000D03*
X111300000Y-64000000D03*
X118800000Y-62300000D03*
X118800000Y-60300000D03*
D11*
X114500000Y-60250000D03*
X114500000Y-62150000D03*
X116500000Y-60250000D03*
X116500000Y-62150000D03*
D21*
X121000000Y-59500000D03*
X121000000Y-61700000D03*
D13*
X119300000Y-56100000D03*
D14*
X119300000Y-54100000D03*
D11*
X114500000Y-56350000D03*
X114500000Y-58250000D03*
D12*
X113700000Y-54600000D03*
X113700000Y-52600000D03*
D11*
X116600000Y-69550000D03*
X116600000Y-67650000D03*
D12*
X121000000Y-65800000D03*
X121000000Y-63800000D03*
D11*
X118800000Y-65750000D03*
X118800000Y-63850000D03*
X148600000Y-70750000D03*
X148600000Y-72650000D03*
X148600000Y-69550000D03*
X148600000Y-67650000D03*
D24*
X148200000Y-74300000D03*
D25*
X148200000Y-75900000D03*
X148200000Y-75100000D03*
D24*
X148200000Y-76700000D03*
D25*
X150000000Y-75100000D03*
D24*
X150000000Y-74300000D03*
D25*
X150000000Y-75900000D03*
D24*
X150000000Y-76700000D03*
X132700000Y-71800000D03*
D25*
X132700000Y-70200000D03*
X132700000Y-71000000D03*
D24*
X132700000Y-69400000D03*
D25*
X130900000Y-71000000D03*
D24*
X130900000Y-71800000D03*
D25*
X130900000Y-70200000D03*
D24*
X130900000Y-69400000D03*
X132700000Y-76800000D03*
D25*
X132700000Y-75200000D03*
X132700000Y-76000000D03*
D24*
X132700000Y-74400000D03*
D25*
X130900000Y-76000000D03*
D24*
X130900000Y-76800000D03*
D25*
X130900000Y-75200000D03*
D24*
X130900000Y-74400000D03*
D11*
X144900000Y-73750000D03*
X144900000Y-71850000D03*
D12*
X142900000Y-73800000D03*
X142900000Y-71800000D03*
D11*
X138900000Y-71850000D03*
X138900000Y-73750000D03*
X140900000Y-71850000D03*
X140900000Y-73750000D03*
D22*
X138169583Y-66587593D03*
D23*
X136899583Y-69127593D03*
D22*
X139439583Y-69127593D03*
X140709583Y-66587593D03*
X141979583Y-69127593D03*
X143249583Y-66587593D03*
D11*
X136900000Y-71850000D03*
X136900000Y-73750000D03*
D24*
X148200000Y-79400000D03*
D25*
X148200000Y-81000000D03*
X148200000Y-80200000D03*
D24*
X148200000Y-81800000D03*
D25*
X150000000Y-80200000D03*
D24*
X150000000Y-79400000D03*
D25*
X150000000Y-81000000D03*
D24*
X150000000Y-81800000D03*
X148200000Y-89600000D03*
D25*
X148200000Y-91200000D03*
X148200000Y-90400000D03*
D24*
X148200000Y-92000000D03*
D25*
X150000000Y-90400000D03*
D24*
X150000000Y-89600000D03*
D25*
X150000000Y-91200000D03*
D24*
X150000000Y-92000000D03*
D15*
X151860000Y-69650000D03*
D16*
X154400000Y-69650000D03*
X151860000Y-72190000D03*
X154400000Y-72190000D03*
X151860000Y-74730000D03*
X154400000Y-74730000D03*
X151860000Y-77270000D03*
X154400000Y-77270000D03*
X151860000Y-79810000D03*
X154400000Y-79810000D03*
X151860000Y-82350000D03*
X154400000Y-82350000D03*
X151860000Y-84890000D03*
X154400000Y-84890000D03*
X151860000Y-87430000D03*
X154400000Y-87430000D03*
X151860000Y-89970000D03*
X154400000Y-89970000D03*
X151860000Y-92510000D03*
X154400000Y-92510000D03*
D24*
X148200000Y-84500000D03*
D25*
X148200000Y-86100000D03*
X148200000Y-85300000D03*
D24*
X148200000Y-86900000D03*
D25*
X150000000Y-85300000D03*
D24*
X150000000Y-84500000D03*
D25*
X150000000Y-86100000D03*
D24*
X150000000Y-86900000D03*
X132660000Y-91900000D03*
D25*
X132660000Y-90300000D03*
X132660000Y-91100000D03*
D24*
X132660000Y-89500000D03*
D25*
X130860000Y-91100000D03*
D24*
X130860000Y-91900000D03*
D25*
X130860000Y-90300000D03*
D24*
X130860000Y-89500000D03*
X116200000Y-84500000D03*
D25*
X116200000Y-86100000D03*
X116200000Y-85300000D03*
D24*
X116200000Y-86900000D03*
D25*
X118000000Y-85300000D03*
D24*
X118000000Y-84500000D03*
D25*
X118000000Y-86100000D03*
D24*
X118000000Y-86900000D03*
X132660000Y-87000000D03*
D25*
X132660000Y-85400000D03*
X132660000Y-86200000D03*
D24*
X132660000Y-84600000D03*
D25*
X130860000Y-86200000D03*
D24*
X130860000Y-87000000D03*
D25*
X130860000Y-85400000D03*
D24*
X130860000Y-84600000D03*
X132700000Y-81900000D03*
D25*
X132700000Y-80300000D03*
X132700000Y-81100000D03*
D24*
X132700000Y-79500000D03*
D25*
X130900000Y-81100000D03*
D24*
X130900000Y-81900000D03*
D25*
X130900000Y-80300000D03*
D24*
X130900000Y-79500000D03*
D15*
X119860000Y-69650000D03*
D16*
X122400000Y-69650000D03*
X119860000Y-72190000D03*
X122400000Y-72190000D03*
X119860000Y-74730000D03*
X122400000Y-74730000D03*
X119860000Y-77270000D03*
X122400000Y-77270000D03*
X119860000Y-79810000D03*
X122400000Y-79810000D03*
X119860000Y-82350000D03*
X122400000Y-82350000D03*
X119860000Y-84890000D03*
X122400000Y-84890000D03*
X119860000Y-87430000D03*
X122400000Y-87430000D03*
X119860000Y-89970000D03*
X122400000Y-89970000D03*
X119860000Y-92510000D03*
X122400000Y-92510000D03*
D15*
X126460000Y-69650000D03*
D16*
X129000000Y-69650000D03*
X126460000Y-72190000D03*
X129000000Y-72190000D03*
X126460000Y-74730000D03*
X129000000Y-74730000D03*
X126460000Y-77270000D03*
X129000000Y-77270000D03*
X126460000Y-79810000D03*
X129000000Y-79810000D03*
X126460000Y-82350000D03*
X129000000Y-82350000D03*
X126460000Y-84890000D03*
X129000000Y-84890000D03*
X126460000Y-87430000D03*
X129000000Y-87430000D03*
X126460000Y-89970000D03*
X129000000Y-89970000D03*
X126460000Y-92510000D03*
X129000000Y-92510000D03*
D28*
X136450000Y-82050000D03*
X136450000Y-82550000D03*
X136450000Y-83050000D03*
X136450000Y-83550000D03*
X136450000Y-84050000D03*
X136450000Y-84550000D03*
X136450000Y-85050000D03*
X136450000Y-85550000D03*
X136450000Y-86050000D03*
X136450000Y-86550000D03*
X136450000Y-87050000D03*
X136450000Y-87550000D03*
D29*
X138050000Y-89150000D03*
X138550000Y-89150000D03*
X139050000Y-89150000D03*
X139550000Y-89150000D03*
X140050000Y-89150000D03*
X140550000Y-89150000D03*
X141050000Y-89150000D03*
X141550000Y-89150000D03*
X142050000Y-89150000D03*
X142550000Y-89150000D03*
X143050000Y-89150000D03*
X143550000Y-89150000D03*
D28*
X145150000Y-87550000D03*
X145150000Y-87050000D03*
X145150000Y-86550000D03*
X145150000Y-86050000D03*
X145150000Y-85550000D03*
X145150000Y-85050000D03*
X145150000Y-84550000D03*
X145150000Y-84050000D03*
X145150000Y-83550000D03*
X145150000Y-83050000D03*
X145150000Y-82550000D03*
X145150000Y-82050000D03*
D29*
X143550000Y-80450000D03*
X143050000Y-80450000D03*
X142550000Y-80450000D03*
X142050000Y-80450000D03*
X141550000Y-80450000D03*
X141050000Y-80450000D03*
X140550000Y-80450000D03*
X140050000Y-80450000D03*
X139550000Y-80450000D03*
X139050000Y-80450000D03*
X138550000Y-80450000D03*
X138050000Y-80450000D03*
D21*
X146460000Y-94600000D03*
X146460000Y-92400000D03*
D26*
X142200000Y-92350000D03*
D27*
X140600000Y-92350000D03*
X141400000Y-92350000D03*
D26*
X139800000Y-92350000D03*
D27*
X141400000Y-94150000D03*
D26*
X142200000Y-94150000D03*
D27*
X140600000Y-94150000D03*
D26*
X139800000Y-94150000D03*
D21*
X138100000Y-94600000D03*
X138100000Y-92400000D03*
X135760000Y-94600000D03*
X135760000Y-92400000D03*
X143900000Y-94600000D03*
X143900000Y-92400000D03*
D11*
X180600000Y-115550000D03*
X180600000Y-113650000D03*
X182800000Y-111750000D03*
X182800000Y-109850000D03*
D12*
X185000000Y-111800000D03*
X185000000Y-109800000D03*
D11*
X178500000Y-106250000D03*
X178500000Y-108150000D03*
D21*
X185000000Y-105500000D03*
X185000000Y-107700000D03*
D11*
X180500000Y-106250000D03*
X180500000Y-108150000D03*
D12*
X182800000Y-108300000D03*
X182800000Y-106300000D03*
X177700000Y-100600000D03*
X177700000Y-98600000D03*
D11*
X178500000Y-102350000D03*
X178500000Y-104250000D03*
D13*
X183300000Y-102100000D03*
D14*
X183300000Y-100100000D03*
D17*
X167300000Y-101700000D03*
X163800000Y-101700000D03*
D15*
X158460000Y-102940000D03*
D16*
X161000000Y-102940000D03*
X158460000Y-105480000D03*
X161000000Y-105480000D03*
X158460000Y-108020000D03*
X161000000Y-108020000D03*
D13*
X164500000Y-110700000D03*
D14*
X162500000Y-110700000D03*
D13*
X167300000Y-106100000D03*
D14*
X165300000Y-106100000D03*
D18*
X163800000Y-99400000D03*
X166700000Y-99400000D03*
D22*
X170169583Y-112587593D03*
D23*
X168899583Y-115127593D03*
D22*
X171439583Y-115127593D03*
X172709583Y-112587593D03*
X173979583Y-115127593D03*
X175249583Y-112587593D03*
D19*
X172050000Y-98600000D03*
X170150000Y-98600000D03*
X171100000Y-100600000D03*
D20*
X171000000Y-102395000D03*
X171000000Y-103665000D03*
X171000000Y-104935000D03*
X171000000Y-106205000D03*
X176400000Y-106205000D03*
X176400000Y-104935000D03*
X176400000Y-103665000D03*
X176400000Y-102395000D03*
D17*
X169500000Y-108900000D03*
X173000000Y-108900000D03*
D19*
X175650000Y-98600000D03*
X173750000Y-98600000D03*
X174700000Y-100600000D03*
D12*
X175300000Y-108000000D03*
X175300000Y-110000000D03*
D11*
X170900000Y-117850000D03*
X170900000Y-119750000D03*
D12*
X174900000Y-119800000D03*
X174900000Y-117800000D03*
D11*
X168900000Y-117850000D03*
X168900000Y-119750000D03*
X176900000Y-119750000D03*
X176900000Y-117850000D03*
X172900000Y-117850000D03*
X172900000Y-119750000D03*
X180600000Y-116750000D03*
X180600000Y-118650000D03*
D24*
X180200000Y-120300000D03*
D25*
X180200000Y-121900000D03*
X180200000Y-121100000D03*
D24*
X180200000Y-122700000D03*
D25*
X182000000Y-121100000D03*
D24*
X182000000Y-120300000D03*
D25*
X182000000Y-121900000D03*
D24*
X182000000Y-122700000D03*
X180200000Y-125400000D03*
D25*
X180200000Y-127000000D03*
X180200000Y-126200000D03*
D24*
X180200000Y-127800000D03*
D25*
X182000000Y-126200000D03*
D24*
X182000000Y-125400000D03*
D25*
X182000000Y-127000000D03*
D24*
X182000000Y-127800000D03*
X180200000Y-130500000D03*
D25*
X180200000Y-132100000D03*
X180200000Y-131300000D03*
D24*
X180200000Y-132900000D03*
D25*
X182000000Y-131300000D03*
D24*
X182000000Y-130500000D03*
D25*
X182000000Y-132100000D03*
D24*
X182000000Y-132900000D03*
X180200000Y-135600000D03*
D25*
X180200000Y-137200000D03*
X180200000Y-136400000D03*
D24*
X180200000Y-138000000D03*
D25*
X182000000Y-136400000D03*
D24*
X182000000Y-135600000D03*
D25*
X182000000Y-137200000D03*
D24*
X182000000Y-138000000D03*
D15*
X183860000Y-115650000D03*
D16*
X186400000Y-115650000D03*
X183860000Y-118190000D03*
X186400000Y-118190000D03*
X183860000Y-120730000D03*
X186400000Y-120730000D03*
X183860000Y-123270000D03*
X186400000Y-123270000D03*
X183860000Y-125810000D03*
X186400000Y-125810000D03*
X183860000Y-128350000D03*
X186400000Y-128350000D03*
X183860000Y-130890000D03*
X186400000Y-130890000D03*
X183860000Y-133430000D03*
X186400000Y-133430000D03*
X183860000Y-135970000D03*
X186400000Y-135970000D03*
X183860000Y-138510000D03*
X186400000Y-138510000D03*
D28*
X168450000Y-128050000D03*
X168450000Y-128550000D03*
X168450000Y-129050000D03*
X168450000Y-129550000D03*
X168450000Y-130050000D03*
X168450000Y-130550000D03*
X168450000Y-131050000D03*
X168450000Y-131550000D03*
X168450000Y-132050000D03*
X168450000Y-132550000D03*
X168450000Y-133050000D03*
X168450000Y-133550000D03*
D29*
X170050000Y-135150000D03*
X170550000Y-135150000D03*
X171050000Y-135150000D03*
X171550000Y-135150000D03*
X172050000Y-135150000D03*
X172550000Y-135150000D03*
X173050000Y-135150000D03*
X173550000Y-135150000D03*
X174050000Y-135150000D03*
X174550000Y-135150000D03*
X175050000Y-135150000D03*
X175550000Y-135150000D03*
D28*
X177150000Y-133550000D03*
X177150000Y-133050000D03*
X177150000Y-132550000D03*
X177150000Y-132050000D03*
X177150000Y-131550000D03*
X177150000Y-131050000D03*
X177150000Y-130550000D03*
X177150000Y-130050000D03*
X177150000Y-129550000D03*
X177150000Y-129050000D03*
X177150000Y-128550000D03*
X177150000Y-128050000D03*
D29*
X175550000Y-126450000D03*
X175050000Y-126450000D03*
X174550000Y-126450000D03*
X174050000Y-126450000D03*
X173550000Y-126450000D03*
X173050000Y-126450000D03*
X172550000Y-126450000D03*
X172050000Y-126450000D03*
X171550000Y-126450000D03*
X171050000Y-126450000D03*
X170550000Y-126450000D03*
X170050000Y-126450000D03*
D24*
X164660000Y-133000000D03*
D25*
X164660000Y-131400000D03*
X164660000Y-132200000D03*
D24*
X164660000Y-130600000D03*
D25*
X162860000Y-132200000D03*
D24*
X162860000Y-133000000D03*
D25*
X162860000Y-131400000D03*
D24*
X162860000Y-130600000D03*
X164660000Y-137900000D03*
D25*
X164660000Y-136300000D03*
X164660000Y-137100000D03*
D24*
X164660000Y-135500000D03*
D25*
X162860000Y-137100000D03*
D24*
X162860000Y-137900000D03*
D25*
X162860000Y-136300000D03*
D24*
X162860000Y-135500000D03*
D15*
X158460000Y-115650000D03*
D16*
X161000000Y-115650000D03*
X158460000Y-118190000D03*
X161000000Y-118190000D03*
X158460000Y-120730000D03*
X161000000Y-120730000D03*
X158460000Y-123270000D03*
X161000000Y-123270000D03*
X158460000Y-125810000D03*
X161000000Y-125810000D03*
X158460000Y-128350000D03*
X161000000Y-128350000D03*
X158460000Y-130890000D03*
X161000000Y-130890000D03*
X158460000Y-133430000D03*
X161000000Y-133430000D03*
X158460000Y-135970000D03*
X161000000Y-135970000D03*
X158460000Y-138510000D03*
X161000000Y-138510000D03*
D24*
X164700000Y-122800000D03*
D25*
X164700000Y-121200000D03*
X164700000Y-122000000D03*
D24*
X164700000Y-120400000D03*
D25*
X162900000Y-122000000D03*
D24*
X162900000Y-122800000D03*
D25*
X162900000Y-121200000D03*
D24*
X162900000Y-120400000D03*
X164700000Y-127900000D03*
D25*
X164700000Y-126300000D03*
X164700000Y-127100000D03*
D24*
X164700000Y-125500000D03*
D25*
X162900000Y-127100000D03*
D24*
X162900000Y-127900000D03*
D25*
X162900000Y-126300000D03*
D24*
X162900000Y-125500000D03*
X164700000Y-117800000D03*
D25*
X164700000Y-116200000D03*
X164700000Y-117000000D03*
D24*
X164700000Y-115400000D03*
D25*
X162900000Y-117000000D03*
D24*
X162900000Y-117800000D03*
D25*
X162900000Y-116200000D03*
D24*
X162900000Y-115400000D03*
D21*
X175900000Y-140600000D03*
X175900000Y-138400000D03*
X178460000Y-140600000D03*
X178460000Y-138400000D03*
X170100000Y-140600000D03*
X170100000Y-138400000D03*
X167760000Y-140600000D03*
X167760000Y-138400000D03*
D26*
X174200000Y-138350000D03*
D27*
X172600000Y-138350000D03*
X173400000Y-138350000D03*
D26*
X171800000Y-138350000D03*
D27*
X173400000Y-140150000D03*
D26*
X174200000Y-140150000D03*
D27*
X172600000Y-140150000D03*
D26*
X171800000Y-140150000D03*
D11*
X148600000Y-115550000D03*
X148600000Y-113650000D03*
X150800000Y-111750000D03*
X150800000Y-109850000D03*
D12*
X153000000Y-111800000D03*
X153000000Y-109800000D03*
D11*
X146500000Y-106250000D03*
X146500000Y-108150000D03*
D21*
X153000000Y-105500000D03*
X153000000Y-107700000D03*
D11*
X148500000Y-106250000D03*
X148500000Y-108150000D03*
D12*
X150800000Y-108300000D03*
X150800000Y-106300000D03*
X145700000Y-100600000D03*
X145700000Y-98600000D03*
D11*
X146500000Y-102350000D03*
X146500000Y-104250000D03*
D13*
X151300000Y-102100000D03*
D14*
X151300000Y-100100000D03*
D17*
X135300000Y-101700000D03*
X131800000Y-101700000D03*
D15*
X126460000Y-102940000D03*
D16*
X129000000Y-102940000D03*
X126460000Y-105480000D03*
X129000000Y-105480000D03*
X126460000Y-108020000D03*
X129000000Y-108020000D03*
D13*
X132500000Y-110700000D03*
D14*
X130500000Y-110700000D03*
D13*
X135300000Y-106100000D03*
D14*
X133300000Y-106100000D03*
D18*
X131800000Y-99400000D03*
X134700000Y-99400000D03*
D22*
X138169583Y-112587593D03*
D23*
X136899583Y-115127593D03*
D22*
X139439583Y-115127593D03*
X140709583Y-112587593D03*
X141979583Y-115127593D03*
X143249583Y-112587593D03*
D19*
X140050000Y-98600000D03*
X138150000Y-98600000D03*
X139100000Y-100600000D03*
D20*
X139000000Y-102395000D03*
X139000000Y-103665000D03*
X139000000Y-104935000D03*
X139000000Y-106205000D03*
X144400000Y-106205000D03*
X144400000Y-104935000D03*
X144400000Y-103665000D03*
X144400000Y-102395000D03*
D17*
X137500000Y-108900000D03*
X141000000Y-108900000D03*
D19*
X143650000Y-98600000D03*
X141750000Y-98600000D03*
X142700000Y-100600000D03*
D12*
X143300000Y-108000000D03*
X143300000Y-110000000D03*
D11*
X138900000Y-117850000D03*
X138900000Y-119750000D03*
D12*
X142900000Y-119800000D03*
X142900000Y-117800000D03*
D11*
X136900000Y-117850000D03*
X136900000Y-119750000D03*
X144900000Y-119750000D03*
X144900000Y-117850000D03*
X140900000Y-117850000D03*
X140900000Y-119750000D03*
X148600000Y-116750000D03*
X148600000Y-118650000D03*
D24*
X148200000Y-120300000D03*
D25*
X148200000Y-121900000D03*
X148200000Y-121100000D03*
D24*
X148200000Y-122700000D03*
D25*
X150000000Y-121100000D03*
D24*
X150000000Y-120300000D03*
D25*
X150000000Y-121900000D03*
D24*
X150000000Y-122700000D03*
X148200000Y-125400000D03*
D25*
X148200000Y-127000000D03*
X148200000Y-126200000D03*
D24*
X148200000Y-127800000D03*
D25*
X150000000Y-126200000D03*
D24*
X150000000Y-125400000D03*
D25*
X150000000Y-127000000D03*
D24*
X150000000Y-127800000D03*
X148200000Y-130500000D03*
D25*
X148200000Y-132100000D03*
X148200000Y-131300000D03*
D24*
X148200000Y-132900000D03*
D25*
X150000000Y-131300000D03*
D24*
X150000000Y-130500000D03*
D25*
X150000000Y-132100000D03*
D24*
X150000000Y-132900000D03*
X148200000Y-135600000D03*
D25*
X148200000Y-137200000D03*
X148200000Y-136400000D03*
D24*
X148200000Y-138000000D03*
D25*
X150000000Y-136400000D03*
D24*
X150000000Y-135600000D03*
D25*
X150000000Y-137200000D03*
D24*
X150000000Y-138000000D03*
D15*
X151860000Y-115650000D03*
D16*
X154400000Y-115650000D03*
X151860000Y-118190000D03*
X154400000Y-118190000D03*
X151860000Y-120730000D03*
X154400000Y-120730000D03*
X151860000Y-123270000D03*
X154400000Y-123270000D03*
X151860000Y-125810000D03*
X154400000Y-125810000D03*
X151860000Y-128350000D03*
X154400000Y-128350000D03*
X151860000Y-130890000D03*
X154400000Y-130890000D03*
X151860000Y-133430000D03*
X154400000Y-133430000D03*
X151860000Y-135970000D03*
X154400000Y-135970000D03*
X151860000Y-138510000D03*
X154400000Y-138510000D03*
D28*
X136450000Y-128050000D03*
X136450000Y-128550000D03*
X136450000Y-129050000D03*
X136450000Y-129550000D03*
X136450000Y-130050000D03*
X136450000Y-130550000D03*
X136450000Y-131050000D03*
X136450000Y-131550000D03*
X136450000Y-132050000D03*
X136450000Y-132550000D03*
X136450000Y-133050000D03*
X136450000Y-133550000D03*
D29*
X138050000Y-135150000D03*
X138550000Y-135150000D03*
X139050000Y-135150000D03*
X139550000Y-135150000D03*
X140050000Y-135150000D03*
X140550000Y-135150000D03*
X141050000Y-135150000D03*
X141550000Y-135150000D03*
X142050000Y-135150000D03*
X142550000Y-135150000D03*
X143050000Y-135150000D03*
X143550000Y-135150000D03*
D28*
X145150000Y-133550000D03*
X145150000Y-133050000D03*
X145150000Y-132550000D03*
X145150000Y-132050000D03*
X145150000Y-131550000D03*
X145150000Y-131050000D03*
X145150000Y-130550000D03*
X145150000Y-130050000D03*
X145150000Y-129550000D03*
X145150000Y-129050000D03*
X145150000Y-128550000D03*
X145150000Y-128050000D03*
D29*
X143550000Y-126450000D03*
X143050000Y-126450000D03*
X142550000Y-126450000D03*
X142050000Y-126450000D03*
X141550000Y-126450000D03*
X141050000Y-126450000D03*
X140550000Y-126450000D03*
X140050000Y-126450000D03*
X139550000Y-126450000D03*
X139050000Y-126450000D03*
X138550000Y-126450000D03*
X138050000Y-126450000D03*
D24*
X132660000Y-133000000D03*
D25*
X132660000Y-131400000D03*
X132660000Y-132200000D03*
D24*
X132660000Y-130600000D03*
D25*
X130860000Y-132200000D03*
D24*
X130860000Y-133000000D03*
D25*
X130860000Y-131400000D03*
D24*
X130860000Y-130600000D03*
X132660000Y-137900000D03*
D25*
X132660000Y-136300000D03*
X132660000Y-137100000D03*
D24*
X132660000Y-135500000D03*
D25*
X130860000Y-137100000D03*
D24*
X130860000Y-137900000D03*
D25*
X130860000Y-136300000D03*
D24*
X130860000Y-135500000D03*
D15*
X126460000Y-115650000D03*
D16*
X129000000Y-115650000D03*
X126460000Y-118190000D03*
X129000000Y-118190000D03*
X126460000Y-120730000D03*
X129000000Y-120730000D03*
X126460000Y-123270000D03*
X129000000Y-123270000D03*
X126460000Y-125810000D03*
X129000000Y-125810000D03*
X126460000Y-128350000D03*
X129000000Y-128350000D03*
X126460000Y-130890000D03*
X129000000Y-130890000D03*
X126460000Y-133430000D03*
X129000000Y-133430000D03*
X126460000Y-135970000D03*
X129000000Y-135970000D03*
X126460000Y-138510000D03*
X129000000Y-138510000D03*
D24*
X132700000Y-122800000D03*
D25*
X132700000Y-121200000D03*
X132700000Y-122000000D03*
D24*
X132700000Y-120400000D03*
D25*
X130900000Y-122000000D03*
D24*
X130900000Y-122800000D03*
D25*
X130900000Y-121200000D03*
D24*
X130900000Y-120400000D03*
X132700000Y-127900000D03*
D25*
X132700000Y-126300000D03*
X132700000Y-127100000D03*
D24*
X132700000Y-125500000D03*
D25*
X130900000Y-127100000D03*
D24*
X130900000Y-127900000D03*
D25*
X130900000Y-126300000D03*
D24*
X130900000Y-125500000D03*
X132700000Y-117800000D03*
D25*
X132700000Y-116200000D03*
X132700000Y-117000000D03*
D24*
X132700000Y-115400000D03*
D25*
X130900000Y-117000000D03*
D24*
X130900000Y-117800000D03*
D25*
X130900000Y-116200000D03*
D24*
X130900000Y-115400000D03*
D21*
X143900000Y-140600000D03*
X143900000Y-138400000D03*
X146460000Y-140600000D03*
X146460000Y-138400000D03*
X138100000Y-140600000D03*
X138100000Y-138400000D03*
X135760000Y-140600000D03*
X135760000Y-138400000D03*
D26*
X142200000Y-138350000D03*
D27*
X140600000Y-138350000D03*
X141400000Y-138350000D03*
D26*
X139800000Y-138350000D03*
D27*
X141400000Y-140150000D03*
D26*
X142200000Y-140150000D03*
D27*
X140600000Y-140150000D03*
D26*
X139800000Y-140150000D03*
D12*
X121000000Y-111800000D03*
X121000000Y-109800000D03*
X110900000Y-119800000D03*
X110900000Y-117800000D03*
X111300000Y-108000000D03*
X111300000Y-110000000D03*
X113700000Y-100600000D03*
X113700000Y-98600000D03*
X118800000Y-108300000D03*
X118800000Y-106300000D03*
D17*
X105500000Y-108900000D03*
X109000000Y-108900000D03*
D19*
X111650000Y-98600000D03*
X109750000Y-98600000D03*
X110700000Y-100600000D03*
X108050000Y-98600000D03*
X106150000Y-98600000D03*
X107100000Y-100600000D03*
D22*
X106169583Y-112587593D03*
D23*
X104899583Y-115127593D03*
D22*
X107439583Y-115127593D03*
X108709583Y-112587593D03*
X109979583Y-115127593D03*
X111249583Y-112587593D03*
D11*
X116500000Y-106250000D03*
X116500000Y-108150000D03*
X114500000Y-106250000D03*
X114500000Y-108150000D03*
X112900000Y-119750000D03*
X112900000Y-117850000D03*
X108900000Y-117850000D03*
X108900000Y-119750000D03*
X104900000Y-117850000D03*
X104900000Y-119750000D03*
X106900000Y-117850000D03*
X106900000Y-119750000D03*
X116600000Y-116750000D03*
X116600000Y-118650000D03*
X116600000Y-115550000D03*
X116600000Y-113650000D03*
X118800000Y-111750000D03*
X118800000Y-109850000D03*
D24*
X100700000Y-122800000D03*
D25*
X100700000Y-121200000D03*
X100700000Y-122000000D03*
D24*
X100700000Y-120400000D03*
D25*
X98900000Y-122000000D03*
D24*
X98900000Y-122800000D03*
D25*
X98900000Y-121200000D03*
D24*
X98900000Y-120400000D03*
X100700000Y-127900000D03*
D25*
X100700000Y-126300000D03*
X100700000Y-127100000D03*
D24*
X100700000Y-125500000D03*
D25*
X98900000Y-127100000D03*
D24*
X98900000Y-127900000D03*
D25*
X98900000Y-126300000D03*
D24*
X98900000Y-125500000D03*
X100660000Y-133000000D03*
D25*
X100660000Y-131400000D03*
X100660000Y-132200000D03*
D24*
X100660000Y-130600000D03*
D25*
X98860000Y-132200000D03*
D24*
X98860000Y-133000000D03*
D25*
X98860000Y-131400000D03*
D24*
X98860000Y-130600000D03*
X100660000Y-137900000D03*
D25*
X100660000Y-136300000D03*
X100660000Y-137100000D03*
D24*
X100660000Y-135500000D03*
D25*
X98860000Y-137100000D03*
D24*
X98860000Y-137900000D03*
D25*
X98860000Y-136300000D03*
D24*
X98860000Y-135500000D03*
X116200000Y-135600000D03*
D25*
X116200000Y-137200000D03*
X116200000Y-136400000D03*
D24*
X116200000Y-138000000D03*
D25*
X118000000Y-136400000D03*
D24*
X118000000Y-135600000D03*
D25*
X118000000Y-137200000D03*
D24*
X118000000Y-138000000D03*
X116200000Y-130500000D03*
D25*
X116200000Y-132100000D03*
X116200000Y-131300000D03*
D24*
X116200000Y-132900000D03*
D25*
X118000000Y-131300000D03*
D24*
X118000000Y-130500000D03*
D25*
X118000000Y-132100000D03*
D24*
X118000000Y-132900000D03*
D20*
X107000000Y-102395000D03*
X107000000Y-103665000D03*
X107000000Y-104935000D03*
X107000000Y-106205000D03*
X112400000Y-106205000D03*
X112400000Y-104935000D03*
X112400000Y-103665000D03*
X112400000Y-102395000D03*
D28*
X104450000Y-128050000D03*
X104450000Y-128550000D03*
X104450000Y-129050000D03*
X104450000Y-129550000D03*
X104450000Y-130050000D03*
X104450000Y-130550000D03*
X104450000Y-131050000D03*
X104450000Y-131550000D03*
X104450000Y-132050000D03*
X104450000Y-132550000D03*
X104450000Y-133050000D03*
X104450000Y-133550000D03*
D29*
X106050000Y-135150000D03*
X106550000Y-135150000D03*
X107050000Y-135150000D03*
X107550000Y-135150000D03*
X108050000Y-135150000D03*
X108550000Y-135150000D03*
X109050000Y-135150000D03*
X109550000Y-135150000D03*
X110050000Y-135150000D03*
X110550000Y-135150000D03*
X111050000Y-135150000D03*
X111550000Y-135150000D03*
D28*
X113150000Y-133550000D03*
X113150000Y-133050000D03*
X113150000Y-132550000D03*
X113150000Y-132050000D03*
X113150000Y-131550000D03*
X113150000Y-131050000D03*
X113150000Y-130550000D03*
X113150000Y-130050000D03*
X113150000Y-129550000D03*
X113150000Y-129050000D03*
X113150000Y-128550000D03*
X113150000Y-128050000D03*
D29*
X111550000Y-126450000D03*
X111050000Y-126450000D03*
X110550000Y-126450000D03*
X110050000Y-126450000D03*
X109550000Y-126450000D03*
X109050000Y-126450000D03*
X108550000Y-126450000D03*
X108050000Y-126450000D03*
X107550000Y-126450000D03*
X107050000Y-126450000D03*
X106550000Y-126450000D03*
X106050000Y-126450000D03*
D24*
X100700000Y-117800000D03*
D25*
X100700000Y-116200000D03*
X100700000Y-117000000D03*
D24*
X100700000Y-115400000D03*
D25*
X98900000Y-117000000D03*
D24*
X98900000Y-117800000D03*
D25*
X98900000Y-116200000D03*
D24*
X98900000Y-115400000D03*
X116200000Y-120300000D03*
D25*
X116200000Y-121900000D03*
X116200000Y-121100000D03*
D24*
X116200000Y-122700000D03*
D25*
X118000000Y-121100000D03*
D24*
X118000000Y-120300000D03*
D25*
X118000000Y-121900000D03*
D24*
X118000000Y-122700000D03*
X116200000Y-125400000D03*
D25*
X116200000Y-127000000D03*
X116200000Y-126200000D03*
D24*
X116200000Y-127800000D03*
D25*
X118000000Y-126200000D03*
D24*
X118000000Y-125400000D03*
D25*
X118000000Y-127000000D03*
D24*
X118000000Y-127800000D03*
D21*
X103760000Y-140600000D03*
X103760000Y-138400000D03*
X106100000Y-140600000D03*
X106100000Y-138400000D03*
X111900000Y-140600000D03*
X111900000Y-138400000D03*
X114460000Y-140600000D03*
X114460000Y-138400000D03*
D26*
X110200000Y-138350000D03*
D27*
X108600000Y-138350000D03*
X109400000Y-138350000D03*
D26*
X107800000Y-138350000D03*
D27*
X109400000Y-140150000D03*
D26*
X110200000Y-140150000D03*
D27*
X108600000Y-140150000D03*
D26*
X107800000Y-140150000D03*
D18*
X99800000Y-99400000D03*
X102700000Y-99400000D03*
D13*
X103300000Y-106100000D03*
D14*
X101300000Y-106100000D03*
D13*
X100500000Y-110700000D03*
D14*
X98500000Y-110700000D03*
D13*
X119300000Y-102100000D03*
D14*
X119300000Y-100100000D03*
D21*
X121000000Y-105500000D03*
X121000000Y-107700000D03*
D11*
X114500000Y-102350000D03*
X114500000Y-104250000D03*
D17*
X103300000Y-101700000D03*
X99800000Y-101700000D03*
D15*
X94460000Y-115650000D03*
D16*
X97000000Y-115650000D03*
X94460000Y-118190000D03*
X97000000Y-118190000D03*
X94460000Y-120730000D03*
X97000000Y-120730000D03*
X94460000Y-123270000D03*
X97000000Y-123270000D03*
X94460000Y-125810000D03*
X97000000Y-125810000D03*
X94460000Y-128350000D03*
X97000000Y-128350000D03*
X94460000Y-130890000D03*
X97000000Y-130890000D03*
X94460000Y-133430000D03*
X97000000Y-133430000D03*
X94460000Y-135970000D03*
X97000000Y-135970000D03*
X94460000Y-138510000D03*
X97000000Y-138510000D03*
D15*
X119860000Y-115650000D03*
D16*
X122400000Y-115650000D03*
X119860000Y-118190000D03*
X122400000Y-118190000D03*
X119860000Y-120730000D03*
X122400000Y-120730000D03*
X119860000Y-123270000D03*
X122400000Y-123270000D03*
X119860000Y-125810000D03*
X122400000Y-125810000D03*
X119860000Y-128350000D03*
X122400000Y-128350000D03*
X119860000Y-130890000D03*
X122400000Y-130890000D03*
X119860000Y-133430000D03*
X122400000Y-133430000D03*
X119860000Y-135970000D03*
X122400000Y-135970000D03*
X119860000Y-138510000D03*
X122400000Y-138510000D03*
D15*
X94460000Y-102940000D03*
D16*
X97000000Y-102940000D03*
X94460000Y-105480000D03*
X97000000Y-105480000D03*
X94460000Y-108020000D03*
X97000000Y-108020000D03*
M02*
