M48
;DRILL file {KiCad 4.0.7} date 07/23/18 15:50:44
;FORMAT={-:-/ absolute / metric / decimal}
FMAT,2
METRIC,TZ
T1C0.400
T2C0.600
T3C0.700
T4C0.800
T5C1.000
%
G90
G05
M71
T1
X98.728Y-77.616
X98.728Y-123.616
X101.073Y-78.16
X101.073Y-124.16
X101.61Y-91.095
X101.61Y-137.095
X101.754Y-71.803
X101.754Y-117.803
X101.787Y-91.905
X101.787Y-137.905
X101.856Y-90.316
X101.856Y-136.316
X102.086Y-78.436
X102.086Y-124.436
X102.841Y-81.91
X102.841Y-127.91
X102.893Y-84.047
X102.893Y-130.047
X103.036Y-80.16
X103.036Y-126.16
X103.053Y-71.807
X103.053Y-117.807
X103.066Y-84.999
X103.066Y-130.999
X103.257Y-85.875
X103.257Y-131.875
X103.563Y-53.395
X103.563Y-99.395
X104.342Y-89.149
X104.342Y-135.149
X104.358Y-88.331
X104.358Y-134.331
X104.897Y-72.891
X104.897Y-118.891
X105.7Y-86.972
X105.7Y-132.972
X106.391Y-86.343
X106.391Y-132.343
X106.729Y-61.606
X106.729Y-107.606
X106.898Y-75.088
X106.898Y-121.088
X107.725Y-84.311
X107.725Y-130.311
X107.78Y-85.713
X107.78Y-131.713
X107.877Y-78.194
X107.877Y-124.194
X108.819Y-87.864
X108.819Y-133.864
X108.901Y-75.952
X108.901Y-121.952
X108.927Y-58.038
X108.927Y-104.038
X109.33Y-83.8
X109.33Y-129.8
X109.55Y-87.5
X109.55Y-133.5
X110.055Y-62.911
X110.055Y-108.911
X110.281Y-87.86
X110.281Y-133.86
X110.346Y-58.032
X110.346Y-104.032
X112.193Y-78.921
X112.193Y-124.921
X114.735Y-82.818
X114.735Y-128.818
X115.513Y-69.542
X115.513Y-115.542
X117.597Y-62.168
X117.597Y-108.168
X118.8Y-64.7
X118.8Y-110.7
X130.728Y-77.616
X130.728Y-123.616
X133.073Y-78.16
X133.073Y-124.16
X133.61Y-91.095
X133.61Y-137.095
X133.754Y-71.803
X133.754Y-117.803
X133.787Y-91.905
X133.787Y-137.905
X133.856Y-90.316
X133.856Y-136.316
X134.086Y-78.436
X134.086Y-124.436
X134.841Y-81.91
X134.841Y-127.91
X134.893Y-84.047
X134.893Y-130.047
X135.036Y-80.16
X135.036Y-126.16
X135.053Y-71.807
X135.053Y-117.807
X135.066Y-84.999
X135.066Y-130.999
X135.257Y-85.875
X135.257Y-131.875
X135.563Y-53.395
X135.563Y-99.395
X136.342Y-89.149
X136.342Y-135.149
X136.358Y-88.331
X136.358Y-134.331
X136.897Y-72.891
X136.897Y-118.891
X137.7Y-86.972
X137.7Y-132.972
X138.391Y-86.343
X138.391Y-132.343
X138.729Y-61.606
X138.729Y-107.606
X138.898Y-75.088
X138.898Y-121.088
X139.725Y-84.311
X139.725Y-130.311
X139.78Y-85.713
X139.78Y-131.713
X139.877Y-78.194
X139.877Y-124.194
X140.819Y-87.864
X140.819Y-133.864
X140.901Y-75.952
X140.901Y-121.952
X140.927Y-58.038
X140.927Y-104.038
X141.33Y-83.8
X141.33Y-129.8
X141.55Y-87.5
X141.55Y-133.5
X142.055Y-62.911
X142.055Y-108.911
X142.281Y-87.86
X142.281Y-133.86
X142.346Y-58.032
X142.346Y-104.032
X144.193Y-78.921
X144.193Y-124.921
X146.735Y-82.818
X146.735Y-128.818
X147.513Y-69.542
X147.513Y-115.542
X149.597Y-62.168
X149.597Y-108.168
X150.8Y-64.7
X150.8Y-110.7
X162.728Y-77.616
X162.728Y-123.616
X165.073Y-78.16
X165.073Y-124.16
X165.61Y-91.095
X165.61Y-137.095
X165.754Y-71.803
X165.754Y-117.803
X165.787Y-91.905
X165.787Y-137.905
X165.856Y-90.316
X165.856Y-136.316
X166.086Y-78.436
X166.086Y-124.436
X166.841Y-81.91
X166.841Y-127.91
X166.893Y-84.047
X166.893Y-130.047
X167.036Y-80.16
X167.036Y-126.16
X167.053Y-71.807
X167.053Y-117.807
X167.066Y-84.999
X167.066Y-130.999
X167.257Y-85.875
X167.257Y-131.875
X167.563Y-53.395
X167.563Y-99.395
X168.342Y-89.149
X168.342Y-135.149
X168.358Y-88.331
X168.358Y-134.331
X168.897Y-72.891
X168.897Y-118.891
X169.7Y-86.972
X169.7Y-132.972
X170.391Y-86.343
X170.391Y-132.343
X170.729Y-61.606
X170.729Y-107.606
X170.898Y-75.088
X170.898Y-121.088
X171.725Y-84.311
X171.725Y-130.311
X171.78Y-85.713
X171.78Y-131.713
X171.877Y-78.194
X171.877Y-124.194
X172.819Y-87.864
X172.819Y-133.864
X172.901Y-75.952
X172.901Y-121.952
X172.927Y-58.038
X172.927Y-104.038
X173.33Y-83.8
X173.33Y-129.8
X173.55Y-87.5
X173.55Y-133.5
X174.055Y-62.911
X174.055Y-108.911
X174.281Y-87.86
X174.281Y-133.86
X174.346Y-58.032
X174.346Y-104.032
X176.193Y-78.921
X176.193Y-124.921
X178.735Y-82.818
X178.735Y-128.818
X179.513Y-69.542
X179.513Y-115.542
X181.597Y-62.168
X181.597Y-108.168
X182.8Y-64.7
X182.8Y-110.7
T2
X99.7Y-94.3
X99.7Y-140.3
X99.8Y-73.1
X99.8Y-119.1
X101.6Y-57.2
X101.6Y-103.2
X102.5Y-62.7
X102.5Y-108.7
X102.9Y-79.
X102.9Y-125.
X104.5Y-78.
X104.5Y-124.
X107.Y-58.3
X107.Y-104.3
X107.8Y-76.
X107.8Y-122.
X109.5Y-86.1
X109.5Y-132.1
X110.3Y-76.1
X110.3Y-122.1
X110.9Y-82.
X110.9Y-128.
X112.5Y-89.3
X112.5Y-135.3
X113.6Y-78.9
X113.6Y-124.9
X114.4Y-72.9
X114.4Y-118.9
X116.1Y-57.2
X116.1Y-103.2
X117.7Y-83.
X117.7Y-129.
X118.1Y-69.7
X118.1Y-115.7
X118.6Y-94.3
X118.6Y-140.3
X131.7Y-94.3
X131.7Y-140.3
X131.8Y-73.1
X131.8Y-119.1
X133.6Y-57.2
X133.6Y-103.2
X134.5Y-62.7
X134.5Y-108.7
X134.9Y-79.
X134.9Y-125.
X136.5Y-78.
X136.5Y-124.
X139.Y-58.3
X139.Y-104.3
X139.8Y-76.
X139.8Y-122.
X141.5Y-86.1
X141.5Y-132.1
X142.3Y-76.1
X142.3Y-122.1
X142.9Y-82.
X142.9Y-128.
X144.5Y-89.3
X144.5Y-135.3
X145.6Y-78.9
X145.6Y-124.9
X146.4Y-72.9
X146.4Y-118.9
X148.1Y-57.2
X148.1Y-103.2
X149.7Y-83.
X149.7Y-129.
X150.1Y-69.7
X150.1Y-115.7
X150.6Y-94.3
X150.6Y-140.3
X163.7Y-94.3
X163.7Y-140.3
X163.8Y-73.1
X163.8Y-119.1
X165.6Y-57.2
X165.6Y-103.2
X166.5Y-62.7
X166.5Y-108.7
X166.9Y-79.
X166.9Y-125.
X168.5Y-78.
X168.5Y-124.
X171.Y-58.3
X171.Y-104.3
X171.8Y-76.
X171.8Y-122.
X173.5Y-86.1
X173.5Y-132.1
X174.3Y-76.1
X174.3Y-122.1
X174.9Y-82.
X174.9Y-128.
X176.5Y-89.3
X176.5Y-135.3
X177.6Y-78.9
X177.6Y-124.9
X178.4Y-72.9
X178.4Y-118.9
X180.1Y-57.2
X180.1Y-103.2
X181.7Y-83.
X181.7Y-129.
X182.1Y-69.7
X182.1Y-115.7
X182.6Y-94.3
X182.6Y-140.3
T3
X104.9Y-69.128
X104.9Y-115.128
X106.17Y-66.588
X106.17Y-112.588
X107.44Y-69.128
X107.44Y-115.128
X108.71Y-66.588
X108.71Y-112.588
X109.98Y-69.128
X109.98Y-115.128
X111.25Y-66.588
X111.25Y-112.588
X136.9Y-69.128
X136.9Y-115.128
X138.17Y-66.588
X138.17Y-112.588
X139.44Y-69.128
X139.44Y-115.128
X140.71Y-66.588
X140.71Y-112.588
X141.98Y-69.128
X141.98Y-115.128
X143.25Y-66.588
X143.25Y-112.588
X168.9Y-69.128
X168.9Y-115.128
X170.17Y-66.588
X170.17Y-112.588
X171.44Y-69.128
X171.44Y-115.128
X172.71Y-66.588
X172.71Y-112.588
X173.98Y-69.128
X173.98Y-115.128
X175.25Y-66.588
X175.25Y-112.588
T4
X98.5Y-64.7
X98.5Y-110.7
X100.5Y-64.7
X100.5Y-110.7
X101.3Y-60.1
X101.3Y-106.1
X103.3Y-60.1
X103.3Y-106.1
X119.3Y-54.1
X119.3Y-56.1
X119.3Y-100.1
X119.3Y-102.1
X130.5Y-64.7
X130.5Y-110.7
X132.5Y-64.7
X132.5Y-110.7
X133.3Y-60.1
X133.3Y-106.1
X135.3Y-60.1
X135.3Y-106.1
X151.3Y-54.1
X151.3Y-56.1
X151.3Y-100.1
X151.3Y-102.1
X162.5Y-64.7
X162.5Y-110.7
X164.5Y-64.7
X164.5Y-110.7
X165.3Y-60.1
X165.3Y-106.1
X167.3Y-60.1
X167.3Y-106.1
X183.3Y-54.1
X183.3Y-56.1
X183.3Y-100.1
X183.3Y-102.1
T5
X94.46Y-56.94
X94.46Y-59.48
X94.46Y-62.02
X94.46Y-69.65
X94.46Y-72.19
X94.46Y-74.73
X94.46Y-77.27
X94.46Y-79.81
X94.46Y-82.35
X94.46Y-84.89
X94.46Y-87.43
X94.46Y-89.97
X94.46Y-92.51
X94.46Y-102.94
X94.46Y-105.48
X94.46Y-108.02
X94.46Y-115.65
X94.46Y-118.19
X94.46Y-120.73
X94.46Y-123.27
X94.46Y-125.81
X94.46Y-128.35
X94.46Y-130.89
X94.46Y-133.43
X94.46Y-135.97
X94.46Y-138.51
X97.Y-56.94
X97.Y-59.48
X97.Y-62.02
X97.Y-69.65
X97.Y-72.19
X97.Y-74.73
X97.Y-77.27
X97.Y-79.81
X97.Y-82.35
X97.Y-84.89
X97.Y-87.43
X97.Y-89.97
X97.Y-92.51
X97.Y-102.94
X97.Y-105.48
X97.Y-108.02
X97.Y-115.65
X97.Y-118.19
X97.Y-120.73
X97.Y-123.27
X97.Y-125.81
X97.Y-128.35
X97.Y-130.89
X97.Y-133.43
X97.Y-135.97
X97.Y-138.51
X119.86Y-69.65
X119.86Y-72.19
X119.86Y-74.73
X119.86Y-77.27
X119.86Y-79.81
X119.86Y-82.35
X119.86Y-84.89
X119.86Y-87.43
X119.86Y-89.97
X119.86Y-92.51
X119.86Y-115.65
X119.86Y-118.19
X119.86Y-120.73
X119.86Y-123.27
X119.86Y-125.81
X119.86Y-128.35
X119.86Y-130.89
X119.86Y-133.43
X119.86Y-135.97
X119.86Y-138.51
X122.4Y-69.65
X122.4Y-72.19
X122.4Y-74.73
X122.4Y-77.27
X122.4Y-79.81
X122.4Y-82.35
X122.4Y-84.89
X122.4Y-87.43
X122.4Y-89.97
X122.4Y-92.51
X122.4Y-115.65
X122.4Y-118.19
X122.4Y-120.73
X122.4Y-123.27
X122.4Y-125.81
X122.4Y-128.35
X122.4Y-130.89
X122.4Y-133.43
X122.4Y-135.97
X122.4Y-138.51
X126.46Y-56.94
X126.46Y-59.48
X126.46Y-62.02
X126.46Y-69.65
X126.46Y-72.19
X126.46Y-74.73
X126.46Y-77.27
X126.46Y-79.81
X126.46Y-82.35
X126.46Y-84.89
X126.46Y-87.43
X126.46Y-89.97
X126.46Y-92.51
X126.46Y-102.94
X126.46Y-105.48
X126.46Y-108.02
X126.46Y-115.65
X126.46Y-118.19
X126.46Y-120.73
X126.46Y-123.27
X126.46Y-125.81
X126.46Y-128.35
X126.46Y-130.89
X126.46Y-133.43
X126.46Y-135.97
X126.46Y-138.51
X129.Y-56.94
X129.Y-59.48
X129.Y-62.02
X129.Y-69.65
X129.Y-72.19
X129.Y-74.73
X129.Y-77.27
X129.Y-79.81
X129.Y-82.35
X129.Y-84.89
X129.Y-87.43
X129.Y-89.97
X129.Y-92.51
X129.Y-102.94
X129.Y-105.48
X129.Y-108.02
X129.Y-115.65
X129.Y-118.19
X129.Y-120.73
X129.Y-123.27
X129.Y-125.81
X129.Y-128.35
X129.Y-130.89
X129.Y-133.43
X129.Y-135.97
X129.Y-138.51
X151.86Y-69.65
X151.86Y-72.19
X151.86Y-74.73
X151.86Y-77.27
X151.86Y-79.81
X151.86Y-82.35
X151.86Y-84.89
X151.86Y-87.43
X151.86Y-89.97
X151.86Y-92.51
X151.86Y-115.65
X151.86Y-118.19
X151.86Y-120.73
X151.86Y-123.27
X151.86Y-125.81
X151.86Y-128.35
X151.86Y-130.89
X151.86Y-133.43
X151.86Y-135.97
X151.86Y-138.51
X154.4Y-69.65
X154.4Y-72.19
X154.4Y-74.73
X154.4Y-77.27
X154.4Y-79.81
X154.4Y-82.35
X154.4Y-84.89
X154.4Y-87.43
X154.4Y-89.97
X154.4Y-92.51
X154.4Y-115.65
X154.4Y-118.19
X154.4Y-120.73
X154.4Y-123.27
X154.4Y-125.81
X154.4Y-128.35
X154.4Y-130.89
X154.4Y-133.43
X154.4Y-135.97
X154.4Y-138.51
X158.46Y-56.94
X158.46Y-59.48
X158.46Y-62.02
X158.46Y-69.65
X158.46Y-72.19
X158.46Y-74.73
X158.46Y-77.27
X158.46Y-79.81
X158.46Y-82.35
X158.46Y-84.89
X158.46Y-87.43
X158.46Y-89.97
X158.46Y-92.51
X158.46Y-102.94
X158.46Y-105.48
X158.46Y-108.02
X158.46Y-115.65
X158.46Y-118.19
X158.46Y-120.73
X158.46Y-123.27
X158.46Y-125.81
X158.46Y-128.35
X158.46Y-130.89
X158.46Y-133.43
X158.46Y-135.97
X158.46Y-138.51
X161.Y-56.94
X161.Y-59.48
X161.Y-62.02
X161.Y-69.65
X161.Y-72.19
X161.Y-74.73
X161.Y-77.27
X161.Y-79.81
X161.Y-82.35
X161.Y-84.89
X161.Y-87.43
X161.Y-89.97
X161.Y-92.51
X161.Y-102.94
X161.Y-105.48
X161.Y-108.02
X161.Y-115.65
X161.Y-118.19
X161.Y-120.73
X161.Y-123.27
X161.Y-125.81
X161.Y-128.35
X161.Y-130.89
X161.Y-133.43
X161.Y-135.97
X161.Y-138.51
X183.86Y-69.65
X183.86Y-72.19
X183.86Y-74.73
X183.86Y-77.27
X183.86Y-79.81
X183.86Y-82.35
X183.86Y-84.89
X183.86Y-87.43
X183.86Y-89.97
X183.86Y-92.51
X183.86Y-115.65
X183.86Y-118.19
X183.86Y-120.73
X183.86Y-123.27
X183.86Y-125.81
X183.86Y-128.35
X183.86Y-130.89
X183.86Y-133.43
X183.86Y-135.97
X183.86Y-138.51
X186.4Y-69.65
X186.4Y-72.19
X186.4Y-74.73
X186.4Y-77.27
X186.4Y-79.81
X186.4Y-82.35
X186.4Y-84.89
X186.4Y-87.43
X186.4Y-89.97
X186.4Y-92.51
X186.4Y-115.65
X186.4Y-118.19
X186.4Y-120.73
X186.4Y-123.27
X186.4Y-125.81
X186.4Y-128.35
X186.4Y-130.89
X186.4Y-133.43
X186.4Y-135.97
X186.4Y-138.51
T0
M30
