G04 #@! TF.FileFunction,Soldermask,Bot*
%FSLAX46Y46*%
G04 Gerber Fmt 4.6, Leading zero omitted, Abs format (unit mm)*
G04 Created by KiCad (PCBNEW 4.0.7) date 07/23/18 15:50:34*
%MOMM*%
%LPD*%
G01*
G04 APERTURE LIST*
%ADD10C,0.100000*%
%ADD11R,4.200000X2.400000*%
%ADD12R,1.900000X2.400000*%
%ADD13R,1.650000X1.400000*%
%ADD14R,1.700000X1.100000*%
%ADD15R,1.460000X1.050000*%
%ADD16R,1.100000X1.700000*%
%ADD17R,1.400000X1.650000*%
%ADD18R,2.400000X4.900000*%
%ADD19R,2.400000X1.400000*%
%ADD20R,1.400000X3.400000*%
%ADD21R,2.000000X2.000000*%
%ADD22C,2.000000*%
%ADD23R,2.100000X2.100000*%
%ADD24O,2.100000X2.100000*%
%ADD25C,1.700000*%
%ADD26R,1.700000X1.700000*%
G04 APERTURE END LIST*
D10*
D11*
X141700000Y-59650000D03*
D12*
X141700000Y-53350000D03*
X144000000Y-53350000D03*
X139400000Y-53350000D03*
D13*
X146700000Y-55300000D03*
X146700000Y-53300000D03*
X148600000Y-55300000D03*
X148600000Y-53300000D03*
D14*
X146700000Y-58850000D03*
X146700000Y-60750000D03*
D13*
X152600000Y-60800000D03*
X152600000Y-58800000D03*
D15*
X148600000Y-60750000D03*
X148600000Y-59800000D03*
X148600000Y-58850000D03*
X150800000Y-58850000D03*
X150800000Y-60750000D03*
D16*
X164050000Y-86500000D03*
X165950000Y-86500000D03*
D17*
X166000000Y-83500000D03*
X164000000Y-83500000D03*
X166000000Y-81900000D03*
X164000000Y-81900000D03*
D18*
X170000000Y-82000000D03*
X170000000Y-90500000D03*
D19*
X174950000Y-92050000D03*
D20*
X173660000Y-81000000D03*
X176200000Y-81000000D03*
D17*
X166009843Y-85000000D03*
X164009843Y-85000000D03*
X166000000Y-80400000D03*
X164000000Y-80400000D03*
X102000000Y-83500000D03*
X100000000Y-83500000D03*
X102000000Y-81900000D03*
X100000000Y-81900000D03*
X102009843Y-85000000D03*
X100009843Y-85000000D03*
D18*
X106000000Y-82000000D03*
X106000000Y-90500000D03*
D19*
X110950000Y-92050000D03*
D20*
X109660000Y-81000000D03*
X112200000Y-81000000D03*
D16*
X100050000Y-86500000D03*
X101950000Y-86500000D03*
D17*
X102000000Y-80400000D03*
X100000000Y-80400000D03*
D19*
X142950000Y-92050000D03*
D20*
X141660000Y-81000000D03*
X144200000Y-81000000D03*
D18*
X138000000Y-82000000D03*
X138000000Y-90500000D03*
D17*
X134000000Y-80400000D03*
X132000000Y-80400000D03*
X134000000Y-81900000D03*
X132000000Y-81900000D03*
D16*
X132050000Y-86500000D03*
X133950000Y-86500000D03*
D17*
X134009843Y-85000000D03*
X132009843Y-85000000D03*
X134000000Y-83500000D03*
X132000000Y-83500000D03*
D11*
X173700000Y-59650000D03*
D12*
X173700000Y-53350000D03*
X176000000Y-53350000D03*
X171400000Y-53350000D03*
D13*
X178700000Y-55300000D03*
X178700000Y-53300000D03*
D14*
X178700000Y-58850000D03*
X178700000Y-60750000D03*
D13*
X184600000Y-60800000D03*
X184600000Y-58800000D03*
X180600000Y-55300000D03*
X180600000Y-53300000D03*
D15*
X180600000Y-60750000D03*
X180600000Y-59800000D03*
X180600000Y-58850000D03*
X182800000Y-58850000D03*
X182800000Y-60750000D03*
X116600000Y-60750000D03*
X116600000Y-59800000D03*
X116600000Y-58850000D03*
X118800000Y-58850000D03*
X118800000Y-60750000D03*
D13*
X114700000Y-55300000D03*
X114700000Y-53300000D03*
X116600000Y-55300000D03*
X116600000Y-53300000D03*
D11*
X109700000Y-59650000D03*
D12*
X109700000Y-53350000D03*
X112000000Y-53350000D03*
X107400000Y-53350000D03*
D13*
X120600000Y-60800000D03*
X120600000Y-58800000D03*
D14*
X114700000Y-58850000D03*
X114700000Y-60750000D03*
D21*
X164500000Y-64700000D03*
D22*
X162500000Y-64700000D03*
D23*
X158460000Y-56940000D03*
D24*
X161000000Y-56940000D03*
X158460000Y-59480000D03*
X161000000Y-59480000D03*
X158460000Y-62020000D03*
X161000000Y-62020000D03*
D21*
X167300000Y-60100000D03*
D22*
X165300000Y-60100000D03*
D21*
X183300000Y-56100000D03*
D22*
X183300000Y-54100000D03*
D25*
X170169583Y-66587593D03*
D26*
X168899583Y-69127593D03*
D25*
X171439583Y-69127593D03*
X172709583Y-66587593D03*
X173979583Y-69127593D03*
X175249583Y-66587593D03*
D23*
X183860000Y-69650000D03*
D24*
X186400000Y-69650000D03*
X183860000Y-72190000D03*
X186400000Y-72190000D03*
X183860000Y-74730000D03*
X186400000Y-74730000D03*
X183860000Y-77270000D03*
X186400000Y-77270000D03*
X183860000Y-79810000D03*
X186400000Y-79810000D03*
X183860000Y-82350000D03*
X186400000Y-82350000D03*
X183860000Y-84890000D03*
X186400000Y-84890000D03*
X183860000Y-87430000D03*
X186400000Y-87430000D03*
X183860000Y-89970000D03*
X186400000Y-89970000D03*
X183860000Y-92510000D03*
X186400000Y-92510000D03*
D23*
X158460000Y-69650000D03*
D24*
X161000000Y-69650000D03*
X158460000Y-72190000D03*
X161000000Y-72190000D03*
X158460000Y-74730000D03*
X161000000Y-74730000D03*
X158460000Y-77270000D03*
X161000000Y-77270000D03*
X158460000Y-79810000D03*
X161000000Y-79810000D03*
X158460000Y-82350000D03*
X161000000Y-82350000D03*
X158460000Y-84890000D03*
X161000000Y-84890000D03*
X158460000Y-87430000D03*
X161000000Y-87430000D03*
X158460000Y-89970000D03*
X161000000Y-89970000D03*
X158460000Y-92510000D03*
X161000000Y-92510000D03*
D21*
X151300000Y-56100000D03*
D22*
X151300000Y-54100000D03*
D23*
X126460000Y-56940000D03*
D24*
X129000000Y-56940000D03*
X126460000Y-59480000D03*
X129000000Y-59480000D03*
X126460000Y-62020000D03*
X129000000Y-62020000D03*
D21*
X132500000Y-64700000D03*
D22*
X130500000Y-64700000D03*
D21*
X135300000Y-60100000D03*
D22*
X133300000Y-60100000D03*
D23*
X94460000Y-69650000D03*
D24*
X97000000Y-69650000D03*
X94460000Y-72190000D03*
X97000000Y-72190000D03*
X94460000Y-74730000D03*
X97000000Y-74730000D03*
X94460000Y-77270000D03*
X97000000Y-77270000D03*
X94460000Y-79810000D03*
X97000000Y-79810000D03*
X94460000Y-82350000D03*
X97000000Y-82350000D03*
X94460000Y-84890000D03*
X97000000Y-84890000D03*
X94460000Y-87430000D03*
X97000000Y-87430000D03*
X94460000Y-89970000D03*
X97000000Y-89970000D03*
X94460000Y-92510000D03*
X97000000Y-92510000D03*
D25*
X106169583Y-66587593D03*
D26*
X104899583Y-69127593D03*
D25*
X107439583Y-69127593D03*
X108709583Y-66587593D03*
X109979583Y-69127593D03*
X111249583Y-66587593D03*
D21*
X100500000Y-64700000D03*
D22*
X98500000Y-64700000D03*
D21*
X103300000Y-60100000D03*
D22*
X101300000Y-60100000D03*
D23*
X94460000Y-56940000D03*
D24*
X97000000Y-56940000D03*
X94460000Y-59480000D03*
X97000000Y-59480000D03*
X94460000Y-62020000D03*
X97000000Y-62020000D03*
D21*
X119300000Y-56100000D03*
D22*
X119300000Y-54100000D03*
D25*
X138169583Y-66587593D03*
D26*
X136899583Y-69127593D03*
D25*
X139439583Y-69127593D03*
X140709583Y-66587593D03*
X141979583Y-69127593D03*
X143249583Y-66587593D03*
D23*
X151860000Y-69650000D03*
D24*
X154400000Y-69650000D03*
X151860000Y-72190000D03*
X154400000Y-72190000D03*
X151860000Y-74730000D03*
X154400000Y-74730000D03*
X151860000Y-77270000D03*
X154400000Y-77270000D03*
X151860000Y-79810000D03*
X154400000Y-79810000D03*
X151860000Y-82350000D03*
X154400000Y-82350000D03*
X151860000Y-84890000D03*
X154400000Y-84890000D03*
X151860000Y-87430000D03*
X154400000Y-87430000D03*
X151860000Y-89970000D03*
X154400000Y-89970000D03*
X151860000Y-92510000D03*
X154400000Y-92510000D03*
D23*
X119860000Y-69650000D03*
D24*
X122400000Y-69650000D03*
X119860000Y-72190000D03*
X122400000Y-72190000D03*
X119860000Y-74730000D03*
X122400000Y-74730000D03*
X119860000Y-77270000D03*
X122400000Y-77270000D03*
X119860000Y-79810000D03*
X122400000Y-79810000D03*
X119860000Y-82350000D03*
X122400000Y-82350000D03*
X119860000Y-84890000D03*
X122400000Y-84890000D03*
X119860000Y-87430000D03*
X122400000Y-87430000D03*
X119860000Y-89970000D03*
X122400000Y-89970000D03*
X119860000Y-92510000D03*
X122400000Y-92510000D03*
D23*
X126460000Y-69650000D03*
D24*
X129000000Y-69650000D03*
X126460000Y-72190000D03*
X129000000Y-72190000D03*
X126460000Y-74730000D03*
X129000000Y-74730000D03*
X126460000Y-77270000D03*
X129000000Y-77270000D03*
X126460000Y-79810000D03*
X129000000Y-79810000D03*
X126460000Y-82350000D03*
X129000000Y-82350000D03*
X126460000Y-84890000D03*
X129000000Y-84890000D03*
X126460000Y-87430000D03*
X129000000Y-87430000D03*
X126460000Y-89970000D03*
X129000000Y-89970000D03*
X126460000Y-92510000D03*
X129000000Y-92510000D03*
D13*
X180600000Y-101300000D03*
X180600000Y-99300000D03*
D14*
X178700000Y-104850000D03*
X178700000Y-106750000D03*
D13*
X178700000Y-101300000D03*
X178700000Y-99300000D03*
X184600000Y-106800000D03*
X184600000Y-104800000D03*
D11*
X173700000Y-105650000D03*
D12*
X173700000Y-99350000D03*
X176000000Y-99350000D03*
X171400000Y-99350000D03*
D15*
X180600000Y-106750000D03*
X180600000Y-105800000D03*
X180600000Y-104850000D03*
X182800000Y-104850000D03*
X182800000Y-106750000D03*
D17*
X166009843Y-131000000D03*
X164009843Y-131000000D03*
X166000000Y-127900000D03*
X164000000Y-127900000D03*
D16*
X164050000Y-132500000D03*
X165950000Y-132500000D03*
D17*
X166000000Y-129500000D03*
X164000000Y-129500000D03*
D18*
X170000000Y-128000000D03*
X170000000Y-136500000D03*
D17*
X166000000Y-126400000D03*
X164000000Y-126400000D03*
D19*
X174950000Y-138050000D03*
D20*
X173660000Y-127000000D03*
X176200000Y-127000000D03*
D21*
X183300000Y-102100000D03*
D22*
X183300000Y-100100000D03*
D23*
X158460000Y-102940000D03*
D24*
X161000000Y-102940000D03*
X158460000Y-105480000D03*
X161000000Y-105480000D03*
X158460000Y-108020000D03*
X161000000Y-108020000D03*
D21*
X164500000Y-110700000D03*
D22*
X162500000Y-110700000D03*
D21*
X167300000Y-106100000D03*
D22*
X165300000Y-106100000D03*
D25*
X170169583Y-112587593D03*
D26*
X168899583Y-115127593D03*
D25*
X171439583Y-115127593D03*
X172709583Y-112587593D03*
X173979583Y-115127593D03*
X175249583Y-112587593D03*
D23*
X183860000Y-115650000D03*
D24*
X186400000Y-115650000D03*
X183860000Y-118190000D03*
X186400000Y-118190000D03*
X183860000Y-120730000D03*
X186400000Y-120730000D03*
X183860000Y-123270000D03*
X186400000Y-123270000D03*
X183860000Y-125810000D03*
X186400000Y-125810000D03*
X183860000Y-128350000D03*
X186400000Y-128350000D03*
X183860000Y-130890000D03*
X186400000Y-130890000D03*
X183860000Y-133430000D03*
X186400000Y-133430000D03*
X183860000Y-135970000D03*
X186400000Y-135970000D03*
X183860000Y-138510000D03*
X186400000Y-138510000D03*
D23*
X158460000Y-115650000D03*
D24*
X161000000Y-115650000D03*
X158460000Y-118190000D03*
X161000000Y-118190000D03*
X158460000Y-120730000D03*
X161000000Y-120730000D03*
X158460000Y-123270000D03*
X161000000Y-123270000D03*
X158460000Y-125810000D03*
X161000000Y-125810000D03*
X158460000Y-128350000D03*
X161000000Y-128350000D03*
X158460000Y-130890000D03*
X161000000Y-130890000D03*
X158460000Y-133430000D03*
X161000000Y-133430000D03*
X158460000Y-135970000D03*
X161000000Y-135970000D03*
X158460000Y-138510000D03*
X161000000Y-138510000D03*
D13*
X148600000Y-101300000D03*
X148600000Y-99300000D03*
D14*
X146700000Y-104850000D03*
X146700000Y-106750000D03*
D13*
X146700000Y-101300000D03*
X146700000Y-99300000D03*
X152600000Y-106800000D03*
X152600000Y-104800000D03*
D11*
X141700000Y-105650000D03*
D12*
X141700000Y-99350000D03*
X144000000Y-99350000D03*
X139400000Y-99350000D03*
D15*
X148600000Y-106750000D03*
X148600000Y-105800000D03*
X148600000Y-104850000D03*
X150800000Y-104850000D03*
X150800000Y-106750000D03*
D17*
X134009843Y-131000000D03*
X132009843Y-131000000D03*
X134000000Y-127900000D03*
X132000000Y-127900000D03*
D16*
X132050000Y-132500000D03*
X133950000Y-132500000D03*
D17*
X134000000Y-129500000D03*
X132000000Y-129500000D03*
D18*
X138000000Y-128000000D03*
X138000000Y-136500000D03*
D17*
X134000000Y-126400000D03*
X132000000Y-126400000D03*
D19*
X142950000Y-138050000D03*
D20*
X141660000Y-127000000D03*
X144200000Y-127000000D03*
D21*
X151300000Y-102100000D03*
D22*
X151300000Y-100100000D03*
D23*
X126460000Y-102940000D03*
D24*
X129000000Y-102940000D03*
X126460000Y-105480000D03*
X129000000Y-105480000D03*
X126460000Y-108020000D03*
X129000000Y-108020000D03*
D21*
X132500000Y-110700000D03*
D22*
X130500000Y-110700000D03*
D21*
X135300000Y-106100000D03*
D22*
X133300000Y-106100000D03*
D25*
X138169583Y-112587593D03*
D26*
X136899583Y-115127593D03*
D25*
X139439583Y-115127593D03*
X140709583Y-112587593D03*
X141979583Y-115127593D03*
X143249583Y-112587593D03*
D23*
X151860000Y-115650000D03*
D24*
X154400000Y-115650000D03*
X151860000Y-118190000D03*
X154400000Y-118190000D03*
X151860000Y-120730000D03*
X154400000Y-120730000D03*
X151860000Y-123270000D03*
X154400000Y-123270000D03*
X151860000Y-125810000D03*
X154400000Y-125810000D03*
X151860000Y-128350000D03*
X154400000Y-128350000D03*
X151860000Y-130890000D03*
X154400000Y-130890000D03*
X151860000Y-133430000D03*
X154400000Y-133430000D03*
X151860000Y-135970000D03*
X154400000Y-135970000D03*
X151860000Y-138510000D03*
X154400000Y-138510000D03*
D23*
X126460000Y-115650000D03*
D24*
X129000000Y-115650000D03*
X126460000Y-118190000D03*
X129000000Y-118190000D03*
X126460000Y-120730000D03*
X129000000Y-120730000D03*
X126460000Y-123270000D03*
X129000000Y-123270000D03*
X126460000Y-125810000D03*
X129000000Y-125810000D03*
X126460000Y-128350000D03*
X129000000Y-128350000D03*
X126460000Y-130890000D03*
X129000000Y-130890000D03*
X126460000Y-133430000D03*
X129000000Y-133430000D03*
X126460000Y-135970000D03*
X129000000Y-135970000D03*
X126460000Y-138510000D03*
X129000000Y-138510000D03*
D17*
X102000000Y-129500000D03*
X100000000Y-129500000D03*
X102009843Y-131000000D03*
X100009843Y-131000000D03*
D13*
X114700000Y-101300000D03*
X114700000Y-99300000D03*
X116600000Y-101300000D03*
X116600000Y-99300000D03*
D17*
X102000000Y-127900000D03*
X100000000Y-127900000D03*
X102000000Y-126400000D03*
X100000000Y-126400000D03*
D13*
X120600000Y-106800000D03*
X120600000Y-104800000D03*
D25*
X106169583Y-112587593D03*
D26*
X104899583Y-115127593D03*
D25*
X107439583Y-115127593D03*
X108709583Y-112587593D03*
X109979583Y-115127593D03*
X111249583Y-112587593D03*
D14*
X114700000Y-104850000D03*
X114700000Y-106750000D03*
D16*
X100050000Y-132500000D03*
X101950000Y-132500000D03*
D15*
X116600000Y-106750000D03*
X116600000Y-105800000D03*
X116600000Y-104850000D03*
X118800000Y-104850000D03*
X118800000Y-106750000D03*
D18*
X106000000Y-128000000D03*
X106000000Y-136500000D03*
D19*
X110950000Y-138050000D03*
D20*
X109660000Y-127000000D03*
X112200000Y-127000000D03*
D11*
X109700000Y-105650000D03*
D12*
X109700000Y-99350000D03*
X112000000Y-99350000D03*
X107400000Y-99350000D03*
D21*
X103300000Y-106100000D03*
D22*
X101300000Y-106100000D03*
D21*
X100500000Y-110700000D03*
D22*
X98500000Y-110700000D03*
D21*
X119300000Y-102100000D03*
D22*
X119300000Y-100100000D03*
D23*
X94460000Y-115650000D03*
D24*
X97000000Y-115650000D03*
X94460000Y-118190000D03*
X97000000Y-118190000D03*
X94460000Y-120730000D03*
X97000000Y-120730000D03*
X94460000Y-123270000D03*
X97000000Y-123270000D03*
X94460000Y-125810000D03*
X97000000Y-125810000D03*
X94460000Y-128350000D03*
X97000000Y-128350000D03*
X94460000Y-130890000D03*
X97000000Y-130890000D03*
X94460000Y-133430000D03*
X97000000Y-133430000D03*
X94460000Y-135970000D03*
X97000000Y-135970000D03*
X94460000Y-138510000D03*
X97000000Y-138510000D03*
D23*
X119860000Y-115650000D03*
D24*
X122400000Y-115650000D03*
X119860000Y-118190000D03*
X122400000Y-118190000D03*
X119860000Y-120730000D03*
X122400000Y-120730000D03*
X119860000Y-123270000D03*
X122400000Y-123270000D03*
X119860000Y-125810000D03*
X122400000Y-125810000D03*
X119860000Y-128350000D03*
X122400000Y-128350000D03*
X119860000Y-130890000D03*
X122400000Y-130890000D03*
X119860000Y-133430000D03*
X122400000Y-133430000D03*
X119860000Y-135970000D03*
X122400000Y-135970000D03*
X119860000Y-138510000D03*
X122400000Y-138510000D03*
D23*
X94460000Y-102940000D03*
D24*
X97000000Y-102940000D03*
X94460000Y-105480000D03*
X97000000Y-105480000D03*
X94460000Y-108020000D03*
X97000000Y-108020000D03*
M02*
