G04 #@! TF.FileFunction,Legend,Bot*
%FSLAX46Y46*%
G04 Gerber Fmt 4.6, Leading zero omitted, Abs format (unit mm)*
G04 Created by KiCad (PCBNEW 4.0.7) date 07/23/18 15:50:34*
%MOMM*%
%LPD*%
G01*
G04 APERTURE LIST*
%ADD10C,0.100000*%
%ADD11C,0.120000*%
%ADD12C,0.150000*%
G04 APERTURE END LIST*
D10*
D11*
X145110000Y-58410000D02*
X143850000Y-58410000D01*
X138290000Y-58410000D02*
X139550000Y-58410000D01*
X145110000Y-54650000D02*
X145110000Y-58410000D01*
X138290000Y-52400000D02*
X138290000Y-58410000D01*
X147550000Y-53800000D02*
X147550000Y-54800000D01*
X145850000Y-54800000D02*
X145850000Y-53800000D01*
X149450000Y-53800000D02*
X149450000Y-54800000D01*
X147750000Y-54800000D02*
X147750000Y-53800000D01*
X147580000Y-60400000D02*
X147580000Y-59200000D01*
X145820000Y-59200000D02*
X145820000Y-60400000D01*
X153450000Y-59300000D02*
X153450000Y-60300000D01*
X151750000Y-60300000D02*
X151750000Y-59300000D01*
X148800000Y-58190000D02*
X150600000Y-58190000D01*
X150600000Y-61410000D02*
X148150000Y-61410000D01*
X165600000Y-85620000D02*
X164400000Y-85620000D01*
X164400000Y-87380000D02*
X165600000Y-87380000D01*
X164500000Y-82650000D02*
X165500000Y-82650000D01*
X165500000Y-84350000D02*
X164500000Y-84350000D01*
X164500000Y-81050000D02*
X165500000Y-81050000D01*
X165500000Y-82750000D02*
X164500000Y-82750000D01*
X167450000Y-92150000D02*
X167450000Y-79550000D01*
X167450000Y-79550000D02*
X172550000Y-79550000D01*
X172550000Y-79550000D02*
X172550000Y-92150000D01*
D12*
X175500000Y-79500000D02*
X174400000Y-79500000D01*
X172900000Y-83800000D02*
X172900000Y-82500000D01*
X173000000Y-83800000D02*
X172900000Y-83800000D01*
X173400000Y-83800000D02*
X173000000Y-83800000D01*
X173400000Y-92650000D02*
X173400000Y-83800000D01*
X176500000Y-92650000D02*
X173400000Y-92650000D01*
X176500000Y-83800000D02*
X176500000Y-92650000D01*
X176900000Y-83800000D02*
X176500000Y-83800000D01*
X176900000Y-82500000D02*
X176900000Y-83800000D01*
D11*
X164509843Y-84150000D02*
X165509843Y-84150000D01*
X165509843Y-85850000D02*
X164509843Y-85850000D01*
X164500000Y-79550000D02*
X165500000Y-79550000D01*
X165500000Y-81250000D02*
X164500000Y-81250000D01*
X100500000Y-82650000D02*
X101500000Y-82650000D01*
X101500000Y-84350000D02*
X100500000Y-84350000D01*
X100500000Y-81050000D02*
X101500000Y-81050000D01*
X101500000Y-82750000D02*
X100500000Y-82750000D01*
X100509843Y-84150000D02*
X101509843Y-84150000D01*
X101509843Y-85850000D02*
X100509843Y-85850000D01*
X103450000Y-92150000D02*
X103450000Y-79550000D01*
X103450000Y-79550000D02*
X108550000Y-79550000D01*
X108550000Y-79550000D02*
X108550000Y-92150000D01*
D12*
X111500000Y-79500000D02*
X110400000Y-79500000D01*
X108900000Y-83800000D02*
X108900000Y-82500000D01*
X109000000Y-83800000D02*
X108900000Y-83800000D01*
X109400000Y-83800000D02*
X109000000Y-83800000D01*
X109400000Y-92650000D02*
X109400000Y-83800000D01*
X112500000Y-92650000D02*
X109400000Y-92650000D01*
X112500000Y-83800000D02*
X112500000Y-92650000D01*
X112900000Y-83800000D02*
X112500000Y-83800000D01*
X112900000Y-82500000D02*
X112900000Y-83800000D01*
D11*
X101600000Y-85620000D02*
X100400000Y-85620000D01*
X100400000Y-87380000D02*
X101600000Y-87380000D01*
X100500000Y-79550000D02*
X101500000Y-79550000D01*
X101500000Y-81250000D02*
X100500000Y-81250000D01*
D12*
X143500000Y-79500000D02*
X142400000Y-79500000D01*
X140900000Y-83800000D02*
X140900000Y-82500000D01*
X141000000Y-83800000D02*
X140900000Y-83800000D01*
X141400000Y-83800000D02*
X141000000Y-83800000D01*
X141400000Y-92650000D02*
X141400000Y-83800000D01*
X144500000Y-92650000D02*
X141400000Y-92650000D01*
X144500000Y-83800000D02*
X144500000Y-92650000D01*
X144900000Y-83800000D02*
X144500000Y-83800000D01*
X144900000Y-82500000D02*
X144900000Y-83800000D01*
D11*
X135450000Y-92150000D02*
X135450000Y-79550000D01*
X135450000Y-79550000D02*
X140550000Y-79550000D01*
X140550000Y-79550000D02*
X140550000Y-92150000D01*
X132500000Y-79550000D02*
X133500000Y-79550000D01*
X133500000Y-81250000D02*
X132500000Y-81250000D01*
X132500000Y-81050000D02*
X133500000Y-81050000D01*
X133500000Y-82750000D02*
X132500000Y-82750000D01*
X133600000Y-85620000D02*
X132400000Y-85620000D01*
X132400000Y-87380000D02*
X133600000Y-87380000D01*
X132509843Y-84150000D02*
X133509843Y-84150000D01*
X133509843Y-85850000D02*
X132509843Y-85850000D01*
X132500000Y-82650000D02*
X133500000Y-82650000D01*
X133500000Y-84350000D02*
X132500000Y-84350000D01*
X177110000Y-58410000D02*
X175850000Y-58410000D01*
X170290000Y-58410000D02*
X171550000Y-58410000D01*
X177110000Y-54650000D02*
X177110000Y-58410000D01*
X170290000Y-52400000D02*
X170290000Y-58410000D01*
X179550000Y-53800000D02*
X179550000Y-54800000D01*
X177850000Y-54800000D02*
X177850000Y-53800000D01*
X179580000Y-60400000D02*
X179580000Y-59200000D01*
X177820000Y-59200000D02*
X177820000Y-60400000D01*
X185450000Y-59300000D02*
X185450000Y-60300000D01*
X183750000Y-60300000D02*
X183750000Y-59300000D01*
X181450000Y-53800000D02*
X181450000Y-54800000D01*
X179750000Y-54800000D02*
X179750000Y-53800000D01*
X180800000Y-58190000D02*
X182600000Y-58190000D01*
X182600000Y-61410000D02*
X180150000Y-61410000D01*
X116800000Y-58190000D02*
X118600000Y-58190000D01*
X118600000Y-61410000D02*
X116150000Y-61410000D01*
X115550000Y-53800000D02*
X115550000Y-54800000D01*
X113850000Y-54800000D02*
X113850000Y-53800000D01*
X117450000Y-53800000D02*
X117450000Y-54800000D01*
X115750000Y-54800000D02*
X115750000Y-53800000D01*
X113110000Y-58410000D02*
X111850000Y-58410000D01*
X106290000Y-58410000D02*
X107550000Y-58410000D01*
X113110000Y-54650000D02*
X113110000Y-58410000D01*
X106290000Y-52400000D02*
X106290000Y-58410000D01*
X121450000Y-59300000D02*
X121450000Y-60300000D01*
X119750000Y-60300000D02*
X119750000Y-59300000D01*
X115580000Y-60400000D02*
X115580000Y-59200000D01*
X113820000Y-59200000D02*
X113820000Y-60400000D01*
X181450000Y-99800000D02*
X181450000Y-100800000D01*
X179750000Y-100800000D02*
X179750000Y-99800000D01*
X179580000Y-106400000D02*
X179580000Y-105200000D01*
X177820000Y-105200000D02*
X177820000Y-106400000D01*
X179550000Y-99800000D02*
X179550000Y-100800000D01*
X177850000Y-100800000D02*
X177850000Y-99800000D01*
X185450000Y-105300000D02*
X185450000Y-106300000D01*
X183750000Y-106300000D02*
X183750000Y-105300000D01*
X177110000Y-104410000D02*
X175850000Y-104410000D01*
X170290000Y-104410000D02*
X171550000Y-104410000D01*
X177110000Y-100650000D02*
X177110000Y-104410000D01*
X170290000Y-98400000D02*
X170290000Y-104410000D01*
X180800000Y-104190000D02*
X182600000Y-104190000D01*
X182600000Y-107410000D02*
X180150000Y-107410000D01*
X164509843Y-130150000D02*
X165509843Y-130150000D01*
X165509843Y-131850000D02*
X164509843Y-131850000D01*
X164500000Y-127050000D02*
X165500000Y-127050000D01*
X165500000Y-128750000D02*
X164500000Y-128750000D01*
X165600000Y-131620000D02*
X164400000Y-131620000D01*
X164400000Y-133380000D02*
X165600000Y-133380000D01*
X164500000Y-128650000D02*
X165500000Y-128650000D01*
X165500000Y-130350000D02*
X164500000Y-130350000D01*
X167450000Y-138150000D02*
X167450000Y-125550000D01*
X167450000Y-125550000D02*
X172550000Y-125550000D01*
X172550000Y-125550000D02*
X172550000Y-138150000D01*
X164500000Y-125550000D02*
X165500000Y-125550000D01*
X165500000Y-127250000D02*
X164500000Y-127250000D01*
D12*
X175500000Y-125500000D02*
X174400000Y-125500000D01*
X172900000Y-129800000D02*
X172900000Y-128500000D01*
X173000000Y-129800000D02*
X172900000Y-129800000D01*
X173400000Y-129800000D02*
X173000000Y-129800000D01*
X173400000Y-138650000D02*
X173400000Y-129800000D01*
X176500000Y-138650000D02*
X173400000Y-138650000D01*
X176500000Y-129800000D02*
X176500000Y-138650000D01*
X176900000Y-129800000D02*
X176500000Y-129800000D01*
X176900000Y-128500000D02*
X176900000Y-129800000D01*
D11*
X149450000Y-99800000D02*
X149450000Y-100800000D01*
X147750000Y-100800000D02*
X147750000Y-99800000D01*
X147580000Y-106400000D02*
X147580000Y-105200000D01*
X145820000Y-105200000D02*
X145820000Y-106400000D01*
X147550000Y-99800000D02*
X147550000Y-100800000D01*
X145850000Y-100800000D02*
X145850000Y-99800000D01*
X153450000Y-105300000D02*
X153450000Y-106300000D01*
X151750000Y-106300000D02*
X151750000Y-105300000D01*
X145110000Y-104410000D02*
X143850000Y-104410000D01*
X138290000Y-104410000D02*
X139550000Y-104410000D01*
X145110000Y-100650000D02*
X145110000Y-104410000D01*
X138290000Y-98400000D02*
X138290000Y-104410000D01*
X148800000Y-104190000D02*
X150600000Y-104190000D01*
X150600000Y-107410000D02*
X148150000Y-107410000D01*
X132509843Y-130150000D02*
X133509843Y-130150000D01*
X133509843Y-131850000D02*
X132509843Y-131850000D01*
X132500000Y-127050000D02*
X133500000Y-127050000D01*
X133500000Y-128750000D02*
X132500000Y-128750000D01*
X133600000Y-131620000D02*
X132400000Y-131620000D01*
X132400000Y-133380000D02*
X133600000Y-133380000D01*
X132500000Y-128650000D02*
X133500000Y-128650000D01*
X133500000Y-130350000D02*
X132500000Y-130350000D01*
X135450000Y-138150000D02*
X135450000Y-125550000D01*
X135450000Y-125550000D02*
X140550000Y-125550000D01*
X140550000Y-125550000D02*
X140550000Y-138150000D01*
X132500000Y-125550000D02*
X133500000Y-125550000D01*
X133500000Y-127250000D02*
X132500000Y-127250000D01*
D12*
X143500000Y-125500000D02*
X142400000Y-125500000D01*
X140900000Y-129800000D02*
X140900000Y-128500000D01*
X141000000Y-129800000D02*
X140900000Y-129800000D01*
X141400000Y-129800000D02*
X141000000Y-129800000D01*
X141400000Y-138650000D02*
X141400000Y-129800000D01*
X144500000Y-138650000D02*
X141400000Y-138650000D01*
X144500000Y-129800000D02*
X144500000Y-138650000D01*
X144900000Y-129800000D02*
X144500000Y-129800000D01*
X144900000Y-128500000D02*
X144900000Y-129800000D01*
D11*
X100500000Y-128650000D02*
X101500000Y-128650000D01*
X101500000Y-130350000D02*
X100500000Y-130350000D01*
X100509843Y-130150000D02*
X101509843Y-130150000D01*
X101509843Y-131850000D02*
X100509843Y-131850000D01*
X115550000Y-99800000D02*
X115550000Y-100800000D01*
X113850000Y-100800000D02*
X113850000Y-99800000D01*
X117450000Y-99800000D02*
X117450000Y-100800000D01*
X115750000Y-100800000D02*
X115750000Y-99800000D01*
X100500000Y-127050000D02*
X101500000Y-127050000D01*
X101500000Y-128750000D02*
X100500000Y-128750000D01*
X100500000Y-125550000D02*
X101500000Y-125550000D01*
X101500000Y-127250000D02*
X100500000Y-127250000D01*
X121450000Y-105300000D02*
X121450000Y-106300000D01*
X119750000Y-106300000D02*
X119750000Y-105300000D01*
X115580000Y-106400000D02*
X115580000Y-105200000D01*
X113820000Y-105200000D02*
X113820000Y-106400000D01*
X101600000Y-131620000D02*
X100400000Y-131620000D01*
X100400000Y-133380000D02*
X101600000Y-133380000D01*
X116800000Y-104190000D02*
X118600000Y-104190000D01*
X118600000Y-107410000D02*
X116150000Y-107410000D01*
X103450000Y-138150000D02*
X103450000Y-125550000D01*
X103450000Y-125550000D02*
X108550000Y-125550000D01*
X108550000Y-125550000D02*
X108550000Y-138150000D01*
D12*
X111500000Y-125500000D02*
X110400000Y-125500000D01*
X108900000Y-129800000D02*
X108900000Y-128500000D01*
X109000000Y-129800000D02*
X108900000Y-129800000D01*
X109400000Y-129800000D02*
X109000000Y-129800000D01*
X109400000Y-138650000D02*
X109400000Y-129800000D01*
X112500000Y-138650000D02*
X109400000Y-138650000D01*
X112500000Y-129800000D02*
X112500000Y-138650000D01*
X112900000Y-129800000D02*
X112500000Y-129800000D01*
X112900000Y-128500000D02*
X112900000Y-129800000D01*
D11*
X113110000Y-104410000D02*
X111850000Y-104410000D01*
X106290000Y-104410000D02*
X107550000Y-104410000D01*
X113110000Y-100650000D02*
X113110000Y-104410000D01*
X106290000Y-98400000D02*
X106290000Y-104410000D01*
D12*
X137216667Y-55166667D02*
X137783333Y-55166667D01*
X137850000Y-55200000D01*
X137883333Y-55233333D01*
X137916667Y-55300000D01*
X137916667Y-55433333D01*
X137883333Y-55500000D01*
X137850000Y-55533333D01*
X137783333Y-55566667D01*
X137216667Y-55566667D01*
X137916667Y-56266666D02*
X137916667Y-55866666D01*
X137916667Y-56066666D02*
X137216667Y-56066666D01*
X137316667Y-56000000D01*
X137383333Y-55933333D01*
X137416667Y-55866666D01*
X146950000Y-56583334D02*
X146983333Y-56550000D01*
X147016667Y-56450000D01*
X147016667Y-56383334D01*
X146983333Y-56283334D01*
X146916667Y-56216667D01*
X146850000Y-56183334D01*
X146716667Y-56150000D01*
X146616667Y-56150000D01*
X146483333Y-56183334D01*
X146416667Y-56216667D01*
X146350000Y-56283334D01*
X146316667Y-56383334D01*
X146316667Y-56450000D01*
X146350000Y-56550000D01*
X146383333Y-56583334D01*
X147016667Y-56916667D02*
X147016667Y-57050000D01*
X146983333Y-57116667D01*
X146950000Y-57150000D01*
X146850000Y-57216667D01*
X146716667Y-57250000D01*
X146450000Y-57250000D01*
X146383333Y-57216667D01*
X146350000Y-57183334D01*
X146316667Y-57116667D01*
X146316667Y-56983334D01*
X146350000Y-56916667D01*
X146383333Y-56883334D01*
X146450000Y-56850000D01*
X146616667Y-56850000D01*
X146683333Y-56883334D01*
X146716667Y-56916667D01*
X146750000Y-56983334D01*
X146750000Y-57116667D01*
X146716667Y-57183334D01*
X146683333Y-57216667D01*
X146616667Y-57250000D01*
X148950000Y-56450000D02*
X148983333Y-56416666D01*
X149016667Y-56316666D01*
X149016667Y-56250000D01*
X148983333Y-56150000D01*
X148916667Y-56083333D01*
X148850000Y-56050000D01*
X148716667Y-56016666D01*
X148616667Y-56016666D01*
X148483333Y-56050000D01*
X148416667Y-56083333D01*
X148350000Y-56150000D01*
X148316667Y-56250000D01*
X148316667Y-56316666D01*
X148350000Y-56416666D01*
X148383333Y-56450000D01*
X149016667Y-57116666D02*
X149016667Y-56716666D01*
X149016667Y-56916666D02*
X148316667Y-56916666D01*
X148416667Y-56850000D01*
X148483333Y-56783333D01*
X148516667Y-56716666D01*
X148316667Y-57550000D02*
X148316667Y-57616667D01*
X148350000Y-57683333D01*
X148383333Y-57716667D01*
X148450000Y-57750000D01*
X148583333Y-57783333D01*
X148750000Y-57783333D01*
X148883333Y-57750000D01*
X148950000Y-57716667D01*
X148983333Y-57683333D01*
X149016667Y-57616667D01*
X149016667Y-57550000D01*
X148983333Y-57483333D01*
X148950000Y-57450000D01*
X148883333Y-57416667D01*
X148750000Y-57383333D01*
X148583333Y-57383333D01*
X148450000Y-57416667D01*
X148383333Y-57450000D01*
X148350000Y-57483333D01*
X148316667Y-57550000D01*
X145516667Y-59683334D02*
X145183333Y-59450000D01*
X145516667Y-59283334D02*
X144816667Y-59283334D01*
X144816667Y-59550000D01*
X144850000Y-59616667D01*
X144883333Y-59650000D01*
X144950000Y-59683334D01*
X145050000Y-59683334D01*
X145116667Y-59650000D01*
X145150000Y-59616667D01*
X145183333Y-59550000D01*
X145183333Y-59283334D01*
X145116667Y-60083334D02*
X145083333Y-60016667D01*
X145050000Y-59983334D01*
X144983333Y-59950000D01*
X144950000Y-59950000D01*
X144883333Y-59983334D01*
X144850000Y-60016667D01*
X144816667Y-60083334D01*
X144816667Y-60216667D01*
X144850000Y-60283334D01*
X144883333Y-60316667D01*
X144950000Y-60350000D01*
X144983333Y-60350000D01*
X145050000Y-60316667D01*
X145083333Y-60283334D01*
X145116667Y-60216667D01*
X145116667Y-60083334D01*
X145150000Y-60016667D01*
X145183333Y-59983334D01*
X145250000Y-59950000D01*
X145383333Y-59950000D01*
X145450000Y-59983334D01*
X145483333Y-60016667D01*
X145516667Y-60083334D01*
X145516667Y-60216667D01*
X145483333Y-60283334D01*
X145450000Y-60316667D01*
X145383333Y-60350000D01*
X145250000Y-60350000D01*
X145183333Y-60316667D01*
X145150000Y-60283334D01*
X145116667Y-60216667D01*
X154350000Y-59350000D02*
X154383333Y-59316666D01*
X154416667Y-59216666D01*
X154416667Y-59150000D01*
X154383333Y-59050000D01*
X154316667Y-58983333D01*
X154250000Y-58950000D01*
X154116667Y-58916666D01*
X154016667Y-58916666D01*
X153883333Y-58950000D01*
X153816667Y-58983333D01*
X153750000Y-59050000D01*
X153716667Y-59150000D01*
X153716667Y-59216666D01*
X153750000Y-59316666D01*
X153783333Y-59350000D01*
X154416667Y-60016666D02*
X154416667Y-59616666D01*
X154416667Y-59816666D02*
X153716667Y-59816666D01*
X153816667Y-59750000D01*
X153883333Y-59683333D01*
X153916667Y-59616666D01*
X153716667Y-60250000D02*
X153716667Y-60683333D01*
X153983333Y-60450000D01*
X153983333Y-60550000D01*
X154016667Y-60616667D01*
X154050000Y-60650000D01*
X154116667Y-60683333D01*
X154283333Y-60683333D01*
X154350000Y-60650000D01*
X154383333Y-60616667D01*
X154416667Y-60550000D01*
X154416667Y-60350000D01*
X154383333Y-60283333D01*
X154350000Y-60250000D01*
X150133333Y-61716667D02*
X150133333Y-62283333D01*
X150100000Y-62350000D01*
X150066667Y-62383333D01*
X150000000Y-62416667D01*
X149866667Y-62416667D01*
X149800000Y-62383333D01*
X149766667Y-62350000D01*
X149733333Y-62283333D01*
X149733333Y-61716667D01*
X149433334Y-61783333D02*
X149400000Y-61750000D01*
X149333334Y-61716667D01*
X149166667Y-61716667D01*
X149100000Y-61750000D01*
X149066667Y-61783333D01*
X149033334Y-61850000D01*
X149033334Y-61916667D01*
X149066667Y-62016667D01*
X149466667Y-62416667D01*
X149033334Y-62416667D01*
X165216666Y-88216667D02*
X165450000Y-87883333D01*
X165616666Y-88216667D02*
X165616666Y-87516667D01*
X165350000Y-87516667D01*
X165283333Y-87550000D01*
X165250000Y-87583333D01*
X165216666Y-87650000D01*
X165216666Y-87750000D01*
X165250000Y-87816667D01*
X165283333Y-87850000D01*
X165350000Y-87883333D01*
X165616666Y-87883333D01*
X164883333Y-88216667D02*
X164750000Y-88216667D01*
X164683333Y-88183333D01*
X164650000Y-88150000D01*
X164583333Y-88050000D01*
X164550000Y-87916667D01*
X164550000Y-87650000D01*
X164583333Y-87583333D01*
X164616666Y-87550000D01*
X164683333Y-87516667D01*
X164816666Y-87516667D01*
X164883333Y-87550000D01*
X164916666Y-87583333D01*
X164950000Y-87650000D01*
X164950000Y-87816667D01*
X164916666Y-87883333D01*
X164883333Y-87916667D01*
X164816666Y-87950000D01*
X164683333Y-87950000D01*
X164616666Y-87916667D01*
X164583333Y-87883333D01*
X164550000Y-87816667D01*
X163250000Y-83383334D02*
X163283333Y-83350000D01*
X163316667Y-83250000D01*
X163316667Y-83183334D01*
X163283333Y-83083334D01*
X163216667Y-83016667D01*
X163150000Y-82983334D01*
X163016667Y-82950000D01*
X162916667Y-82950000D01*
X162783333Y-82983334D01*
X162716667Y-83016667D01*
X162650000Y-83083334D01*
X162616667Y-83183334D01*
X162616667Y-83250000D01*
X162650000Y-83350000D01*
X162683333Y-83383334D01*
X162616667Y-84016667D02*
X162616667Y-83683334D01*
X162950000Y-83650000D01*
X162916667Y-83683334D01*
X162883333Y-83750000D01*
X162883333Y-83916667D01*
X162916667Y-83983334D01*
X162950000Y-84016667D01*
X163016667Y-84050000D01*
X163183333Y-84050000D01*
X163250000Y-84016667D01*
X163283333Y-83983334D01*
X163316667Y-83916667D01*
X163316667Y-83750000D01*
X163283333Y-83683334D01*
X163250000Y-83650000D01*
X163250000Y-81350000D02*
X163283333Y-81316666D01*
X163316667Y-81216666D01*
X163316667Y-81150000D01*
X163283333Y-81050000D01*
X163216667Y-80983333D01*
X163150000Y-80950000D01*
X163016667Y-80916666D01*
X162916667Y-80916666D01*
X162783333Y-80950000D01*
X162716667Y-80983333D01*
X162650000Y-81050000D01*
X162616667Y-81150000D01*
X162616667Y-81216666D01*
X162650000Y-81316666D01*
X162683333Y-81350000D01*
X163316667Y-82016666D02*
X163316667Y-81616666D01*
X163316667Y-81816666D02*
X162616667Y-81816666D01*
X162716667Y-81750000D01*
X162783333Y-81683333D01*
X162816667Y-81616666D01*
X163316667Y-82683333D02*
X163316667Y-82283333D01*
X163316667Y-82483333D02*
X162616667Y-82483333D01*
X162716667Y-82416667D01*
X162783333Y-82350000D01*
X162816667Y-82283333D01*
X170333333Y-78983333D02*
X170333333Y-79316667D01*
X170566666Y-78616667D02*
X170333333Y-78983333D01*
X170100000Y-78616667D01*
X169500000Y-79316667D02*
X169900000Y-79316667D01*
X169700000Y-79316667D02*
X169700000Y-78616667D01*
X169766666Y-78716667D01*
X169833333Y-78783333D01*
X169900000Y-78816667D01*
X175333333Y-78783333D02*
X175333333Y-79116667D01*
X175566666Y-78416667D02*
X175333333Y-78783333D01*
X175100000Y-78416667D01*
X174900000Y-78483333D02*
X174866666Y-78450000D01*
X174800000Y-78416667D01*
X174633333Y-78416667D01*
X174566666Y-78450000D01*
X174533333Y-78483333D01*
X174500000Y-78550000D01*
X174500000Y-78616667D01*
X174533333Y-78716667D01*
X174933333Y-79116667D01*
X174500000Y-79116667D01*
X163250000Y-84883334D02*
X163283333Y-84850000D01*
X163316667Y-84750000D01*
X163316667Y-84683334D01*
X163283333Y-84583334D01*
X163216667Y-84516667D01*
X163150000Y-84483334D01*
X163016667Y-84450000D01*
X162916667Y-84450000D01*
X162783333Y-84483334D01*
X162716667Y-84516667D01*
X162650000Y-84583334D01*
X162616667Y-84683334D01*
X162616667Y-84750000D01*
X162650000Y-84850000D01*
X162683333Y-84883334D01*
X162616667Y-85483334D02*
X162616667Y-85350000D01*
X162650000Y-85283334D01*
X162683333Y-85250000D01*
X162783333Y-85183334D01*
X162916667Y-85150000D01*
X163183333Y-85150000D01*
X163250000Y-85183334D01*
X163283333Y-85216667D01*
X163316667Y-85283334D01*
X163316667Y-85416667D01*
X163283333Y-85483334D01*
X163250000Y-85516667D01*
X163183333Y-85550000D01*
X163016667Y-85550000D01*
X162950000Y-85516667D01*
X162916667Y-85483334D01*
X162883333Y-85416667D01*
X162883333Y-85283334D01*
X162916667Y-85216667D01*
X162950000Y-85183334D01*
X163016667Y-85150000D01*
X165450000Y-79250000D02*
X165483334Y-79283333D01*
X165583334Y-79316667D01*
X165650000Y-79316667D01*
X165750000Y-79283333D01*
X165816667Y-79216667D01*
X165850000Y-79150000D01*
X165883334Y-79016667D01*
X165883334Y-78916667D01*
X165850000Y-78783333D01*
X165816667Y-78716667D01*
X165750000Y-78650000D01*
X165650000Y-78616667D01*
X165583334Y-78616667D01*
X165483334Y-78650000D01*
X165450000Y-78683333D01*
X164783334Y-79316667D02*
X165183334Y-79316667D01*
X164983334Y-79316667D02*
X164983334Y-78616667D01*
X165050000Y-78716667D01*
X165116667Y-78783333D01*
X165183334Y-78816667D01*
X164516667Y-78683333D02*
X164483333Y-78650000D01*
X164416667Y-78616667D01*
X164250000Y-78616667D01*
X164183333Y-78650000D01*
X164150000Y-78683333D01*
X164116667Y-78750000D01*
X164116667Y-78816667D01*
X164150000Y-78916667D01*
X164550000Y-79316667D01*
X164116667Y-79316667D01*
X99250000Y-83383334D02*
X99283333Y-83350000D01*
X99316667Y-83250000D01*
X99316667Y-83183334D01*
X99283333Y-83083334D01*
X99216667Y-83016667D01*
X99150000Y-82983334D01*
X99016667Y-82950000D01*
X98916667Y-82950000D01*
X98783333Y-82983334D01*
X98716667Y-83016667D01*
X98650000Y-83083334D01*
X98616667Y-83183334D01*
X98616667Y-83250000D01*
X98650000Y-83350000D01*
X98683333Y-83383334D01*
X98616667Y-84016667D02*
X98616667Y-83683334D01*
X98950000Y-83650000D01*
X98916667Y-83683334D01*
X98883333Y-83750000D01*
X98883333Y-83916667D01*
X98916667Y-83983334D01*
X98950000Y-84016667D01*
X99016667Y-84050000D01*
X99183333Y-84050000D01*
X99250000Y-84016667D01*
X99283333Y-83983334D01*
X99316667Y-83916667D01*
X99316667Y-83750000D01*
X99283333Y-83683334D01*
X99250000Y-83650000D01*
X99250000Y-81350000D02*
X99283333Y-81316666D01*
X99316667Y-81216666D01*
X99316667Y-81150000D01*
X99283333Y-81050000D01*
X99216667Y-80983333D01*
X99150000Y-80950000D01*
X99016667Y-80916666D01*
X98916667Y-80916666D01*
X98783333Y-80950000D01*
X98716667Y-80983333D01*
X98650000Y-81050000D01*
X98616667Y-81150000D01*
X98616667Y-81216666D01*
X98650000Y-81316666D01*
X98683333Y-81350000D01*
X99316667Y-82016666D02*
X99316667Y-81616666D01*
X99316667Y-81816666D02*
X98616667Y-81816666D01*
X98716667Y-81750000D01*
X98783333Y-81683333D01*
X98816667Y-81616666D01*
X99316667Y-82683333D02*
X99316667Y-82283333D01*
X99316667Y-82483333D02*
X98616667Y-82483333D01*
X98716667Y-82416667D01*
X98783333Y-82350000D01*
X98816667Y-82283333D01*
X99250000Y-84883334D02*
X99283333Y-84850000D01*
X99316667Y-84750000D01*
X99316667Y-84683334D01*
X99283333Y-84583334D01*
X99216667Y-84516667D01*
X99150000Y-84483334D01*
X99016667Y-84450000D01*
X98916667Y-84450000D01*
X98783333Y-84483334D01*
X98716667Y-84516667D01*
X98650000Y-84583334D01*
X98616667Y-84683334D01*
X98616667Y-84750000D01*
X98650000Y-84850000D01*
X98683333Y-84883334D01*
X98616667Y-85483334D02*
X98616667Y-85350000D01*
X98650000Y-85283334D01*
X98683333Y-85250000D01*
X98783333Y-85183334D01*
X98916667Y-85150000D01*
X99183333Y-85150000D01*
X99250000Y-85183334D01*
X99283333Y-85216667D01*
X99316667Y-85283334D01*
X99316667Y-85416667D01*
X99283333Y-85483334D01*
X99250000Y-85516667D01*
X99183333Y-85550000D01*
X99016667Y-85550000D01*
X98950000Y-85516667D01*
X98916667Y-85483334D01*
X98883333Y-85416667D01*
X98883333Y-85283334D01*
X98916667Y-85216667D01*
X98950000Y-85183334D01*
X99016667Y-85150000D01*
X106333333Y-78983333D02*
X106333333Y-79316667D01*
X106566666Y-78616667D02*
X106333333Y-78983333D01*
X106100000Y-78616667D01*
X105500000Y-79316667D02*
X105900000Y-79316667D01*
X105700000Y-79316667D02*
X105700000Y-78616667D01*
X105766666Y-78716667D01*
X105833333Y-78783333D01*
X105900000Y-78816667D01*
X111333333Y-78783333D02*
X111333333Y-79116667D01*
X111566666Y-78416667D02*
X111333333Y-78783333D01*
X111100000Y-78416667D01*
X110900000Y-78483333D02*
X110866666Y-78450000D01*
X110800000Y-78416667D01*
X110633333Y-78416667D01*
X110566666Y-78450000D01*
X110533333Y-78483333D01*
X110500000Y-78550000D01*
X110500000Y-78616667D01*
X110533333Y-78716667D01*
X110933333Y-79116667D01*
X110500000Y-79116667D01*
X101216666Y-88216667D02*
X101450000Y-87883333D01*
X101616666Y-88216667D02*
X101616666Y-87516667D01*
X101350000Y-87516667D01*
X101283333Y-87550000D01*
X101250000Y-87583333D01*
X101216666Y-87650000D01*
X101216666Y-87750000D01*
X101250000Y-87816667D01*
X101283333Y-87850000D01*
X101350000Y-87883333D01*
X101616666Y-87883333D01*
X100883333Y-88216667D02*
X100750000Y-88216667D01*
X100683333Y-88183333D01*
X100650000Y-88150000D01*
X100583333Y-88050000D01*
X100550000Y-87916667D01*
X100550000Y-87650000D01*
X100583333Y-87583333D01*
X100616666Y-87550000D01*
X100683333Y-87516667D01*
X100816666Y-87516667D01*
X100883333Y-87550000D01*
X100916666Y-87583333D01*
X100950000Y-87650000D01*
X100950000Y-87816667D01*
X100916666Y-87883333D01*
X100883333Y-87916667D01*
X100816666Y-87950000D01*
X100683333Y-87950000D01*
X100616666Y-87916667D01*
X100583333Y-87883333D01*
X100550000Y-87816667D01*
X101450000Y-79250000D02*
X101483334Y-79283333D01*
X101583334Y-79316667D01*
X101650000Y-79316667D01*
X101750000Y-79283333D01*
X101816667Y-79216667D01*
X101850000Y-79150000D01*
X101883334Y-79016667D01*
X101883334Y-78916667D01*
X101850000Y-78783333D01*
X101816667Y-78716667D01*
X101750000Y-78650000D01*
X101650000Y-78616667D01*
X101583334Y-78616667D01*
X101483334Y-78650000D01*
X101450000Y-78683333D01*
X100783334Y-79316667D02*
X101183334Y-79316667D01*
X100983334Y-79316667D02*
X100983334Y-78616667D01*
X101050000Y-78716667D01*
X101116667Y-78783333D01*
X101183334Y-78816667D01*
X100516667Y-78683333D02*
X100483333Y-78650000D01*
X100416667Y-78616667D01*
X100250000Y-78616667D01*
X100183333Y-78650000D01*
X100150000Y-78683333D01*
X100116667Y-78750000D01*
X100116667Y-78816667D01*
X100150000Y-78916667D01*
X100550000Y-79316667D01*
X100116667Y-79316667D01*
X143333333Y-78783333D02*
X143333333Y-79116667D01*
X143566666Y-78416667D02*
X143333333Y-78783333D01*
X143100000Y-78416667D01*
X142900000Y-78483333D02*
X142866666Y-78450000D01*
X142800000Y-78416667D01*
X142633333Y-78416667D01*
X142566666Y-78450000D01*
X142533333Y-78483333D01*
X142500000Y-78550000D01*
X142500000Y-78616667D01*
X142533333Y-78716667D01*
X142933333Y-79116667D01*
X142500000Y-79116667D01*
X138333333Y-78983333D02*
X138333333Y-79316667D01*
X138566666Y-78616667D02*
X138333333Y-78983333D01*
X138100000Y-78616667D01*
X137500000Y-79316667D02*
X137900000Y-79316667D01*
X137700000Y-79316667D02*
X137700000Y-78616667D01*
X137766666Y-78716667D01*
X137833333Y-78783333D01*
X137900000Y-78816667D01*
X133450000Y-79250000D02*
X133483334Y-79283333D01*
X133583334Y-79316667D01*
X133650000Y-79316667D01*
X133750000Y-79283333D01*
X133816667Y-79216667D01*
X133850000Y-79150000D01*
X133883334Y-79016667D01*
X133883334Y-78916667D01*
X133850000Y-78783333D01*
X133816667Y-78716667D01*
X133750000Y-78650000D01*
X133650000Y-78616667D01*
X133583334Y-78616667D01*
X133483334Y-78650000D01*
X133450000Y-78683333D01*
X132783334Y-79316667D02*
X133183334Y-79316667D01*
X132983334Y-79316667D02*
X132983334Y-78616667D01*
X133050000Y-78716667D01*
X133116667Y-78783333D01*
X133183334Y-78816667D01*
X132516667Y-78683333D02*
X132483333Y-78650000D01*
X132416667Y-78616667D01*
X132250000Y-78616667D01*
X132183333Y-78650000D01*
X132150000Y-78683333D01*
X132116667Y-78750000D01*
X132116667Y-78816667D01*
X132150000Y-78916667D01*
X132550000Y-79316667D01*
X132116667Y-79316667D01*
X131250000Y-81350000D02*
X131283333Y-81316666D01*
X131316667Y-81216666D01*
X131316667Y-81150000D01*
X131283333Y-81050000D01*
X131216667Y-80983333D01*
X131150000Y-80950000D01*
X131016667Y-80916666D01*
X130916667Y-80916666D01*
X130783333Y-80950000D01*
X130716667Y-80983333D01*
X130650000Y-81050000D01*
X130616667Y-81150000D01*
X130616667Y-81216666D01*
X130650000Y-81316666D01*
X130683333Y-81350000D01*
X131316667Y-82016666D02*
X131316667Y-81616666D01*
X131316667Y-81816666D02*
X130616667Y-81816666D01*
X130716667Y-81750000D01*
X130783333Y-81683333D01*
X130816667Y-81616666D01*
X131316667Y-82683333D02*
X131316667Y-82283333D01*
X131316667Y-82483333D02*
X130616667Y-82483333D01*
X130716667Y-82416667D01*
X130783333Y-82350000D01*
X130816667Y-82283333D01*
X133216666Y-88216667D02*
X133450000Y-87883333D01*
X133616666Y-88216667D02*
X133616666Y-87516667D01*
X133350000Y-87516667D01*
X133283333Y-87550000D01*
X133250000Y-87583333D01*
X133216666Y-87650000D01*
X133216666Y-87750000D01*
X133250000Y-87816667D01*
X133283333Y-87850000D01*
X133350000Y-87883333D01*
X133616666Y-87883333D01*
X132883333Y-88216667D02*
X132750000Y-88216667D01*
X132683333Y-88183333D01*
X132650000Y-88150000D01*
X132583333Y-88050000D01*
X132550000Y-87916667D01*
X132550000Y-87650000D01*
X132583333Y-87583333D01*
X132616666Y-87550000D01*
X132683333Y-87516667D01*
X132816666Y-87516667D01*
X132883333Y-87550000D01*
X132916666Y-87583333D01*
X132950000Y-87650000D01*
X132950000Y-87816667D01*
X132916666Y-87883333D01*
X132883333Y-87916667D01*
X132816666Y-87950000D01*
X132683333Y-87950000D01*
X132616666Y-87916667D01*
X132583333Y-87883333D01*
X132550000Y-87816667D01*
X131250000Y-84883334D02*
X131283333Y-84850000D01*
X131316667Y-84750000D01*
X131316667Y-84683334D01*
X131283333Y-84583334D01*
X131216667Y-84516667D01*
X131150000Y-84483334D01*
X131016667Y-84450000D01*
X130916667Y-84450000D01*
X130783333Y-84483334D01*
X130716667Y-84516667D01*
X130650000Y-84583334D01*
X130616667Y-84683334D01*
X130616667Y-84750000D01*
X130650000Y-84850000D01*
X130683333Y-84883334D01*
X130616667Y-85483334D02*
X130616667Y-85350000D01*
X130650000Y-85283334D01*
X130683333Y-85250000D01*
X130783333Y-85183334D01*
X130916667Y-85150000D01*
X131183333Y-85150000D01*
X131250000Y-85183334D01*
X131283333Y-85216667D01*
X131316667Y-85283334D01*
X131316667Y-85416667D01*
X131283333Y-85483334D01*
X131250000Y-85516667D01*
X131183333Y-85550000D01*
X131016667Y-85550000D01*
X130950000Y-85516667D01*
X130916667Y-85483334D01*
X130883333Y-85416667D01*
X130883333Y-85283334D01*
X130916667Y-85216667D01*
X130950000Y-85183334D01*
X131016667Y-85150000D01*
X131250000Y-83383334D02*
X131283333Y-83350000D01*
X131316667Y-83250000D01*
X131316667Y-83183334D01*
X131283333Y-83083334D01*
X131216667Y-83016667D01*
X131150000Y-82983334D01*
X131016667Y-82950000D01*
X130916667Y-82950000D01*
X130783333Y-82983334D01*
X130716667Y-83016667D01*
X130650000Y-83083334D01*
X130616667Y-83183334D01*
X130616667Y-83250000D01*
X130650000Y-83350000D01*
X130683333Y-83383334D01*
X130616667Y-84016667D02*
X130616667Y-83683334D01*
X130950000Y-83650000D01*
X130916667Y-83683334D01*
X130883333Y-83750000D01*
X130883333Y-83916667D01*
X130916667Y-83983334D01*
X130950000Y-84016667D01*
X131016667Y-84050000D01*
X131183333Y-84050000D01*
X131250000Y-84016667D01*
X131283333Y-83983334D01*
X131316667Y-83916667D01*
X131316667Y-83750000D01*
X131283333Y-83683334D01*
X131250000Y-83650000D01*
X169216667Y-55166667D02*
X169783333Y-55166667D01*
X169850000Y-55200000D01*
X169883333Y-55233333D01*
X169916667Y-55300000D01*
X169916667Y-55433333D01*
X169883333Y-55500000D01*
X169850000Y-55533333D01*
X169783333Y-55566667D01*
X169216667Y-55566667D01*
X169916667Y-56266666D02*
X169916667Y-55866666D01*
X169916667Y-56066666D02*
X169216667Y-56066666D01*
X169316667Y-56000000D01*
X169383333Y-55933333D01*
X169416667Y-55866666D01*
X178950000Y-56583334D02*
X178983333Y-56550000D01*
X179016667Y-56450000D01*
X179016667Y-56383334D01*
X178983333Y-56283334D01*
X178916667Y-56216667D01*
X178850000Y-56183334D01*
X178716667Y-56150000D01*
X178616667Y-56150000D01*
X178483333Y-56183334D01*
X178416667Y-56216667D01*
X178350000Y-56283334D01*
X178316667Y-56383334D01*
X178316667Y-56450000D01*
X178350000Y-56550000D01*
X178383333Y-56583334D01*
X179016667Y-56916667D02*
X179016667Y-57050000D01*
X178983333Y-57116667D01*
X178950000Y-57150000D01*
X178850000Y-57216667D01*
X178716667Y-57250000D01*
X178450000Y-57250000D01*
X178383333Y-57216667D01*
X178350000Y-57183334D01*
X178316667Y-57116667D01*
X178316667Y-56983334D01*
X178350000Y-56916667D01*
X178383333Y-56883334D01*
X178450000Y-56850000D01*
X178616667Y-56850000D01*
X178683333Y-56883334D01*
X178716667Y-56916667D01*
X178750000Y-56983334D01*
X178750000Y-57116667D01*
X178716667Y-57183334D01*
X178683333Y-57216667D01*
X178616667Y-57250000D01*
X177516667Y-59683334D02*
X177183333Y-59450000D01*
X177516667Y-59283334D02*
X176816667Y-59283334D01*
X176816667Y-59550000D01*
X176850000Y-59616667D01*
X176883333Y-59650000D01*
X176950000Y-59683334D01*
X177050000Y-59683334D01*
X177116667Y-59650000D01*
X177150000Y-59616667D01*
X177183333Y-59550000D01*
X177183333Y-59283334D01*
X177116667Y-60083334D02*
X177083333Y-60016667D01*
X177050000Y-59983334D01*
X176983333Y-59950000D01*
X176950000Y-59950000D01*
X176883333Y-59983334D01*
X176850000Y-60016667D01*
X176816667Y-60083334D01*
X176816667Y-60216667D01*
X176850000Y-60283334D01*
X176883333Y-60316667D01*
X176950000Y-60350000D01*
X176983333Y-60350000D01*
X177050000Y-60316667D01*
X177083333Y-60283334D01*
X177116667Y-60216667D01*
X177116667Y-60083334D01*
X177150000Y-60016667D01*
X177183333Y-59983334D01*
X177250000Y-59950000D01*
X177383333Y-59950000D01*
X177450000Y-59983334D01*
X177483333Y-60016667D01*
X177516667Y-60083334D01*
X177516667Y-60216667D01*
X177483333Y-60283334D01*
X177450000Y-60316667D01*
X177383333Y-60350000D01*
X177250000Y-60350000D01*
X177183333Y-60316667D01*
X177150000Y-60283334D01*
X177116667Y-60216667D01*
X186350000Y-59350000D02*
X186383333Y-59316666D01*
X186416667Y-59216666D01*
X186416667Y-59150000D01*
X186383333Y-59050000D01*
X186316667Y-58983333D01*
X186250000Y-58950000D01*
X186116667Y-58916666D01*
X186016667Y-58916666D01*
X185883333Y-58950000D01*
X185816667Y-58983333D01*
X185750000Y-59050000D01*
X185716667Y-59150000D01*
X185716667Y-59216666D01*
X185750000Y-59316666D01*
X185783333Y-59350000D01*
X186416667Y-60016666D02*
X186416667Y-59616666D01*
X186416667Y-59816666D02*
X185716667Y-59816666D01*
X185816667Y-59750000D01*
X185883333Y-59683333D01*
X185916667Y-59616666D01*
X185716667Y-60250000D02*
X185716667Y-60683333D01*
X185983333Y-60450000D01*
X185983333Y-60550000D01*
X186016667Y-60616667D01*
X186050000Y-60650000D01*
X186116667Y-60683333D01*
X186283333Y-60683333D01*
X186350000Y-60650000D01*
X186383333Y-60616667D01*
X186416667Y-60550000D01*
X186416667Y-60350000D01*
X186383333Y-60283333D01*
X186350000Y-60250000D01*
X180950000Y-56450000D02*
X180983333Y-56416666D01*
X181016667Y-56316666D01*
X181016667Y-56250000D01*
X180983333Y-56150000D01*
X180916667Y-56083333D01*
X180850000Y-56050000D01*
X180716667Y-56016666D01*
X180616667Y-56016666D01*
X180483333Y-56050000D01*
X180416667Y-56083333D01*
X180350000Y-56150000D01*
X180316667Y-56250000D01*
X180316667Y-56316666D01*
X180350000Y-56416666D01*
X180383333Y-56450000D01*
X181016667Y-57116666D02*
X181016667Y-56716666D01*
X181016667Y-56916666D02*
X180316667Y-56916666D01*
X180416667Y-56850000D01*
X180483333Y-56783333D01*
X180516667Y-56716666D01*
X180316667Y-57550000D02*
X180316667Y-57616667D01*
X180350000Y-57683333D01*
X180383333Y-57716667D01*
X180450000Y-57750000D01*
X180583333Y-57783333D01*
X180750000Y-57783333D01*
X180883333Y-57750000D01*
X180950000Y-57716667D01*
X180983333Y-57683333D01*
X181016667Y-57616667D01*
X181016667Y-57550000D01*
X180983333Y-57483333D01*
X180950000Y-57450000D01*
X180883333Y-57416667D01*
X180750000Y-57383333D01*
X180583333Y-57383333D01*
X180450000Y-57416667D01*
X180383333Y-57450000D01*
X180350000Y-57483333D01*
X180316667Y-57550000D01*
X182133333Y-61716667D02*
X182133333Y-62283333D01*
X182100000Y-62350000D01*
X182066667Y-62383333D01*
X182000000Y-62416667D01*
X181866667Y-62416667D01*
X181800000Y-62383333D01*
X181766667Y-62350000D01*
X181733333Y-62283333D01*
X181733333Y-61716667D01*
X181433334Y-61783333D02*
X181400000Y-61750000D01*
X181333334Y-61716667D01*
X181166667Y-61716667D01*
X181100000Y-61750000D01*
X181066667Y-61783333D01*
X181033334Y-61850000D01*
X181033334Y-61916667D01*
X181066667Y-62016667D01*
X181466667Y-62416667D01*
X181033334Y-62416667D01*
X118133333Y-61716667D02*
X118133333Y-62283333D01*
X118100000Y-62350000D01*
X118066667Y-62383333D01*
X118000000Y-62416667D01*
X117866667Y-62416667D01*
X117800000Y-62383333D01*
X117766667Y-62350000D01*
X117733333Y-62283333D01*
X117733333Y-61716667D01*
X117433334Y-61783333D02*
X117400000Y-61750000D01*
X117333334Y-61716667D01*
X117166667Y-61716667D01*
X117100000Y-61750000D01*
X117066667Y-61783333D01*
X117033334Y-61850000D01*
X117033334Y-61916667D01*
X117066667Y-62016667D01*
X117466667Y-62416667D01*
X117033334Y-62416667D01*
X114950000Y-56583334D02*
X114983333Y-56550000D01*
X115016667Y-56450000D01*
X115016667Y-56383334D01*
X114983333Y-56283334D01*
X114916667Y-56216667D01*
X114850000Y-56183334D01*
X114716667Y-56150000D01*
X114616667Y-56150000D01*
X114483333Y-56183334D01*
X114416667Y-56216667D01*
X114350000Y-56283334D01*
X114316667Y-56383334D01*
X114316667Y-56450000D01*
X114350000Y-56550000D01*
X114383333Y-56583334D01*
X115016667Y-56916667D02*
X115016667Y-57050000D01*
X114983333Y-57116667D01*
X114950000Y-57150000D01*
X114850000Y-57216667D01*
X114716667Y-57250000D01*
X114450000Y-57250000D01*
X114383333Y-57216667D01*
X114350000Y-57183334D01*
X114316667Y-57116667D01*
X114316667Y-56983334D01*
X114350000Y-56916667D01*
X114383333Y-56883334D01*
X114450000Y-56850000D01*
X114616667Y-56850000D01*
X114683333Y-56883334D01*
X114716667Y-56916667D01*
X114750000Y-56983334D01*
X114750000Y-57116667D01*
X114716667Y-57183334D01*
X114683333Y-57216667D01*
X114616667Y-57250000D01*
X116950000Y-56450000D02*
X116983333Y-56416666D01*
X117016667Y-56316666D01*
X117016667Y-56250000D01*
X116983333Y-56150000D01*
X116916667Y-56083333D01*
X116850000Y-56050000D01*
X116716667Y-56016666D01*
X116616667Y-56016666D01*
X116483333Y-56050000D01*
X116416667Y-56083333D01*
X116350000Y-56150000D01*
X116316667Y-56250000D01*
X116316667Y-56316666D01*
X116350000Y-56416666D01*
X116383333Y-56450000D01*
X117016667Y-57116666D02*
X117016667Y-56716666D01*
X117016667Y-56916666D02*
X116316667Y-56916666D01*
X116416667Y-56850000D01*
X116483333Y-56783333D01*
X116516667Y-56716666D01*
X116316667Y-57550000D02*
X116316667Y-57616667D01*
X116350000Y-57683333D01*
X116383333Y-57716667D01*
X116450000Y-57750000D01*
X116583333Y-57783333D01*
X116750000Y-57783333D01*
X116883333Y-57750000D01*
X116950000Y-57716667D01*
X116983333Y-57683333D01*
X117016667Y-57616667D01*
X117016667Y-57550000D01*
X116983333Y-57483333D01*
X116950000Y-57450000D01*
X116883333Y-57416667D01*
X116750000Y-57383333D01*
X116583333Y-57383333D01*
X116450000Y-57416667D01*
X116383333Y-57450000D01*
X116350000Y-57483333D01*
X116316667Y-57550000D01*
X105216667Y-55166667D02*
X105783333Y-55166667D01*
X105850000Y-55200000D01*
X105883333Y-55233333D01*
X105916667Y-55300000D01*
X105916667Y-55433333D01*
X105883333Y-55500000D01*
X105850000Y-55533333D01*
X105783333Y-55566667D01*
X105216667Y-55566667D01*
X105916667Y-56266666D02*
X105916667Y-55866666D01*
X105916667Y-56066666D02*
X105216667Y-56066666D01*
X105316667Y-56000000D01*
X105383333Y-55933333D01*
X105416667Y-55866666D01*
X122350000Y-59350000D02*
X122383333Y-59316666D01*
X122416667Y-59216666D01*
X122416667Y-59150000D01*
X122383333Y-59050000D01*
X122316667Y-58983333D01*
X122250000Y-58950000D01*
X122116667Y-58916666D01*
X122016667Y-58916666D01*
X121883333Y-58950000D01*
X121816667Y-58983333D01*
X121750000Y-59050000D01*
X121716667Y-59150000D01*
X121716667Y-59216666D01*
X121750000Y-59316666D01*
X121783333Y-59350000D01*
X122416667Y-60016666D02*
X122416667Y-59616666D01*
X122416667Y-59816666D02*
X121716667Y-59816666D01*
X121816667Y-59750000D01*
X121883333Y-59683333D01*
X121916667Y-59616666D01*
X121716667Y-60250000D02*
X121716667Y-60683333D01*
X121983333Y-60450000D01*
X121983333Y-60550000D01*
X122016667Y-60616667D01*
X122050000Y-60650000D01*
X122116667Y-60683333D01*
X122283333Y-60683333D01*
X122350000Y-60650000D01*
X122383333Y-60616667D01*
X122416667Y-60550000D01*
X122416667Y-60350000D01*
X122383333Y-60283333D01*
X122350000Y-60250000D01*
X113516667Y-59683334D02*
X113183333Y-59450000D01*
X113516667Y-59283334D02*
X112816667Y-59283334D01*
X112816667Y-59550000D01*
X112850000Y-59616667D01*
X112883333Y-59650000D01*
X112950000Y-59683334D01*
X113050000Y-59683334D01*
X113116667Y-59650000D01*
X113150000Y-59616667D01*
X113183333Y-59550000D01*
X113183333Y-59283334D01*
X113116667Y-60083334D02*
X113083333Y-60016667D01*
X113050000Y-59983334D01*
X112983333Y-59950000D01*
X112950000Y-59950000D01*
X112883333Y-59983334D01*
X112850000Y-60016667D01*
X112816667Y-60083334D01*
X112816667Y-60216667D01*
X112850000Y-60283334D01*
X112883333Y-60316667D01*
X112950000Y-60350000D01*
X112983333Y-60350000D01*
X113050000Y-60316667D01*
X113083333Y-60283334D01*
X113116667Y-60216667D01*
X113116667Y-60083334D01*
X113150000Y-60016667D01*
X113183333Y-59983334D01*
X113250000Y-59950000D01*
X113383333Y-59950000D01*
X113450000Y-59983334D01*
X113483333Y-60016667D01*
X113516667Y-60083334D01*
X113516667Y-60216667D01*
X113483333Y-60283334D01*
X113450000Y-60316667D01*
X113383333Y-60350000D01*
X113250000Y-60350000D01*
X113183333Y-60316667D01*
X113150000Y-60283334D01*
X113116667Y-60216667D01*
X180950000Y-102450000D02*
X180983333Y-102416666D01*
X181016667Y-102316666D01*
X181016667Y-102250000D01*
X180983333Y-102150000D01*
X180916667Y-102083333D01*
X180850000Y-102050000D01*
X180716667Y-102016666D01*
X180616667Y-102016666D01*
X180483333Y-102050000D01*
X180416667Y-102083333D01*
X180350000Y-102150000D01*
X180316667Y-102250000D01*
X180316667Y-102316666D01*
X180350000Y-102416666D01*
X180383333Y-102450000D01*
X181016667Y-103116666D02*
X181016667Y-102716666D01*
X181016667Y-102916666D02*
X180316667Y-102916666D01*
X180416667Y-102850000D01*
X180483333Y-102783333D01*
X180516667Y-102716666D01*
X180316667Y-103550000D02*
X180316667Y-103616667D01*
X180350000Y-103683333D01*
X180383333Y-103716667D01*
X180450000Y-103750000D01*
X180583333Y-103783333D01*
X180750000Y-103783333D01*
X180883333Y-103750000D01*
X180950000Y-103716667D01*
X180983333Y-103683333D01*
X181016667Y-103616667D01*
X181016667Y-103550000D01*
X180983333Y-103483333D01*
X180950000Y-103450000D01*
X180883333Y-103416667D01*
X180750000Y-103383333D01*
X180583333Y-103383333D01*
X180450000Y-103416667D01*
X180383333Y-103450000D01*
X180350000Y-103483333D01*
X180316667Y-103550000D01*
X177516667Y-105683334D02*
X177183333Y-105450000D01*
X177516667Y-105283334D02*
X176816667Y-105283334D01*
X176816667Y-105550000D01*
X176850000Y-105616667D01*
X176883333Y-105650000D01*
X176950000Y-105683334D01*
X177050000Y-105683334D01*
X177116667Y-105650000D01*
X177150000Y-105616667D01*
X177183333Y-105550000D01*
X177183333Y-105283334D01*
X177116667Y-106083334D02*
X177083333Y-106016667D01*
X177050000Y-105983334D01*
X176983333Y-105950000D01*
X176950000Y-105950000D01*
X176883333Y-105983334D01*
X176850000Y-106016667D01*
X176816667Y-106083334D01*
X176816667Y-106216667D01*
X176850000Y-106283334D01*
X176883333Y-106316667D01*
X176950000Y-106350000D01*
X176983333Y-106350000D01*
X177050000Y-106316667D01*
X177083333Y-106283334D01*
X177116667Y-106216667D01*
X177116667Y-106083334D01*
X177150000Y-106016667D01*
X177183333Y-105983334D01*
X177250000Y-105950000D01*
X177383333Y-105950000D01*
X177450000Y-105983334D01*
X177483333Y-106016667D01*
X177516667Y-106083334D01*
X177516667Y-106216667D01*
X177483333Y-106283334D01*
X177450000Y-106316667D01*
X177383333Y-106350000D01*
X177250000Y-106350000D01*
X177183333Y-106316667D01*
X177150000Y-106283334D01*
X177116667Y-106216667D01*
X178950000Y-102583334D02*
X178983333Y-102550000D01*
X179016667Y-102450000D01*
X179016667Y-102383334D01*
X178983333Y-102283334D01*
X178916667Y-102216667D01*
X178850000Y-102183334D01*
X178716667Y-102150000D01*
X178616667Y-102150000D01*
X178483333Y-102183334D01*
X178416667Y-102216667D01*
X178350000Y-102283334D01*
X178316667Y-102383334D01*
X178316667Y-102450000D01*
X178350000Y-102550000D01*
X178383333Y-102583334D01*
X179016667Y-102916667D02*
X179016667Y-103050000D01*
X178983333Y-103116667D01*
X178950000Y-103150000D01*
X178850000Y-103216667D01*
X178716667Y-103250000D01*
X178450000Y-103250000D01*
X178383333Y-103216667D01*
X178350000Y-103183334D01*
X178316667Y-103116667D01*
X178316667Y-102983334D01*
X178350000Y-102916667D01*
X178383333Y-102883334D01*
X178450000Y-102850000D01*
X178616667Y-102850000D01*
X178683333Y-102883334D01*
X178716667Y-102916667D01*
X178750000Y-102983334D01*
X178750000Y-103116667D01*
X178716667Y-103183334D01*
X178683333Y-103216667D01*
X178616667Y-103250000D01*
X186350000Y-105350000D02*
X186383333Y-105316666D01*
X186416667Y-105216666D01*
X186416667Y-105150000D01*
X186383333Y-105050000D01*
X186316667Y-104983333D01*
X186250000Y-104950000D01*
X186116667Y-104916666D01*
X186016667Y-104916666D01*
X185883333Y-104950000D01*
X185816667Y-104983333D01*
X185750000Y-105050000D01*
X185716667Y-105150000D01*
X185716667Y-105216666D01*
X185750000Y-105316666D01*
X185783333Y-105350000D01*
X186416667Y-106016666D02*
X186416667Y-105616666D01*
X186416667Y-105816666D02*
X185716667Y-105816666D01*
X185816667Y-105750000D01*
X185883333Y-105683333D01*
X185916667Y-105616666D01*
X185716667Y-106250000D02*
X185716667Y-106683333D01*
X185983333Y-106450000D01*
X185983333Y-106550000D01*
X186016667Y-106616667D01*
X186050000Y-106650000D01*
X186116667Y-106683333D01*
X186283333Y-106683333D01*
X186350000Y-106650000D01*
X186383333Y-106616667D01*
X186416667Y-106550000D01*
X186416667Y-106350000D01*
X186383333Y-106283333D01*
X186350000Y-106250000D01*
X169216667Y-101166667D02*
X169783333Y-101166667D01*
X169850000Y-101200000D01*
X169883333Y-101233333D01*
X169916667Y-101300000D01*
X169916667Y-101433333D01*
X169883333Y-101500000D01*
X169850000Y-101533333D01*
X169783333Y-101566667D01*
X169216667Y-101566667D01*
X169916667Y-102266666D02*
X169916667Y-101866666D01*
X169916667Y-102066666D02*
X169216667Y-102066666D01*
X169316667Y-102000000D01*
X169383333Y-101933333D01*
X169416667Y-101866666D01*
X182133333Y-107716667D02*
X182133333Y-108283333D01*
X182100000Y-108350000D01*
X182066667Y-108383333D01*
X182000000Y-108416667D01*
X181866667Y-108416667D01*
X181800000Y-108383333D01*
X181766667Y-108350000D01*
X181733333Y-108283333D01*
X181733333Y-107716667D01*
X181433334Y-107783333D02*
X181400000Y-107750000D01*
X181333334Y-107716667D01*
X181166667Y-107716667D01*
X181100000Y-107750000D01*
X181066667Y-107783333D01*
X181033334Y-107850000D01*
X181033334Y-107916667D01*
X181066667Y-108016667D01*
X181466667Y-108416667D01*
X181033334Y-108416667D01*
X163250000Y-130883334D02*
X163283333Y-130850000D01*
X163316667Y-130750000D01*
X163316667Y-130683334D01*
X163283333Y-130583334D01*
X163216667Y-130516667D01*
X163150000Y-130483334D01*
X163016667Y-130450000D01*
X162916667Y-130450000D01*
X162783333Y-130483334D01*
X162716667Y-130516667D01*
X162650000Y-130583334D01*
X162616667Y-130683334D01*
X162616667Y-130750000D01*
X162650000Y-130850000D01*
X162683333Y-130883334D01*
X162616667Y-131483334D02*
X162616667Y-131350000D01*
X162650000Y-131283334D01*
X162683333Y-131250000D01*
X162783333Y-131183334D01*
X162916667Y-131150000D01*
X163183333Y-131150000D01*
X163250000Y-131183334D01*
X163283333Y-131216667D01*
X163316667Y-131283334D01*
X163316667Y-131416667D01*
X163283333Y-131483334D01*
X163250000Y-131516667D01*
X163183333Y-131550000D01*
X163016667Y-131550000D01*
X162950000Y-131516667D01*
X162916667Y-131483334D01*
X162883333Y-131416667D01*
X162883333Y-131283334D01*
X162916667Y-131216667D01*
X162950000Y-131183334D01*
X163016667Y-131150000D01*
X163250000Y-127350000D02*
X163283333Y-127316666D01*
X163316667Y-127216666D01*
X163316667Y-127150000D01*
X163283333Y-127050000D01*
X163216667Y-126983333D01*
X163150000Y-126950000D01*
X163016667Y-126916666D01*
X162916667Y-126916666D01*
X162783333Y-126950000D01*
X162716667Y-126983333D01*
X162650000Y-127050000D01*
X162616667Y-127150000D01*
X162616667Y-127216666D01*
X162650000Y-127316666D01*
X162683333Y-127350000D01*
X163316667Y-128016666D02*
X163316667Y-127616666D01*
X163316667Y-127816666D02*
X162616667Y-127816666D01*
X162716667Y-127750000D01*
X162783333Y-127683333D01*
X162816667Y-127616666D01*
X163316667Y-128683333D02*
X163316667Y-128283333D01*
X163316667Y-128483333D02*
X162616667Y-128483333D01*
X162716667Y-128416667D01*
X162783333Y-128350000D01*
X162816667Y-128283333D01*
X165216666Y-134216667D02*
X165450000Y-133883333D01*
X165616666Y-134216667D02*
X165616666Y-133516667D01*
X165350000Y-133516667D01*
X165283333Y-133550000D01*
X165250000Y-133583333D01*
X165216666Y-133650000D01*
X165216666Y-133750000D01*
X165250000Y-133816667D01*
X165283333Y-133850000D01*
X165350000Y-133883333D01*
X165616666Y-133883333D01*
X164883333Y-134216667D02*
X164750000Y-134216667D01*
X164683333Y-134183333D01*
X164650000Y-134150000D01*
X164583333Y-134050000D01*
X164550000Y-133916667D01*
X164550000Y-133650000D01*
X164583333Y-133583333D01*
X164616666Y-133550000D01*
X164683333Y-133516667D01*
X164816666Y-133516667D01*
X164883333Y-133550000D01*
X164916666Y-133583333D01*
X164950000Y-133650000D01*
X164950000Y-133816667D01*
X164916666Y-133883333D01*
X164883333Y-133916667D01*
X164816666Y-133950000D01*
X164683333Y-133950000D01*
X164616666Y-133916667D01*
X164583333Y-133883333D01*
X164550000Y-133816667D01*
X163250000Y-129383334D02*
X163283333Y-129350000D01*
X163316667Y-129250000D01*
X163316667Y-129183334D01*
X163283333Y-129083334D01*
X163216667Y-129016667D01*
X163150000Y-128983334D01*
X163016667Y-128950000D01*
X162916667Y-128950000D01*
X162783333Y-128983334D01*
X162716667Y-129016667D01*
X162650000Y-129083334D01*
X162616667Y-129183334D01*
X162616667Y-129250000D01*
X162650000Y-129350000D01*
X162683333Y-129383334D01*
X162616667Y-130016667D02*
X162616667Y-129683334D01*
X162950000Y-129650000D01*
X162916667Y-129683334D01*
X162883333Y-129750000D01*
X162883333Y-129916667D01*
X162916667Y-129983334D01*
X162950000Y-130016667D01*
X163016667Y-130050000D01*
X163183333Y-130050000D01*
X163250000Y-130016667D01*
X163283333Y-129983334D01*
X163316667Y-129916667D01*
X163316667Y-129750000D01*
X163283333Y-129683334D01*
X163250000Y-129650000D01*
X170333333Y-124983333D02*
X170333333Y-125316667D01*
X170566666Y-124616667D02*
X170333333Y-124983333D01*
X170100000Y-124616667D01*
X169500000Y-125316667D02*
X169900000Y-125316667D01*
X169700000Y-125316667D02*
X169700000Y-124616667D01*
X169766666Y-124716667D01*
X169833333Y-124783333D01*
X169900000Y-124816667D01*
X165450000Y-125250000D02*
X165483334Y-125283333D01*
X165583334Y-125316667D01*
X165650000Y-125316667D01*
X165750000Y-125283333D01*
X165816667Y-125216667D01*
X165850000Y-125150000D01*
X165883334Y-125016667D01*
X165883334Y-124916667D01*
X165850000Y-124783333D01*
X165816667Y-124716667D01*
X165750000Y-124650000D01*
X165650000Y-124616667D01*
X165583334Y-124616667D01*
X165483334Y-124650000D01*
X165450000Y-124683333D01*
X164783334Y-125316667D02*
X165183334Y-125316667D01*
X164983334Y-125316667D02*
X164983334Y-124616667D01*
X165050000Y-124716667D01*
X165116667Y-124783333D01*
X165183334Y-124816667D01*
X164516667Y-124683333D02*
X164483333Y-124650000D01*
X164416667Y-124616667D01*
X164250000Y-124616667D01*
X164183333Y-124650000D01*
X164150000Y-124683333D01*
X164116667Y-124750000D01*
X164116667Y-124816667D01*
X164150000Y-124916667D01*
X164550000Y-125316667D01*
X164116667Y-125316667D01*
X175333333Y-124783333D02*
X175333333Y-125116667D01*
X175566666Y-124416667D02*
X175333333Y-124783333D01*
X175100000Y-124416667D01*
X174900000Y-124483333D02*
X174866666Y-124450000D01*
X174800000Y-124416667D01*
X174633333Y-124416667D01*
X174566666Y-124450000D01*
X174533333Y-124483333D01*
X174500000Y-124550000D01*
X174500000Y-124616667D01*
X174533333Y-124716667D01*
X174933333Y-125116667D01*
X174500000Y-125116667D01*
X148950000Y-102450000D02*
X148983333Y-102416666D01*
X149016667Y-102316666D01*
X149016667Y-102250000D01*
X148983333Y-102150000D01*
X148916667Y-102083333D01*
X148850000Y-102050000D01*
X148716667Y-102016666D01*
X148616667Y-102016666D01*
X148483333Y-102050000D01*
X148416667Y-102083333D01*
X148350000Y-102150000D01*
X148316667Y-102250000D01*
X148316667Y-102316666D01*
X148350000Y-102416666D01*
X148383333Y-102450000D01*
X149016667Y-103116666D02*
X149016667Y-102716666D01*
X149016667Y-102916666D02*
X148316667Y-102916666D01*
X148416667Y-102850000D01*
X148483333Y-102783333D01*
X148516667Y-102716666D01*
X148316667Y-103550000D02*
X148316667Y-103616667D01*
X148350000Y-103683333D01*
X148383333Y-103716667D01*
X148450000Y-103750000D01*
X148583333Y-103783333D01*
X148750000Y-103783333D01*
X148883333Y-103750000D01*
X148950000Y-103716667D01*
X148983333Y-103683333D01*
X149016667Y-103616667D01*
X149016667Y-103550000D01*
X148983333Y-103483333D01*
X148950000Y-103450000D01*
X148883333Y-103416667D01*
X148750000Y-103383333D01*
X148583333Y-103383333D01*
X148450000Y-103416667D01*
X148383333Y-103450000D01*
X148350000Y-103483333D01*
X148316667Y-103550000D01*
X145516667Y-105683334D02*
X145183333Y-105450000D01*
X145516667Y-105283334D02*
X144816667Y-105283334D01*
X144816667Y-105550000D01*
X144850000Y-105616667D01*
X144883333Y-105650000D01*
X144950000Y-105683334D01*
X145050000Y-105683334D01*
X145116667Y-105650000D01*
X145150000Y-105616667D01*
X145183333Y-105550000D01*
X145183333Y-105283334D01*
X145116667Y-106083334D02*
X145083333Y-106016667D01*
X145050000Y-105983334D01*
X144983333Y-105950000D01*
X144950000Y-105950000D01*
X144883333Y-105983334D01*
X144850000Y-106016667D01*
X144816667Y-106083334D01*
X144816667Y-106216667D01*
X144850000Y-106283334D01*
X144883333Y-106316667D01*
X144950000Y-106350000D01*
X144983333Y-106350000D01*
X145050000Y-106316667D01*
X145083333Y-106283334D01*
X145116667Y-106216667D01*
X145116667Y-106083334D01*
X145150000Y-106016667D01*
X145183333Y-105983334D01*
X145250000Y-105950000D01*
X145383333Y-105950000D01*
X145450000Y-105983334D01*
X145483333Y-106016667D01*
X145516667Y-106083334D01*
X145516667Y-106216667D01*
X145483333Y-106283334D01*
X145450000Y-106316667D01*
X145383333Y-106350000D01*
X145250000Y-106350000D01*
X145183333Y-106316667D01*
X145150000Y-106283334D01*
X145116667Y-106216667D01*
X146950000Y-102583334D02*
X146983333Y-102550000D01*
X147016667Y-102450000D01*
X147016667Y-102383334D01*
X146983333Y-102283334D01*
X146916667Y-102216667D01*
X146850000Y-102183334D01*
X146716667Y-102150000D01*
X146616667Y-102150000D01*
X146483333Y-102183334D01*
X146416667Y-102216667D01*
X146350000Y-102283334D01*
X146316667Y-102383334D01*
X146316667Y-102450000D01*
X146350000Y-102550000D01*
X146383333Y-102583334D01*
X147016667Y-102916667D02*
X147016667Y-103050000D01*
X146983333Y-103116667D01*
X146950000Y-103150000D01*
X146850000Y-103216667D01*
X146716667Y-103250000D01*
X146450000Y-103250000D01*
X146383333Y-103216667D01*
X146350000Y-103183334D01*
X146316667Y-103116667D01*
X146316667Y-102983334D01*
X146350000Y-102916667D01*
X146383333Y-102883334D01*
X146450000Y-102850000D01*
X146616667Y-102850000D01*
X146683333Y-102883334D01*
X146716667Y-102916667D01*
X146750000Y-102983334D01*
X146750000Y-103116667D01*
X146716667Y-103183334D01*
X146683333Y-103216667D01*
X146616667Y-103250000D01*
X154350000Y-105350000D02*
X154383333Y-105316666D01*
X154416667Y-105216666D01*
X154416667Y-105150000D01*
X154383333Y-105050000D01*
X154316667Y-104983333D01*
X154250000Y-104950000D01*
X154116667Y-104916666D01*
X154016667Y-104916666D01*
X153883333Y-104950000D01*
X153816667Y-104983333D01*
X153750000Y-105050000D01*
X153716667Y-105150000D01*
X153716667Y-105216666D01*
X153750000Y-105316666D01*
X153783333Y-105350000D01*
X154416667Y-106016666D02*
X154416667Y-105616666D01*
X154416667Y-105816666D02*
X153716667Y-105816666D01*
X153816667Y-105750000D01*
X153883333Y-105683333D01*
X153916667Y-105616666D01*
X153716667Y-106250000D02*
X153716667Y-106683333D01*
X153983333Y-106450000D01*
X153983333Y-106550000D01*
X154016667Y-106616667D01*
X154050000Y-106650000D01*
X154116667Y-106683333D01*
X154283333Y-106683333D01*
X154350000Y-106650000D01*
X154383333Y-106616667D01*
X154416667Y-106550000D01*
X154416667Y-106350000D01*
X154383333Y-106283333D01*
X154350000Y-106250000D01*
X137216667Y-101166667D02*
X137783333Y-101166667D01*
X137850000Y-101200000D01*
X137883333Y-101233333D01*
X137916667Y-101300000D01*
X137916667Y-101433333D01*
X137883333Y-101500000D01*
X137850000Y-101533333D01*
X137783333Y-101566667D01*
X137216667Y-101566667D01*
X137916667Y-102266666D02*
X137916667Y-101866666D01*
X137916667Y-102066666D02*
X137216667Y-102066666D01*
X137316667Y-102000000D01*
X137383333Y-101933333D01*
X137416667Y-101866666D01*
X150133333Y-107716667D02*
X150133333Y-108283333D01*
X150100000Y-108350000D01*
X150066667Y-108383333D01*
X150000000Y-108416667D01*
X149866667Y-108416667D01*
X149800000Y-108383333D01*
X149766667Y-108350000D01*
X149733333Y-108283333D01*
X149733333Y-107716667D01*
X149433334Y-107783333D02*
X149400000Y-107750000D01*
X149333334Y-107716667D01*
X149166667Y-107716667D01*
X149100000Y-107750000D01*
X149066667Y-107783333D01*
X149033334Y-107850000D01*
X149033334Y-107916667D01*
X149066667Y-108016667D01*
X149466667Y-108416667D01*
X149033334Y-108416667D01*
X131250000Y-130883334D02*
X131283333Y-130850000D01*
X131316667Y-130750000D01*
X131316667Y-130683334D01*
X131283333Y-130583334D01*
X131216667Y-130516667D01*
X131150000Y-130483334D01*
X131016667Y-130450000D01*
X130916667Y-130450000D01*
X130783333Y-130483334D01*
X130716667Y-130516667D01*
X130650000Y-130583334D01*
X130616667Y-130683334D01*
X130616667Y-130750000D01*
X130650000Y-130850000D01*
X130683333Y-130883334D01*
X130616667Y-131483334D02*
X130616667Y-131350000D01*
X130650000Y-131283334D01*
X130683333Y-131250000D01*
X130783333Y-131183334D01*
X130916667Y-131150000D01*
X131183333Y-131150000D01*
X131250000Y-131183334D01*
X131283333Y-131216667D01*
X131316667Y-131283334D01*
X131316667Y-131416667D01*
X131283333Y-131483334D01*
X131250000Y-131516667D01*
X131183333Y-131550000D01*
X131016667Y-131550000D01*
X130950000Y-131516667D01*
X130916667Y-131483334D01*
X130883333Y-131416667D01*
X130883333Y-131283334D01*
X130916667Y-131216667D01*
X130950000Y-131183334D01*
X131016667Y-131150000D01*
X131250000Y-127350000D02*
X131283333Y-127316666D01*
X131316667Y-127216666D01*
X131316667Y-127150000D01*
X131283333Y-127050000D01*
X131216667Y-126983333D01*
X131150000Y-126950000D01*
X131016667Y-126916666D01*
X130916667Y-126916666D01*
X130783333Y-126950000D01*
X130716667Y-126983333D01*
X130650000Y-127050000D01*
X130616667Y-127150000D01*
X130616667Y-127216666D01*
X130650000Y-127316666D01*
X130683333Y-127350000D01*
X131316667Y-128016666D02*
X131316667Y-127616666D01*
X131316667Y-127816666D02*
X130616667Y-127816666D01*
X130716667Y-127750000D01*
X130783333Y-127683333D01*
X130816667Y-127616666D01*
X131316667Y-128683333D02*
X131316667Y-128283333D01*
X131316667Y-128483333D02*
X130616667Y-128483333D01*
X130716667Y-128416667D01*
X130783333Y-128350000D01*
X130816667Y-128283333D01*
X133216666Y-134216667D02*
X133450000Y-133883333D01*
X133616666Y-134216667D02*
X133616666Y-133516667D01*
X133350000Y-133516667D01*
X133283333Y-133550000D01*
X133250000Y-133583333D01*
X133216666Y-133650000D01*
X133216666Y-133750000D01*
X133250000Y-133816667D01*
X133283333Y-133850000D01*
X133350000Y-133883333D01*
X133616666Y-133883333D01*
X132883333Y-134216667D02*
X132750000Y-134216667D01*
X132683333Y-134183333D01*
X132650000Y-134150000D01*
X132583333Y-134050000D01*
X132550000Y-133916667D01*
X132550000Y-133650000D01*
X132583333Y-133583333D01*
X132616666Y-133550000D01*
X132683333Y-133516667D01*
X132816666Y-133516667D01*
X132883333Y-133550000D01*
X132916666Y-133583333D01*
X132950000Y-133650000D01*
X132950000Y-133816667D01*
X132916666Y-133883333D01*
X132883333Y-133916667D01*
X132816666Y-133950000D01*
X132683333Y-133950000D01*
X132616666Y-133916667D01*
X132583333Y-133883333D01*
X132550000Y-133816667D01*
X131250000Y-129383334D02*
X131283333Y-129350000D01*
X131316667Y-129250000D01*
X131316667Y-129183334D01*
X131283333Y-129083334D01*
X131216667Y-129016667D01*
X131150000Y-128983334D01*
X131016667Y-128950000D01*
X130916667Y-128950000D01*
X130783333Y-128983334D01*
X130716667Y-129016667D01*
X130650000Y-129083334D01*
X130616667Y-129183334D01*
X130616667Y-129250000D01*
X130650000Y-129350000D01*
X130683333Y-129383334D01*
X130616667Y-130016667D02*
X130616667Y-129683334D01*
X130950000Y-129650000D01*
X130916667Y-129683334D01*
X130883333Y-129750000D01*
X130883333Y-129916667D01*
X130916667Y-129983334D01*
X130950000Y-130016667D01*
X131016667Y-130050000D01*
X131183333Y-130050000D01*
X131250000Y-130016667D01*
X131283333Y-129983334D01*
X131316667Y-129916667D01*
X131316667Y-129750000D01*
X131283333Y-129683334D01*
X131250000Y-129650000D01*
X138333333Y-124983333D02*
X138333333Y-125316667D01*
X138566666Y-124616667D02*
X138333333Y-124983333D01*
X138100000Y-124616667D01*
X137500000Y-125316667D02*
X137900000Y-125316667D01*
X137700000Y-125316667D02*
X137700000Y-124616667D01*
X137766666Y-124716667D01*
X137833333Y-124783333D01*
X137900000Y-124816667D01*
X133450000Y-125250000D02*
X133483334Y-125283333D01*
X133583334Y-125316667D01*
X133650000Y-125316667D01*
X133750000Y-125283333D01*
X133816667Y-125216667D01*
X133850000Y-125150000D01*
X133883334Y-125016667D01*
X133883334Y-124916667D01*
X133850000Y-124783333D01*
X133816667Y-124716667D01*
X133750000Y-124650000D01*
X133650000Y-124616667D01*
X133583334Y-124616667D01*
X133483334Y-124650000D01*
X133450000Y-124683333D01*
X132783334Y-125316667D02*
X133183334Y-125316667D01*
X132983334Y-125316667D02*
X132983334Y-124616667D01*
X133050000Y-124716667D01*
X133116667Y-124783333D01*
X133183334Y-124816667D01*
X132516667Y-124683333D02*
X132483333Y-124650000D01*
X132416667Y-124616667D01*
X132250000Y-124616667D01*
X132183333Y-124650000D01*
X132150000Y-124683333D01*
X132116667Y-124750000D01*
X132116667Y-124816667D01*
X132150000Y-124916667D01*
X132550000Y-125316667D01*
X132116667Y-125316667D01*
X143333333Y-124783333D02*
X143333333Y-125116667D01*
X143566666Y-124416667D02*
X143333333Y-124783333D01*
X143100000Y-124416667D01*
X142900000Y-124483333D02*
X142866666Y-124450000D01*
X142800000Y-124416667D01*
X142633333Y-124416667D01*
X142566666Y-124450000D01*
X142533333Y-124483333D01*
X142500000Y-124550000D01*
X142500000Y-124616667D01*
X142533333Y-124716667D01*
X142933333Y-125116667D01*
X142500000Y-125116667D01*
X99250000Y-129383334D02*
X99283333Y-129350000D01*
X99316667Y-129250000D01*
X99316667Y-129183334D01*
X99283333Y-129083334D01*
X99216667Y-129016667D01*
X99150000Y-128983334D01*
X99016667Y-128950000D01*
X98916667Y-128950000D01*
X98783333Y-128983334D01*
X98716667Y-129016667D01*
X98650000Y-129083334D01*
X98616667Y-129183334D01*
X98616667Y-129250000D01*
X98650000Y-129350000D01*
X98683333Y-129383334D01*
X98616667Y-130016667D02*
X98616667Y-129683334D01*
X98950000Y-129650000D01*
X98916667Y-129683334D01*
X98883333Y-129750000D01*
X98883333Y-129916667D01*
X98916667Y-129983334D01*
X98950000Y-130016667D01*
X99016667Y-130050000D01*
X99183333Y-130050000D01*
X99250000Y-130016667D01*
X99283333Y-129983334D01*
X99316667Y-129916667D01*
X99316667Y-129750000D01*
X99283333Y-129683334D01*
X99250000Y-129650000D01*
X99250000Y-130883334D02*
X99283333Y-130850000D01*
X99316667Y-130750000D01*
X99316667Y-130683334D01*
X99283333Y-130583334D01*
X99216667Y-130516667D01*
X99150000Y-130483334D01*
X99016667Y-130450000D01*
X98916667Y-130450000D01*
X98783333Y-130483334D01*
X98716667Y-130516667D01*
X98650000Y-130583334D01*
X98616667Y-130683334D01*
X98616667Y-130750000D01*
X98650000Y-130850000D01*
X98683333Y-130883334D01*
X98616667Y-131483334D02*
X98616667Y-131350000D01*
X98650000Y-131283334D01*
X98683333Y-131250000D01*
X98783333Y-131183334D01*
X98916667Y-131150000D01*
X99183333Y-131150000D01*
X99250000Y-131183334D01*
X99283333Y-131216667D01*
X99316667Y-131283334D01*
X99316667Y-131416667D01*
X99283333Y-131483334D01*
X99250000Y-131516667D01*
X99183333Y-131550000D01*
X99016667Y-131550000D01*
X98950000Y-131516667D01*
X98916667Y-131483334D01*
X98883333Y-131416667D01*
X98883333Y-131283334D01*
X98916667Y-131216667D01*
X98950000Y-131183334D01*
X99016667Y-131150000D01*
X114950000Y-102583334D02*
X114983333Y-102550000D01*
X115016667Y-102450000D01*
X115016667Y-102383334D01*
X114983333Y-102283334D01*
X114916667Y-102216667D01*
X114850000Y-102183334D01*
X114716667Y-102150000D01*
X114616667Y-102150000D01*
X114483333Y-102183334D01*
X114416667Y-102216667D01*
X114350000Y-102283334D01*
X114316667Y-102383334D01*
X114316667Y-102450000D01*
X114350000Y-102550000D01*
X114383333Y-102583334D01*
X115016667Y-102916667D02*
X115016667Y-103050000D01*
X114983333Y-103116667D01*
X114950000Y-103150000D01*
X114850000Y-103216667D01*
X114716667Y-103250000D01*
X114450000Y-103250000D01*
X114383333Y-103216667D01*
X114350000Y-103183334D01*
X114316667Y-103116667D01*
X114316667Y-102983334D01*
X114350000Y-102916667D01*
X114383333Y-102883334D01*
X114450000Y-102850000D01*
X114616667Y-102850000D01*
X114683333Y-102883334D01*
X114716667Y-102916667D01*
X114750000Y-102983334D01*
X114750000Y-103116667D01*
X114716667Y-103183334D01*
X114683333Y-103216667D01*
X114616667Y-103250000D01*
X116950000Y-102450000D02*
X116983333Y-102416666D01*
X117016667Y-102316666D01*
X117016667Y-102250000D01*
X116983333Y-102150000D01*
X116916667Y-102083333D01*
X116850000Y-102050000D01*
X116716667Y-102016666D01*
X116616667Y-102016666D01*
X116483333Y-102050000D01*
X116416667Y-102083333D01*
X116350000Y-102150000D01*
X116316667Y-102250000D01*
X116316667Y-102316666D01*
X116350000Y-102416666D01*
X116383333Y-102450000D01*
X117016667Y-103116666D02*
X117016667Y-102716666D01*
X117016667Y-102916666D02*
X116316667Y-102916666D01*
X116416667Y-102850000D01*
X116483333Y-102783333D01*
X116516667Y-102716666D01*
X116316667Y-103550000D02*
X116316667Y-103616667D01*
X116350000Y-103683333D01*
X116383333Y-103716667D01*
X116450000Y-103750000D01*
X116583333Y-103783333D01*
X116750000Y-103783333D01*
X116883333Y-103750000D01*
X116950000Y-103716667D01*
X116983333Y-103683333D01*
X117016667Y-103616667D01*
X117016667Y-103550000D01*
X116983333Y-103483333D01*
X116950000Y-103450000D01*
X116883333Y-103416667D01*
X116750000Y-103383333D01*
X116583333Y-103383333D01*
X116450000Y-103416667D01*
X116383333Y-103450000D01*
X116350000Y-103483333D01*
X116316667Y-103550000D01*
X99250000Y-127350000D02*
X99283333Y-127316666D01*
X99316667Y-127216666D01*
X99316667Y-127150000D01*
X99283333Y-127050000D01*
X99216667Y-126983333D01*
X99150000Y-126950000D01*
X99016667Y-126916666D01*
X98916667Y-126916666D01*
X98783333Y-126950000D01*
X98716667Y-126983333D01*
X98650000Y-127050000D01*
X98616667Y-127150000D01*
X98616667Y-127216666D01*
X98650000Y-127316666D01*
X98683333Y-127350000D01*
X99316667Y-128016666D02*
X99316667Y-127616666D01*
X99316667Y-127816666D02*
X98616667Y-127816666D01*
X98716667Y-127750000D01*
X98783333Y-127683333D01*
X98816667Y-127616666D01*
X99316667Y-128683333D02*
X99316667Y-128283333D01*
X99316667Y-128483333D02*
X98616667Y-128483333D01*
X98716667Y-128416667D01*
X98783333Y-128350000D01*
X98816667Y-128283333D01*
X101450000Y-125250000D02*
X101483334Y-125283333D01*
X101583334Y-125316667D01*
X101650000Y-125316667D01*
X101750000Y-125283333D01*
X101816667Y-125216667D01*
X101850000Y-125150000D01*
X101883334Y-125016667D01*
X101883334Y-124916667D01*
X101850000Y-124783333D01*
X101816667Y-124716667D01*
X101750000Y-124650000D01*
X101650000Y-124616667D01*
X101583334Y-124616667D01*
X101483334Y-124650000D01*
X101450000Y-124683333D01*
X100783334Y-125316667D02*
X101183334Y-125316667D01*
X100983334Y-125316667D02*
X100983334Y-124616667D01*
X101050000Y-124716667D01*
X101116667Y-124783333D01*
X101183334Y-124816667D01*
X100516667Y-124683333D02*
X100483333Y-124650000D01*
X100416667Y-124616667D01*
X100250000Y-124616667D01*
X100183333Y-124650000D01*
X100150000Y-124683333D01*
X100116667Y-124750000D01*
X100116667Y-124816667D01*
X100150000Y-124916667D01*
X100550000Y-125316667D01*
X100116667Y-125316667D01*
X122350000Y-105350000D02*
X122383333Y-105316666D01*
X122416667Y-105216666D01*
X122416667Y-105150000D01*
X122383333Y-105050000D01*
X122316667Y-104983333D01*
X122250000Y-104950000D01*
X122116667Y-104916666D01*
X122016667Y-104916666D01*
X121883333Y-104950000D01*
X121816667Y-104983333D01*
X121750000Y-105050000D01*
X121716667Y-105150000D01*
X121716667Y-105216666D01*
X121750000Y-105316666D01*
X121783333Y-105350000D01*
X122416667Y-106016666D02*
X122416667Y-105616666D01*
X122416667Y-105816666D02*
X121716667Y-105816666D01*
X121816667Y-105750000D01*
X121883333Y-105683333D01*
X121916667Y-105616666D01*
X121716667Y-106250000D02*
X121716667Y-106683333D01*
X121983333Y-106450000D01*
X121983333Y-106550000D01*
X122016667Y-106616667D01*
X122050000Y-106650000D01*
X122116667Y-106683333D01*
X122283333Y-106683333D01*
X122350000Y-106650000D01*
X122383333Y-106616667D01*
X122416667Y-106550000D01*
X122416667Y-106350000D01*
X122383333Y-106283333D01*
X122350000Y-106250000D01*
X113516667Y-105683334D02*
X113183333Y-105450000D01*
X113516667Y-105283334D02*
X112816667Y-105283334D01*
X112816667Y-105550000D01*
X112850000Y-105616667D01*
X112883333Y-105650000D01*
X112950000Y-105683334D01*
X113050000Y-105683334D01*
X113116667Y-105650000D01*
X113150000Y-105616667D01*
X113183333Y-105550000D01*
X113183333Y-105283334D01*
X113116667Y-106083334D02*
X113083333Y-106016667D01*
X113050000Y-105983334D01*
X112983333Y-105950000D01*
X112950000Y-105950000D01*
X112883333Y-105983334D01*
X112850000Y-106016667D01*
X112816667Y-106083334D01*
X112816667Y-106216667D01*
X112850000Y-106283334D01*
X112883333Y-106316667D01*
X112950000Y-106350000D01*
X112983333Y-106350000D01*
X113050000Y-106316667D01*
X113083333Y-106283334D01*
X113116667Y-106216667D01*
X113116667Y-106083334D01*
X113150000Y-106016667D01*
X113183333Y-105983334D01*
X113250000Y-105950000D01*
X113383333Y-105950000D01*
X113450000Y-105983334D01*
X113483333Y-106016667D01*
X113516667Y-106083334D01*
X113516667Y-106216667D01*
X113483333Y-106283334D01*
X113450000Y-106316667D01*
X113383333Y-106350000D01*
X113250000Y-106350000D01*
X113183333Y-106316667D01*
X113150000Y-106283334D01*
X113116667Y-106216667D01*
X101216666Y-134216667D02*
X101450000Y-133883333D01*
X101616666Y-134216667D02*
X101616666Y-133516667D01*
X101350000Y-133516667D01*
X101283333Y-133550000D01*
X101250000Y-133583333D01*
X101216666Y-133650000D01*
X101216666Y-133750000D01*
X101250000Y-133816667D01*
X101283333Y-133850000D01*
X101350000Y-133883333D01*
X101616666Y-133883333D01*
X100883333Y-134216667D02*
X100750000Y-134216667D01*
X100683333Y-134183333D01*
X100650000Y-134150000D01*
X100583333Y-134050000D01*
X100550000Y-133916667D01*
X100550000Y-133650000D01*
X100583333Y-133583333D01*
X100616666Y-133550000D01*
X100683333Y-133516667D01*
X100816666Y-133516667D01*
X100883333Y-133550000D01*
X100916666Y-133583333D01*
X100950000Y-133650000D01*
X100950000Y-133816667D01*
X100916666Y-133883333D01*
X100883333Y-133916667D01*
X100816666Y-133950000D01*
X100683333Y-133950000D01*
X100616666Y-133916667D01*
X100583333Y-133883333D01*
X100550000Y-133816667D01*
X118133333Y-107716667D02*
X118133333Y-108283333D01*
X118100000Y-108350000D01*
X118066667Y-108383333D01*
X118000000Y-108416667D01*
X117866667Y-108416667D01*
X117800000Y-108383333D01*
X117766667Y-108350000D01*
X117733333Y-108283333D01*
X117733333Y-107716667D01*
X117433334Y-107783333D02*
X117400000Y-107750000D01*
X117333334Y-107716667D01*
X117166667Y-107716667D01*
X117100000Y-107750000D01*
X117066667Y-107783333D01*
X117033334Y-107850000D01*
X117033334Y-107916667D01*
X117066667Y-108016667D01*
X117466667Y-108416667D01*
X117033334Y-108416667D01*
X106333333Y-124983333D02*
X106333333Y-125316667D01*
X106566666Y-124616667D02*
X106333333Y-124983333D01*
X106100000Y-124616667D01*
X105500000Y-125316667D02*
X105900000Y-125316667D01*
X105700000Y-125316667D02*
X105700000Y-124616667D01*
X105766666Y-124716667D01*
X105833333Y-124783333D01*
X105900000Y-124816667D01*
X111333333Y-124783333D02*
X111333333Y-125116667D01*
X111566666Y-124416667D02*
X111333333Y-124783333D01*
X111100000Y-124416667D01*
X110900000Y-124483333D02*
X110866666Y-124450000D01*
X110800000Y-124416667D01*
X110633333Y-124416667D01*
X110566666Y-124450000D01*
X110533333Y-124483333D01*
X110500000Y-124550000D01*
X110500000Y-124616667D01*
X110533333Y-124716667D01*
X110933333Y-125116667D01*
X110500000Y-125116667D01*
X105216667Y-101166667D02*
X105783333Y-101166667D01*
X105850000Y-101200000D01*
X105883333Y-101233333D01*
X105916667Y-101300000D01*
X105916667Y-101433333D01*
X105883333Y-101500000D01*
X105850000Y-101533333D01*
X105783333Y-101566667D01*
X105216667Y-101566667D01*
X105916667Y-102266666D02*
X105916667Y-101866666D01*
X105916667Y-102066666D02*
X105216667Y-102066666D01*
X105316667Y-102000000D01*
X105383333Y-101933333D01*
X105416667Y-101866666D01*
M02*
