M48
;DRILL file {KiCad 4.0.7} date 07/20/18 15:04:33
;FORMAT={-:-/ absolute / metric / decimal}
FMAT,2
METRIC,TZ
T1C0.400
T2C0.600
T3C0.650
T4C0.700
T5C0.800
%
G90
G05
M71
T1
X98.154Y-124.341
X98.965Y-124.149
X100.777Y-133.591
X100.926Y-124.43
X101.141Y-136.305
X101.155Y-137.101
X101.163Y-137.907
X101.6Y-120.2
X102.207Y-117.743
X102.841Y-127.91
X102.893Y-130.047
X102.898Y-131.005
X103.036Y-126.16
X103.8Y-99.9
X104.342Y-135.149
X104.358Y-134.331
X105.3Y-101.9
X105.3Y-120.5
X105.7Y-132.972
X106.391Y-132.343
X106.4Y-107.6
X106.898Y-121.088
X107.725Y-130.311
X107.78Y-131.713
X107.877Y-124.194
X108.819Y-133.864
X108.901Y-121.952
X108.905Y-103.436
X109.33Y-129.8
X109.55Y-133.5
X110.281Y-133.86
X110.709Y-103.399
X111.117Y-108.931
X111.999Y-124.931
X112.6Y-110.7
X113.5Y-115.6
X113.538Y-107.213
X114.735Y-128.818
X117.4Y-117.2
X117.604Y-107.605
X118.8Y-110.7
T2
X99.4Y-113.2
X99.7Y-140.3
X100.8Y-101.9
X102.5Y-108.7
X103.2Y-123.4
X109.5Y-132.1
X110.2Y-122.2
X111.Y-128.
X113.7Y-125.9
X114.8Y-136.
X116.1Y-103.2
X118.6Y-140.3
T3
X97.Y-101.68
X97.Y-102.95
X97.Y-104.22
X97.Y-105.49
X97.Y-106.76
X97.Y-108.03
X97.Y-114.38
X97.Y-115.65
X97.Y-116.92
X97.Y-118.19
X97.Y-119.46
X97.Y-120.73
X97.Y-122.
X97.Y-123.27
X97.Y-124.54
X97.Y-125.81
X97.Y-127.08
X97.Y-128.35
X97.Y-129.62
X97.Y-130.89
X97.Y-132.16
X97.Y-133.43
X97.Y-134.7
X97.Y-135.97
X97.Y-137.24
X97.Y-138.51
X121.Y-114.38
X121.Y-115.65
X121.Y-116.92
X121.Y-118.19
X121.Y-119.46
X121.Y-120.73
X121.Y-122.
X121.Y-123.27
X121.Y-124.54
X121.Y-125.81
X121.Y-127.08
X121.Y-128.35
X121.Y-129.62
X121.Y-130.89
X121.Y-132.16
X121.Y-133.43
X121.Y-134.7
X121.Y-135.97
X121.Y-137.24
X121.Y-138.51
T4
X104.9Y-115.128
X106.17Y-112.588
X107.44Y-115.128
X108.71Y-112.588
X109.98Y-115.128
X111.25Y-112.588
T5
X98.5Y-110.7
X100.5Y-110.7
X101.3Y-106.1
X103.3Y-106.1
X119.3Y-100.1
X119.3Y-102.1
T0
M30
