G04 #@! TF.FileFunction,Copper,L2,Bot,Signal*
%FSLAX46Y46*%
G04 Gerber Fmt 4.6, Leading zero omitted, Abs format (unit mm)*
G04 Created by KiCad (PCBNEW 4.0.7) date 07/20/18 15:04:26*
%MOMM*%
%LPD*%
G01*
G04 APERTURE LIST*
%ADD10C,0.100000*%
%ADD11C,0.800000*%
%ADD12R,1.000000X1.250000*%
%ADD13R,1.250000X1.000000*%
%ADD14C,1.300000*%
%ADD15R,1.300000X1.300000*%
%ADD16R,1.300000X0.700000*%
%ADD17R,0.700000X1.300000*%
%ADD18R,1.060000X0.650000*%
%ADD19R,2.000000X4.500000*%
%ADD20R,2.000000X1.000000*%
%ADD21R,1.000000X3.000000*%
%ADD22R,3.800000X2.000000*%
%ADD23R,1.500000X2.000000*%
%ADD24R,1.000000X1.000000*%
%ADD25O,1.000000X1.000000*%
%ADD26R,1.600000X1.600000*%
%ADD27C,1.600000*%
%ADD28C,0.600000*%
%ADD29C,0.250000*%
%ADD30C,0.400000*%
%ADD31C,0.254000*%
G04 APERTURE END LIST*
D10*
D11*
X113700000Y-125900000D03*
X103200000Y-123400000D03*
X116100000Y-103200000D03*
X100800000Y-101900000D03*
X102500000Y-108700000D03*
X99400000Y-113200000D03*
X118600000Y-140300000D03*
X99700000Y-140300000D03*
X114800000Y-136000000D03*
X109500000Y-132100000D03*
X111000000Y-128000000D03*
D12*
X102000000Y-129500000D03*
X100000000Y-129500000D03*
X102009843Y-131000000D03*
X100009843Y-131000000D03*
D13*
X114700000Y-101300000D03*
X114700000Y-99300000D03*
X116600000Y-101300000D03*
X116600000Y-99300000D03*
D12*
X102000000Y-127900000D03*
X100000000Y-127900000D03*
X102000000Y-126400000D03*
X100000000Y-126400000D03*
D13*
X120600000Y-106800000D03*
X120600000Y-104800000D03*
D14*
X106169583Y-112587593D03*
D15*
X104899583Y-115127593D03*
D14*
X107439583Y-115127593D03*
X108709583Y-112587593D03*
X109979583Y-115127593D03*
X111249583Y-112587593D03*
D16*
X114700000Y-104850000D03*
X114700000Y-106750000D03*
D17*
X100050000Y-132500000D03*
X101950000Y-132500000D03*
D18*
X116600000Y-106750000D03*
X116600000Y-105800000D03*
X116600000Y-104850000D03*
X118800000Y-104850000D03*
X118800000Y-106750000D03*
D19*
X106000000Y-128000000D03*
X106000000Y-136500000D03*
D20*
X110950000Y-138050000D03*
D21*
X109660000Y-127000000D03*
X112200000Y-127000000D03*
D22*
X109700000Y-105650000D03*
D23*
X109700000Y-99350000D03*
X112000000Y-99350000D03*
X107400000Y-99350000D03*
D24*
X97000000Y-101680000D03*
D25*
X97000000Y-102950000D03*
X97000000Y-104220000D03*
X97000000Y-105490000D03*
X97000000Y-106760000D03*
X97000000Y-108030000D03*
D24*
X97000000Y-114380000D03*
D25*
X97000000Y-115650000D03*
X97000000Y-116920000D03*
X97000000Y-118190000D03*
X97000000Y-119460000D03*
X97000000Y-120730000D03*
X97000000Y-122000000D03*
X97000000Y-123270000D03*
X97000000Y-124540000D03*
X97000000Y-125810000D03*
X97000000Y-127080000D03*
X97000000Y-128350000D03*
X97000000Y-129620000D03*
X97000000Y-130890000D03*
X97000000Y-132160000D03*
X97000000Y-133430000D03*
X97000000Y-134700000D03*
X97000000Y-135970000D03*
X97000000Y-137240000D03*
X97000000Y-138510000D03*
D24*
X121000000Y-114380000D03*
D25*
X121000000Y-115650000D03*
X121000000Y-116920000D03*
X121000000Y-118190000D03*
X121000000Y-119460000D03*
X121000000Y-120730000D03*
X121000000Y-122000000D03*
X121000000Y-123270000D03*
X121000000Y-124540000D03*
X121000000Y-125810000D03*
X121000000Y-127080000D03*
X121000000Y-128350000D03*
X121000000Y-129620000D03*
X121000000Y-130890000D03*
X121000000Y-132160000D03*
X121000000Y-133430000D03*
X121000000Y-134700000D03*
X121000000Y-135970000D03*
X121000000Y-137240000D03*
X121000000Y-138510000D03*
D26*
X103300000Y-106100000D03*
D27*
X101300000Y-106100000D03*
D26*
X100500000Y-110700000D03*
D27*
X98500000Y-110700000D03*
D26*
X119300000Y-102100000D03*
D27*
X119300000Y-100100000D03*
D11*
X110200000Y-122200000D03*
D28*
X107876538Y-124193793D03*
X108901432Y-121951815D03*
X111117438Y-108930764D03*
X107724871Y-130311388D03*
X113500000Y-115600000D03*
X102893187Y-130046522D03*
X102897830Y-131005321D03*
X105300000Y-101900000D03*
X113537659Y-107213003D03*
X112600000Y-110700000D03*
X118800000Y-110700000D03*
X107779587Y-131713467D03*
X102841316Y-127909911D03*
X103035764Y-126160408D03*
X114735347Y-128817524D03*
X105300000Y-120500000D03*
X106898112Y-121088419D03*
X111998808Y-124931008D03*
X101141068Y-136304764D03*
X108818896Y-133864347D03*
X98154333Y-124340997D03*
X104341796Y-135148730D03*
X101155036Y-137100798D03*
X109550000Y-133500000D03*
X101162874Y-137907197D03*
X110281128Y-133859929D03*
X117603657Y-107604603D03*
X109329914Y-129800000D03*
X106400000Y-107600000D03*
X110709406Y-103398955D03*
X108905011Y-103435779D03*
X102207095Y-117742799D03*
X101600000Y-120200000D03*
X117400000Y-117200000D03*
X105700406Y-132971919D03*
X100926447Y-124429539D03*
X106391187Y-132342693D03*
X100777381Y-133590558D03*
X98964882Y-124148627D03*
X104357891Y-134331239D03*
X103800000Y-99900000D03*
D29*
X107876538Y-124193793D02*
X107885055Y-124193793D01*
X107885055Y-124193793D02*
X108901432Y-123177416D01*
X108901432Y-123177416D02*
X108901432Y-121951815D01*
X107724871Y-130311388D02*
X107879288Y-130465805D01*
X116112055Y-129409931D02*
X116112055Y-116715953D01*
X116112055Y-116715953D02*
X114996102Y-115600000D01*
X114996102Y-115600000D02*
X113500000Y-115600000D01*
X107879288Y-130465805D02*
X115056181Y-130465805D01*
X115056181Y-130465805D02*
X116112055Y-129409931D01*
X111117438Y-108930764D02*
X112207935Y-108930764D01*
X112207935Y-108930764D02*
X113500000Y-110222829D01*
X113500000Y-110222829D02*
X113500000Y-115600000D01*
X102893187Y-130046522D02*
X102893187Y-130021303D01*
X102893187Y-130021303D02*
X104914490Y-128000000D01*
X104914490Y-128000000D02*
X106000000Y-128000000D01*
X102893187Y-130046522D02*
X102893187Y-129791109D01*
X102893187Y-129791109D02*
X102602078Y-129500000D01*
X102602078Y-129500000D02*
X102000000Y-129500000D01*
X101000000Y-129900000D02*
X101400000Y-129500000D01*
X101400000Y-129500000D02*
X102000000Y-129500000D01*
X101000000Y-132100000D02*
X101000000Y-129900000D01*
X100600000Y-132500000D02*
X101000000Y-132100000D01*
X100050000Y-132500000D02*
X100600000Y-132500000D01*
X102897830Y-131005321D02*
X106588109Y-131005321D01*
X106588109Y-131005321D02*
X107105515Y-131522727D01*
X107105515Y-131522727D02*
X107105515Y-133085159D01*
X107105515Y-133085159D02*
X106000000Y-134190674D01*
X106000000Y-134190674D02*
X106000000Y-136500000D01*
X102897830Y-131005321D02*
X102892509Y-131000000D01*
X102892509Y-131000000D02*
X102009843Y-131000000D01*
X102009843Y-131000000D02*
X102009843Y-132440157D01*
X102009843Y-132440157D02*
X101950000Y-132500000D01*
D30*
X105300000Y-101900000D02*
X104645826Y-102554174D01*
X104645826Y-102554174D02*
X104645826Y-108992034D01*
X104645826Y-108992034D02*
X103455765Y-110182095D01*
X103455765Y-110182095D02*
X101017905Y-110182095D01*
X101017905Y-110182095D02*
X100500000Y-110700000D01*
X113537659Y-107213003D02*
X113537659Y-106898208D01*
X113537659Y-106898208D02*
X113685867Y-106750000D01*
X113685867Y-106750000D02*
X114700000Y-106750000D01*
X112600000Y-110700000D02*
X104700000Y-110700000D01*
X104700000Y-110700000D02*
X101900000Y-110700000D01*
X100500000Y-110700000D02*
X100500000Y-107800000D01*
X100500000Y-107800000D02*
X98617826Y-105917826D01*
X98617826Y-105917826D02*
X98617826Y-103417826D01*
X98617826Y-103417826D02*
X98150000Y-102950000D01*
X98150000Y-102950000D02*
X97000000Y-102950000D01*
X114700000Y-101300000D02*
X114100000Y-101300000D01*
X114100000Y-101300000D02*
X113500000Y-101900000D01*
X113500000Y-101900000D02*
X105300000Y-101900000D01*
X100500000Y-110700000D02*
X101900000Y-110700000D01*
X112000000Y-100600000D02*
X112700000Y-101300000D01*
X112700000Y-101300000D02*
X114700000Y-101300000D01*
X112000000Y-99350000D02*
X112000000Y-100600000D01*
X114700000Y-106750000D02*
X116600000Y-106750000D01*
D29*
X107779587Y-131713467D02*
X108543216Y-130949838D01*
X108543216Y-130949838D02*
X115227330Y-130949838D01*
X115227330Y-130949838D02*
X116650683Y-129526485D01*
X116650683Y-129526485D02*
X116650683Y-112849317D01*
X116650683Y-112849317D02*
X118800000Y-110700000D01*
X108000000Y-125300000D02*
X108700000Y-126000000D01*
X102841316Y-127909911D02*
X102910317Y-127909911D01*
X111695408Y-129104592D02*
X112200000Y-128600000D01*
X102910317Y-127909911D02*
X104430362Y-126389866D01*
X104430362Y-126389866D02*
X104430362Y-125785661D01*
X102831405Y-127900000D02*
X102000000Y-127900000D01*
X104430362Y-125785661D02*
X104916023Y-125300000D01*
X108700000Y-126000000D02*
X108700000Y-128600000D01*
X104916023Y-125300000D02*
X108000000Y-125300000D01*
X108700000Y-128600000D02*
X109204592Y-129104592D01*
X102841316Y-127909911D02*
X102831405Y-127900000D01*
X109204592Y-129104592D02*
X111695408Y-129104592D01*
X112200000Y-128600000D02*
X112200000Y-127000000D01*
X103039589Y-126168252D02*
X103048976Y-126168252D01*
X103048976Y-126168252D02*
X104373648Y-124843580D01*
X104373648Y-124843580D02*
X109159549Y-124843580D01*
X109660000Y-125344031D02*
X109660000Y-127000000D01*
X109159549Y-124843580D02*
X109660000Y-125344031D01*
X102000000Y-126400000D02*
X102796172Y-126400000D01*
X102796172Y-126400000D02*
X103035764Y-126160408D01*
X114735347Y-128817524D02*
X114747647Y-128805224D01*
X114747647Y-128805224D02*
X114747647Y-121374090D01*
X114747647Y-121374090D02*
X113106921Y-119733364D01*
X113106921Y-119733364D02*
X106066636Y-119733364D01*
X106066636Y-119733364D02*
X105300000Y-120500000D01*
X106898112Y-121088419D02*
X111188419Y-121088419D01*
X112003422Y-121903422D02*
X112003422Y-124926394D01*
X111188419Y-121088419D02*
X112003422Y-121903422D01*
X112003422Y-124926394D02*
X111998808Y-124931008D01*
X101141068Y-136304764D02*
X101279180Y-136304764D01*
X101279180Y-136304764D02*
X104198841Y-139224425D01*
X104198841Y-139224425D02*
X107732321Y-139224425D01*
X107732321Y-139224425D02*
X108075659Y-138881087D01*
X108075659Y-138881087D02*
X108075659Y-134626471D01*
X108075659Y-134626471D02*
X108818896Y-133883234D01*
X108818896Y-133883234D02*
X108818896Y-133864347D01*
X98154333Y-124340997D02*
X98149752Y-124340997D01*
X98056002Y-133831650D02*
X99373082Y-135148730D01*
X98149752Y-124340997D02*
X98056002Y-124434747D01*
X98056002Y-124434747D02*
X98056002Y-133831650D01*
X99373082Y-135148730D02*
X104341796Y-135148730D01*
X101155036Y-137100798D02*
X101269264Y-137100798D01*
X101269264Y-137100798D02*
X103883788Y-139715322D01*
X103883788Y-139715322D02*
X107908693Y-139715322D01*
X107908693Y-139715322D02*
X108528887Y-139095128D01*
X108528887Y-139095128D02*
X108528887Y-135101322D01*
X108528887Y-135101322D02*
X109550000Y-134080209D01*
X109550000Y-134080209D02*
X109550000Y-133500000D01*
X101162874Y-137907197D02*
X101162874Y-137922471D01*
X101162874Y-137922471D02*
X103418165Y-140177762D01*
X103418165Y-140177762D02*
X108093897Y-140177762D01*
X109036071Y-135316821D02*
X110281128Y-134071764D01*
X108093897Y-140177762D02*
X109036071Y-139235588D01*
X109036071Y-139235588D02*
X109036071Y-135316821D01*
X110281128Y-134071764D02*
X110281128Y-133859929D01*
D30*
X109329914Y-129800000D02*
X114800000Y-129800000D01*
X114800000Y-129800000D02*
X115500000Y-129100000D01*
X115500000Y-129100000D02*
X115500000Y-117569614D01*
X115500000Y-117569614D02*
X114716519Y-116786133D01*
X114716519Y-116786133D02*
X110725773Y-116786133D01*
X110725773Y-116786133D02*
X109979583Y-116039943D01*
X109979583Y-116039943D02*
X109979583Y-115127593D01*
X117603657Y-107604603D02*
X118328731Y-107604603D01*
X118328731Y-107604603D02*
X118800000Y-107133334D01*
X118800000Y-107133334D02*
X118800000Y-106750000D01*
X117603657Y-107604603D02*
X117274909Y-107933351D01*
X117274909Y-107933351D02*
X113124742Y-107933351D01*
X113124742Y-107933351D02*
X112785815Y-107594424D01*
X112785815Y-107594424D02*
X106405576Y-107594424D01*
X106405576Y-107594424D02*
X106400000Y-107600000D01*
X122000000Y-103000000D02*
X121100000Y-102100000D01*
X121100000Y-102100000D02*
X119300000Y-102100000D01*
X122000000Y-106200000D02*
X122000000Y-103000000D01*
X121400000Y-106800000D02*
X122000000Y-106200000D01*
X120600000Y-106800000D02*
X121400000Y-106800000D01*
X118800000Y-106750000D02*
X120550000Y-106750000D01*
X120550000Y-106750000D02*
X120600000Y-106800000D01*
D29*
X116600000Y-102100000D02*
X118800000Y-104300000D01*
X118800000Y-104300000D02*
X118800000Y-104850000D01*
X116600000Y-101300000D02*
X116600000Y-102100000D01*
X110709406Y-103398955D02*
X110672582Y-103435779D01*
X110672582Y-103435779D02*
X108905011Y-103435779D01*
X102207095Y-117742799D02*
X101600000Y-118349894D01*
X101600000Y-118349894D02*
X101600000Y-120200000D01*
X121000000Y-118190000D02*
X118390000Y-118190000D01*
X118390000Y-118190000D02*
X117400000Y-117200000D01*
X114700000Y-104850000D02*
X116600000Y-104850000D01*
X105700406Y-132971919D02*
X104428081Y-132971919D01*
X99087665Y-133330989D02*
X99087665Y-125244567D01*
X104428081Y-132971919D02*
X103162508Y-134237492D01*
X103162508Y-134237492D02*
X99994168Y-134237492D01*
X99994168Y-134237492D02*
X99087665Y-133330989D01*
X99087665Y-125244567D02*
X99896312Y-124435920D01*
X99896312Y-124435920D02*
X100920066Y-124435920D01*
X100920066Y-124435920D02*
X100926447Y-124429539D01*
X106391187Y-132342693D02*
X104357307Y-132342693D01*
X100786823Y-133600000D02*
X100777381Y-133590558D01*
X104357307Y-132342693D02*
X103100000Y-133600000D01*
X103100000Y-133600000D02*
X100786823Y-133600000D01*
X98964882Y-124148627D02*
X98964882Y-124699803D01*
X98964882Y-124699803D02*
X98571834Y-125092851D01*
X98571834Y-133588907D02*
X99678608Y-134695681D01*
X98571834Y-125092851D02*
X98571834Y-133588907D01*
X99678608Y-134695681D02*
X103504319Y-134695681D01*
X103504319Y-134695681D02*
X103868761Y-134331239D01*
X103868761Y-134331239D02*
X104357891Y-134331239D01*
D30*
X104038981Y-100696706D02*
X103627777Y-101107910D01*
X103627777Y-101107910D02*
X103627777Y-105772223D01*
X103627777Y-105772223D02*
X103300000Y-106100000D01*
X104038981Y-100696706D02*
X105385687Y-99350000D01*
X105385687Y-99350000D02*
X107400000Y-99350000D01*
D29*
X103800000Y-99900000D02*
X103782569Y-99900000D01*
D30*
X103085015Y-100597554D02*
X103085015Y-105946205D01*
X103782569Y-99900000D02*
X103085015Y-100597554D01*
X103085015Y-105946205D02*
X103289163Y-106150353D01*
D31*
G36*
X122544000Y-102813989D02*
X122536774Y-102777661D01*
X122410829Y-102589171D01*
X121510829Y-101689171D01*
X121322339Y-101563226D01*
X121100000Y-101519000D01*
X120488464Y-101519000D01*
X120488464Y-101300000D01*
X120461897Y-101158810D01*
X120378454Y-101029135D01*
X120251134Y-100942141D01*
X120173058Y-100926330D01*
X120239498Y-100859890D01*
X120168746Y-100789138D01*
X120343383Y-100701082D01*
X120493984Y-100256041D01*
X120462812Y-99787245D01*
X120343383Y-99498918D01*
X120168744Y-99410861D01*
X119479605Y-100100000D01*
X119493748Y-100114143D01*
X119314143Y-100293748D01*
X119300000Y-100279605D01*
X119285858Y-100293748D01*
X119106253Y-100114143D01*
X119120395Y-100100000D01*
X118431256Y-99410861D01*
X118256617Y-99498918D01*
X118106016Y-99943959D01*
X118137188Y-100412755D01*
X118256617Y-100701082D01*
X118431254Y-100789138D01*
X118360502Y-100859890D01*
X118426061Y-100925449D01*
X118358810Y-100938103D01*
X118229135Y-101021546D01*
X118142141Y-101148866D01*
X118111536Y-101300000D01*
X118111536Y-102895944D01*
X117373065Y-102157473D01*
X117495865Y-102078454D01*
X117582859Y-101951134D01*
X117613464Y-101800000D01*
X117613464Y-100800000D01*
X117586897Y-100658810D01*
X117503454Y-100529135D01*
X117376134Y-100442141D01*
X117225000Y-100411536D01*
X115975000Y-100411536D01*
X115833810Y-100438103D01*
X115704135Y-100521546D01*
X115649770Y-100601112D01*
X115603454Y-100529135D01*
X115476134Y-100442141D01*
X115325000Y-100411536D01*
X114075000Y-100411536D01*
X113933810Y-100438103D01*
X113804135Y-100521546D01*
X113717141Y-100648866D01*
X113702939Y-100719000D01*
X112940658Y-100719000D01*
X112916968Y-100695310D01*
X113020865Y-100628454D01*
X113107859Y-100501134D01*
X113138464Y-100350000D01*
X113138464Y-99522250D01*
X113694000Y-99522250D01*
X113694000Y-99875786D01*
X113752004Y-100015820D01*
X113859181Y-100122996D01*
X113999215Y-100181000D01*
X114477750Y-100181000D01*
X114573000Y-100085750D01*
X114573000Y-99427000D01*
X114827000Y-99427000D01*
X114827000Y-100085750D01*
X114922250Y-100181000D01*
X115400785Y-100181000D01*
X115540819Y-100122996D01*
X115647996Y-100015820D01*
X115650000Y-100010982D01*
X115652004Y-100015820D01*
X115759181Y-100122996D01*
X115899215Y-100181000D01*
X116377750Y-100181000D01*
X116473000Y-100085750D01*
X116473000Y-99427000D01*
X116727000Y-99427000D01*
X116727000Y-100085750D01*
X116822250Y-100181000D01*
X117300785Y-100181000D01*
X117440819Y-100122996D01*
X117547996Y-100015820D01*
X117606000Y-99875786D01*
X117606000Y-99522250D01*
X117510750Y-99427000D01*
X116727000Y-99427000D01*
X116473000Y-99427000D01*
X115689250Y-99427000D01*
X115650000Y-99466250D01*
X115610750Y-99427000D01*
X114827000Y-99427000D01*
X114573000Y-99427000D01*
X113789250Y-99427000D01*
X113694000Y-99522250D01*
X113138464Y-99522250D01*
X113138464Y-99231256D01*
X118610861Y-99231256D01*
X119300000Y-99920395D01*
X119989139Y-99231256D01*
X119901082Y-99056617D01*
X119456041Y-98906016D01*
X118987245Y-98937188D01*
X118698918Y-99056617D01*
X118610861Y-99231256D01*
X113138464Y-99231256D01*
X113138464Y-98724214D01*
X113694000Y-98724214D01*
X113694000Y-99077750D01*
X113789250Y-99173000D01*
X114573000Y-99173000D01*
X114573000Y-98514250D01*
X114827000Y-98514250D01*
X114827000Y-99173000D01*
X115610750Y-99173000D01*
X115650000Y-99133750D01*
X115689250Y-99173000D01*
X116473000Y-99173000D01*
X116473000Y-98514250D01*
X116727000Y-98514250D01*
X116727000Y-99173000D01*
X117510750Y-99173000D01*
X117606000Y-99077750D01*
X117606000Y-98724214D01*
X117547996Y-98584180D01*
X117440819Y-98477004D01*
X117300785Y-98419000D01*
X116822250Y-98419000D01*
X116727000Y-98514250D01*
X116473000Y-98514250D01*
X116377750Y-98419000D01*
X115899215Y-98419000D01*
X115759181Y-98477004D01*
X115652004Y-98584180D01*
X115650000Y-98589018D01*
X115647996Y-98584180D01*
X115540819Y-98477004D01*
X115400785Y-98419000D01*
X114922250Y-98419000D01*
X114827000Y-98514250D01*
X114573000Y-98514250D01*
X114477750Y-98419000D01*
X113999215Y-98419000D01*
X113859181Y-98477004D01*
X113752004Y-98584180D01*
X113694000Y-98724214D01*
X113138464Y-98724214D01*
X113138464Y-98350000D01*
X113111897Y-98208810D01*
X113028454Y-98079135D01*
X112901134Y-97992141D01*
X112750000Y-97961536D01*
X111250000Y-97961536D01*
X111108810Y-97988103D01*
X110979135Y-98071546D01*
X110892141Y-98198866D01*
X110861536Y-98350000D01*
X110861536Y-100350000D01*
X110888103Y-100491190D01*
X110971546Y-100620865D01*
X111098866Y-100707859D01*
X111250000Y-100738464D01*
X111446542Y-100738464D01*
X111463226Y-100822339D01*
X111589171Y-101010829D01*
X111897342Y-101319000D01*
X105676595Y-101319000D01*
X105436054Y-101219118D01*
X105165135Y-101218882D01*
X104914748Y-101322339D01*
X104723013Y-101513741D01*
X104622471Y-101755871D01*
X104234997Y-102143345D01*
X104208777Y-102182586D01*
X104208777Y-101348568D01*
X105626345Y-99931000D01*
X106261536Y-99931000D01*
X106261536Y-100350000D01*
X106288103Y-100491190D01*
X106371546Y-100620865D01*
X106498866Y-100707859D01*
X106650000Y-100738464D01*
X108150000Y-100738464D01*
X108291190Y-100711897D01*
X108420865Y-100628454D01*
X108507859Y-100501134D01*
X108538464Y-100350000D01*
X108538464Y-99572250D01*
X108569000Y-99572250D01*
X108569000Y-100425786D01*
X108627004Y-100565820D01*
X108734181Y-100672996D01*
X108874215Y-100731000D01*
X109477750Y-100731000D01*
X109573000Y-100635750D01*
X109573000Y-99477000D01*
X109827000Y-99477000D01*
X109827000Y-100635750D01*
X109922250Y-100731000D01*
X110525785Y-100731000D01*
X110665819Y-100672996D01*
X110772996Y-100565820D01*
X110831000Y-100425786D01*
X110831000Y-99572250D01*
X110735750Y-99477000D01*
X109827000Y-99477000D01*
X109573000Y-99477000D01*
X108664250Y-99477000D01*
X108569000Y-99572250D01*
X108538464Y-99572250D01*
X108538464Y-98350000D01*
X108524204Y-98274214D01*
X108569000Y-98274214D01*
X108569000Y-99127750D01*
X108664250Y-99223000D01*
X109573000Y-99223000D01*
X109573000Y-98064250D01*
X109827000Y-98064250D01*
X109827000Y-99223000D01*
X110735750Y-99223000D01*
X110831000Y-99127750D01*
X110831000Y-98274214D01*
X110772996Y-98134180D01*
X110665819Y-98027004D01*
X110525785Y-97969000D01*
X109922250Y-97969000D01*
X109827000Y-98064250D01*
X109573000Y-98064250D01*
X109477750Y-97969000D01*
X108874215Y-97969000D01*
X108734181Y-98027004D01*
X108627004Y-98134180D01*
X108569000Y-98274214D01*
X108524204Y-98274214D01*
X108511897Y-98208810D01*
X108428454Y-98079135D01*
X108301134Y-97992141D01*
X108150000Y-97961536D01*
X106650000Y-97961536D01*
X106508810Y-97988103D01*
X106379135Y-98071546D01*
X106292141Y-98198866D01*
X106261536Y-98350000D01*
X106261536Y-98769000D01*
X105385687Y-98769000D01*
X105163348Y-98813226D01*
X104974858Y-98939171D01*
X104383982Y-99530047D01*
X104377661Y-99514748D01*
X104186259Y-99323013D01*
X103936054Y-99219118D01*
X103665135Y-99218882D01*
X103414748Y-99322339D01*
X103223013Y-99513741D01*
X103134849Y-99726062D01*
X102674186Y-100186725D01*
X102548241Y-100375215D01*
X102504015Y-100597554D01*
X102504015Y-104911536D01*
X102500000Y-104911536D01*
X102358810Y-104938103D01*
X102229135Y-105021546D01*
X102142141Y-105148866D01*
X102126330Y-105226942D01*
X102059890Y-105160502D01*
X101989138Y-105231254D01*
X101901082Y-105056617D01*
X101456041Y-104906016D01*
X100987245Y-104937188D01*
X100698918Y-105056617D01*
X100610861Y-105231256D01*
X101300000Y-105920395D01*
X101314143Y-105906253D01*
X101493748Y-106085858D01*
X101479605Y-106100000D01*
X101493748Y-106114143D01*
X101314143Y-106293748D01*
X101300000Y-106279605D01*
X101285858Y-106293748D01*
X101106253Y-106114143D01*
X101120395Y-106100000D01*
X100431256Y-105410861D01*
X100256617Y-105498918D01*
X100106016Y-105943959D01*
X100137188Y-106412755D01*
X100256617Y-106701082D01*
X100431254Y-106789138D01*
X100371025Y-106849367D01*
X99198826Y-105677168D01*
X99198826Y-103417826D01*
X99154600Y-103195487D01*
X99028655Y-103006997D01*
X98560829Y-102539171D01*
X98372339Y-102413226D01*
X98150000Y-102369000D01*
X97831986Y-102369000D01*
X97857859Y-102331134D01*
X97888464Y-102180000D01*
X97888464Y-101180000D01*
X97861897Y-101038810D01*
X97778454Y-100909135D01*
X97651134Y-100822141D01*
X97500000Y-100791536D01*
X96500000Y-100791536D01*
X96358810Y-100818103D01*
X96229135Y-100901546D01*
X96142141Y-101028866D01*
X96111536Y-101180000D01*
X96111536Y-102180000D01*
X96138103Y-102321190D01*
X96221546Y-102450865D01*
X96259646Y-102476898D01*
X96168802Y-102612856D01*
X96101740Y-102950000D01*
X96168802Y-103287144D01*
X96359779Y-103572961D01*
X96377797Y-103585000D01*
X96359779Y-103597039D01*
X96168802Y-103882856D01*
X96101740Y-104220000D01*
X96168802Y-104557144D01*
X96359779Y-104842961D01*
X96393665Y-104865603D01*
X96220039Y-105080305D01*
X96158802Y-105228184D01*
X96224581Y-105363000D01*
X96873000Y-105363000D01*
X96873000Y-105343000D01*
X97127000Y-105343000D01*
X97127000Y-105363000D01*
X97775419Y-105363000D01*
X97841198Y-105228184D01*
X97779961Y-105080305D01*
X97606335Y-104865603D01*
X97640221Y-104842961D01*
X97831198Y-104557144D01*
X97898260Y-104220000D01*
X97831198Y-103882856D01*
X97640221Y-103597039D01*
X97622203Y-103585000D01*
X97640221Y-103572961D01*
X97668258Y-103531000D01*
X97909342Y-103531000D01*
X98036826Y-103658484D01*
X98036826Y-105917826D01*
X98081052Y-106140165D01*
X98206997Y-106328655D01*
X99919000Y-108040658D01*
X99919000Y-109511536D01*
X99700000Y-109511536D01*
X99558810Y-109538103D01*
X99429135Y-109621546D01*
X99342141Y-109748866D01*
X99326330Y-109826942D01*
X99259890Y-109760502D01*
X99189138Y-109831254D01*
X99101082Y-109656617D01*
X98656041Y-109506016D01*
X98187245Y-109537188D01*
X97898918Y-109656617D01*
X97810861Y-109831256D01*
X98500000Y-110520395D01*
X98514143Y-110506253D01*
X98693748Y-110685858D01*
X98679605Y-110700000D01*
X98693748Y-110714143D01*
X98514143Y-110893748D01*
X98500000Y-110879605D01*
X97810861Y-111568744D01*
X97898918Y-111743383D01*
X98343959Y-111893984D01*
X98812755Y-111862812D01*
X99101082Y-111743383D01*
X99189138Y-111568746D01*
X99259890Y-111639498D01*
X99325449Y-111573939D01*
X99338103Y-111641190D01*
X99421546Y-111770865D01*
X99548866Y-111857859D01*
X99700000Y-111888464D01*
X101300000Y-111888464D01*
X101441190Y-111861897D01*
X101494139Y-111827825D01*
X105589420Y-111827825D01*
X106169583Y-112407988D01*
X106749746Y-111827825D01*
X106680191Y-111668737D01*
X106289693Y-111543279D01*
X105880909Y-111576809D01*
X105658975Y-111668737D01*
X105589420Y-111827825D01*
X101494139Y-111827825D01*
X101570865Y-111778454D01*
X101657859Y-111651134D01*
X101688464Y-111500000D01*
X101688464Y-111281000D01*
X112223405Y-111281000D01*
X112463946Y-111380882D01*
X112734865Y-111381118D01*
X112985252Y-111277661D01*
X112994000Y-111268928D01*
X112994000Y-115142877D01*
X112923013Y-115213741D01*
X112819118Y-115463946D01*
X112818882Y-115734865D01*
X112922339Y-115985252D01*
X113113741Y-116176987D01*
X113181524Y-116205133D01*
X110966431Y-116205133D01*
X110663224Y-115901926D01*
X110853112Y-115712370D01*
X111010403Y-115333571D01*
X111010761Y-114923414D01*
X110854132Y-114544342D01*
X110564360Y-114254064D01*
X110185561Y-114096773D01*
X109775404Y-114096415D01*
X109396332Y-114253044D01*
X109106054Y-114542816D01*
X108948763Y-114921615D01*
X108948405Y-115331772D01*
X109105034Y-115710844D01*
X109394806Y-116001122D01*
X109398583Y-116002690D01*
X109398583Y-116039943D01*
X109442809Y-116262282D01*
X109568754Y-116450772D01*
X110314944Y-117196962D01*
X110503434Y-117322907D01*
X110725773Y-117367133D01*
X114475861Y-117367133D01*
X114919000Y-117810272D01*
X114919000Y-120829851D01*
X113464717Y-119375568D01*
X113300559Y-119265881D01*
X113106921Y-119227364D01*
X106066636Y-119227364D01*
X105872998Y-119265881D01*
X105708840Y-119375568D01*
X105265439Y-119818969D01*
X105165135Y-119818882D01*
X104914748Y-119922339D01*
X104723013Y-120113741D01*
X104619118Y-120363946D01*
X104618882Y-120634865D01*
X104722339Y-120885252D01*
X104913741Y-121076987D01*
X105163946Y-121180882D01*
X105434865Y-121181118D01*
X105685252Y-121077661D01*
X105876987Y-120886259D01*
X105980882Y-120636054D01*
X105980970Y-120534622D01*
X106276228Y-120239364D01*
X112897329Y-120239364D01*
X114241647Y-121583682D01*
X114241647Y-128348123D01*
X114158360Y-128431265D01*
X114054465Y-128681470D01*
X114054229Y-128952389D01*
X114157686Y-129202776D01*
X114173882Y-129219000D01*
X112296592Y-129219000D01*
X112557796Y-128957796D01*
X112604122Y-128888464D01*
X112700000Y-128888464D01*
X112841190Y-128861897D01*
X112970865Y-128778454D01*
X113057859Y-128651134D01*
X113088464Y-128500000D01*
X113088464Y-125500000D01*
X113061897Y-125358810D01*
X112978454Y-125229135D01*
X112851134Y-125142141D01*
X112700000Y-125111536D01*
X112661223Y-125111536D01*
X112679690Y-125067062D01*
X112679926Y-124796143D01*
X112576469Y-124545756D01*
X112509422Y-124478592D01*
X112509422Y-121903422D01*
X112470905Y-121709784D01*
X112361218Y-121545626D01*
X111546215Y-120730623D01*
X111382057Y-120620936D01*
X111188419Y-120582419D01*
X107355235Y-120582419D01*
X107284371Y-120511432D01*
X107034166Y-120407537D01*
X106763247Y-120407301D01*
X106512860Y-120510758D01*
X106321125Y-120702160D01*
X106217230Y-120952365D01*
X106216994Y-121223284D01*
X106320451Y-121473671D01*
X106511853Y-121665406D01*
X106762058Y-121769301D01*
X107032977Y-121769537D01*
X107283364Y-121666080D01*
X107355150Y-121594419D01*
X108312460Y-121594419D01*
X108220550Y-121815761D01*
X108220314Y-122086680D01*
X108323771Y-122337067D01*
X108395432Y-122408853D01*
X108395432Y-122967824D01*
X107850486Y-123512770D01*
X107741673Y-123512675D01*
X107491286Y-123616132D01*
X107299551Y-123807534D01*
X107195656Y-124057739D01*
X107195420Y-124328658D01*
X107199106Y-124337580D01*
X104373648Y-124337580D01*
X104180010Y-124376097D01*
X104015852Y-124485784D01*
X103022240Y-125479396D01*
X102900899Y-125479290D01*
X102791542Y-125524475D01*
X102778454Y-125504135D01*
X102651134Y-125417141D01*
X102500000Y-125386536D01*
X101500000Y-125386536D01*
X101358810Y-125413103D01*
X101229135Y-125496546D01*
X101142141Y-125623866D01*
X101111536Y-125775000D01*
X101111536Y-127025000D01*
X101135920Y-127154588D01*
X101111536Y-127275000D01*
X101111536Y-128525000D01*
X101138103Y-128666190D01*
X101159175Y-128698936D01*
X101142141Y-128723866D01*
X101111536Y-128875000D01*
X101111536Y-129095878D01*
X101042204Y-129142204D01*
X100811410Y-129372998D01*
X100785752Y-129372998D01*
X100881000Y-129277750D01*
X100881000Y-128799215D01*
X100839904Y-128700000D01*
X100881000Y-128600785D01*
X100881000Y-128122250D01*
X100785750Y-128027000D01*
X100127000Y-128027000D01*
X100127000Y-129373000D01*
X100147000Y-129373000D01*
X100147000Y-129627000D01*
X100127000Y-129627000D01*
X100127000Y-130410750D01*
X100136843Y-130420593D01*
X100136843Y-130873000D01*
X100156843Y-130873000D01*
X100156843Y-131127000D01*
X100136843Y-131127000D01*
X100136843Y-131147000D01*
X99882843Y-131147000D01*
X99882843Y-131127000D01*
X99862843Y-131127000D01*
X99862843Y-130873000D01*
X99882843Y-130873000D01*
X99882843Y-130089250D01*
X99873000Y-130079407D01*
X99873000Y-129627000D01*
X99853000Y-129627000D01*
X99853000Y-129373000D01*
X99873000Y-129373000D01*
X99873000Y-128027000D01*
X99853000Y-128027000D01*
X99853000Y-127773000D01*
X99873000Y-127773000D01*
X99873000Y-126527000D01*
X100127000Y-126527000D01*
X100127000Y-127773000D01*
X100785750Y-127773000D01*
X100881000Y-127677750D01*
X100881000Y-127199215D01*
X100860614Y-127150000D01*
X100881000Y-127100785D01*
X100881000Y-126622250D01*
X100785750Y-126527000D01*
X100127000Y-126527000D01*
X99873000Y-126527000D01*
X99853000Y-126527000D01*
X99853000Y-126273000D01*
X99873000Y-126273000D01*
X99873000Y-125489250D01*
X100127000Y-125489250D01*
X100127000Y-126273000D01*
X100785750Y-126273000D01*
X100881000Y-126177750D01*
X100881000Y-125699215D01*
X100822996Y-125559181D01*
X100715820Y-125452004D01*
X100575786Y-125394000D01*
X100222250Y-125394000D01*
X100127000Y-125489250D01*
X99873000Y-125489250D01*
X99777750Y-125394000D01*
X99653824Y-125394000D01*
X100105904Y-124941920D01*
X100475694Y-124941920D01*
X100540188Y-125006526D01*
X100790393Y-125110421D01*
X101061312Y-125110657D01*
X101311699Y-125007200D01*
X101503434Y-124815798D01*
X101607329Y-124565593D01*
X101607565Y-124294674D01*
X101504108Y-124044287D01*
X101312706Y-123852552D01*
X101062501Y-123748657D01*
X100791582Y-123748421D01*
X100541195Y-123851878D01*
X100463017Y-123929920D01*
X99896312Y-123929920D01*
X99702674Y-123968437D01*
X99643586Y-124007919D01*
X99542543Y-123763375D01*
X99351141Y-123571640D01*
X99100936Y-123467745D01*
X98830017Y-123467509D01*
X98579630Y-123570966D01*
X98431591Y-123718748D01*
X98290387Y-123660115D01*
X98019468Y-123659879D01*
X97769081Y-123763336D01*
X97642205Y-123889991D01*
X97831198Y-123607144D01*
X97898260Y-123270000D01*
X97831198Y-122932856D01*
X97640221Y-122647039D01*
X97622203Y-122635000D01*
X97640221Y-122622961D01*
X97831198Y-122337144D01*
X97898260Y-122000000D01*
X97831198Y-121662856D01*
X97640221Y-121377039D01*
X97622203Y-121365000D01*
X97640221Y-121352961D01*
X97831198Y-121067144D01*
X97898260Y-120730000D01*
X97831198Y-120392856D01*
X97792450Y-120334865D01*
X100918882Y-120334865D01*
X101022339Y-120585252D01*
X101213741Y-120776987D01*
X101463946Y-120880882D01*
X101734865Y-120881118D01*
X101985252Y-120777661D01*
X102176987Y-120586259D01*
X102280882Y-120336054D01*
X102281118Y-120065135D01*
X102177661Y-119814748D01*
X102106000Y-119742962D01*
X102106000Y-118559486D01*
X102241656Y-118423830D01*
X102341960Y-118423917D01*
X102592347Y-118320460D01*
X102784082Y-118129058D01*
X102887977Y-117878853D01*
X102888213Y-117607934D01*
X102784756Y-117357547D01*
X102593354Y-117165812D01*
X102343149Y-117061917D01*
X102072230Y-117061681D01*
X101821843Y-117165138D01*
X101630108Y-117356540D01*
X101526213Y-117606745D01*
X101526125Y-117708177D01*
X101242204Y-117992098D01*
X101132517Y-118156256D01*
X101094000Y-118349894D01*
X101094000Y-119742877D01*
X101023013Y-119813741D01*
X100919118Y-120063946D01*
X100918882Y-120334865D01*
X97792450Y-120334865D01*
X97640221Y-120107039D01*
X97622203Y-120095000D01*
X97640221Y-120082961D01*
X97831198Y-119797144D01*
X97898260Y-119460000D01*
X97831198Y-119122856D01*
X97640221Y-118837039D01*
X97622203Y-118825000D01*
X97640221Y-118812961D01*
X97831198Y-118527144D01*
X97898260Y-118190000D01*
X97831198Y-117852856D01*
X97640221Y-117567039D01*
X97622203Y-117555000D01*
X97640221Y-117542961D01*
X97831198Y-117257144D01*
X97898260Y-116920000D01*
X97831198Y-116582856D01*
X97640221Y-116297039D01*
X97622203Y-116285000D01*
X97640221Y-116272961D01*
X97831198Y-115987144D01*
X97898260Y-115650000D01*
X97831198Y-115312856D01*
X97740909Y-115177730D01*
X97770865Y-115158454D01*
X97857859Y-115031134D01*
X97888464Y-114880000D01*
X97888464Y-113880000D01*
X97861897Y-113738810D01*
X97778454Y-113609135D01*
X97756438Y-113594092D01*
X102437825Y-113594092D01*
X102594454Y-113973164D01*
X102884226Y-114263442D01*
X103263025Y-114420733D01*
X103673182Y-114421091D01*
X103890767Y-114331187D01*
X103861119Y-114477593D01*
X103861119Y-115777593D01*
X103887686Y-115918783D01*
X103971129Y-116048458D01*
X104098449Y-116135452D01*
X104249583Y-116166057D01*
X105549583Y-116166057D01*
X105690773Y-116139490D01*
X105820448Y-116056047D01*
X105907442Y-115928727D01*
X105938047Y-115777593D01*
X105938047Y-115331772D01*
X106408405Y-115331772D01*
X106565034Y-115710844D01*
X106854806Y-116001122D01*
X107233605Y-116158413D01*
X107643762Y-116158771D01*
X108022834Y-116002142D01*
X108313112Y-115712370D01*
X108470403Y-115333571D01*
X108470761Y-114923414D01*
X108314132Y-114544342D01*
X108024360Y-114254064D01*
X107645561Y-114096773D01*
X107235404Y-114096415D01*
X106856332Y-114253044D01*
X106566054Y-114542816D01*
X106408763Y-114921615D01*
X106408405Y-115331772D01*
X105938047Y-115331772D01*
X105938047Y-114477593D01*
X105911480Y-114336403D01*
X105828037Y-114206728D01*
X105700717Y-114119734D01*
X105549583Y-114089129D01*
X104249583Y-114089129D01*
X104222855Y-114094158D01*
X104342532Y-113974690D01*
X104499823Y-113595891D01*
X104500039Y-113347361D01*
X105589420Y-113347361D01*
X105658975Y-113506449D01*
X106049473Y-113631907D01*
X106458257Y-113598377D01*
X106680191Y-113506449D01*
X106749746Y-113347361D01*
X106169583Y-112767198D01*
X105589420Y-113347361D01*
X104500039Y-113347361D01*
X104500181Y-113185734D01*
X104343552Y-112806662D01*
X104053780Y-112516384D01*
X103936014Y-112467483D01*
X105125269Y-112467483D01*
X105158799Y-112876267D01*
X105250727Y-113098201D01*
X105409815Y-113167756D01*
X105989978Y-112587593D01*
X106349188Y-112587593D01*
X106929351Y-113167756D01*
X107088439Y-113098201D01*
X107186887Y-112791772D01*
X107678405Y-112791772D01*
X107835034Y-113170844D01*
X108124806Y-113461122D01*
X108503605Y-113618413D01*
X108913762Y-113618771D01*
X109292834Y-113462142D01*
X109407815Y-113347361D01*
X110669420Y-113347361D01*
X110738975Y-113506449D01*
X111129473Y-113631907D01*
X111538257Y-113598377D01*
X111760191Y-113506449D01*
X111829746Y-113347361D01*
X111249583Y-112767198D01*
X110669420Y-113347361D01*
X109407815Y-113347361D01*
X109583112Y-113172370D01*
X109740403Y-112793571D01*
X109740687Y-112467483D01*
X110205269Y-112467483D01*
X110238799Y-112876267D01*
X110330727Y-113098201D01*
X110489815Y-113167756D01*
X111069978Y-112587593D01*
X111429188Y-112587593D01*
X112009351Y-113167756D01*
X112168439Y-113098201D01*
X112293897Y-112707703D01*
X112260367Y-112298919D01*
X112168439Y-112076985D01*
X112009351Y-112007430D01*
X111429188Y-112587593D01*
X111069978Y-112587593D01*
X110489815Y-112007430D01*
X110330727Y-112076985D01*
X110205269Y-112467483D01*
X109740687Y-112467483D01*
X109740761Y-112383414D01*
X109584132Y-112004342D01*
X109407923Y-111827825D01*
X110669420Y-111827825D01*
X111249583Y-112407988D01*
X111829746Y-111827825D01*
X111760191Y-111668737D01*
X111369693Y-111543279D01*
X110960909Y-111576809D01*
X110738975Y-111668737D01*
X110669420Y-111827825D01*
X109407923Y-111827825D01*
X109294360Y-111714064D01*
X108915561Y-111556773D01*
X108505404Y-111556415D01*
X108126332Y-111713044D01*
X107836054Y-112002816D01*
X107678763Y-112381615D01*
X107678405Y-112791772D01*
X107186887Y-112791772D01*
X107213897Y-112707703D01*
X107180367Y-112298919D01*
X107088439Y-112076985D01*
X106929351Y-112007430D01*
X106349188Y-112587593D01*
X105989978Y-112587593D01*
X105409815Y-112007430D01*
X105250727Y-112076985D01*
X105125269Y-112467483D01*
X103936014Y-112467483D01*
X103674981Y-112359093D01*
X103264824Y-112358735D01*
X102885752Y-112515364D01*
X102595474Y-112805136D01*
X102438183Y-113183935D01*
X102437825Y-113594092D01*
X97756438Y-113594092D01*
X97651134Y-113522141D01*
X97500000Y-113491536D01*
X96500000Y-113491536D01*
X96358810Y-113518103D01*
X96229135Y-113601546D01*
X96142141Y-113728866D01*
X96111536Y-113880000D01*
X96111536Y-114880000D01*
X96138103Y-115021190D01*
X96221546Y-115150865D01*
X96259646Y-115176898D01*
X96168802Y-115312856D01*
X96101740Y-115650000D01*
X96168802Y-115987144D01*
X96359779Y-116272961D01*
X96377797Y-116285000D01*
X96359779Y-116297039D01*
X96168802Y-116582856D01*
X96101740Y-116920000D01*
X96168802Y-117257144D01*
X96359779Y-117542961D01*
X96377797Y-117555000D01*
X96359779Y-117567039D01*
X96168802Y-117852856D01*
X96101740Y-118190000D01*
X96168802Y-118527144D01*
X96359779Y-118812961D01*
X96377797Y-118825000D01*
X96359779Y-118837039D01*
X96168802Y-119122856D01*
X96101740Y-119460000D01*
X96168802Y-119797144D01*
X96359779Y-120082961D01*
X96377797Y-120095000D01*
X96359779Y-120107039D01*
X96168802Y-120392856D01*
X96101740Y-120730000D01*
X96168802Y-121067144D01*
X96359779Y-121352961D01*
X96377797Y-121365000D01*
X96359779Y-121377039D01*
X96168802Y-121662856D01*
X96101740Y-122000000D01*
X96168802Y-122337144D01*
X96359779Y-122622961D01*
X96377797Y-122635000D01*
X96359779Y-122647039D01*
X96168802Y-122932856D01*
X96101740Y-123270000D01*
X96168802Y-123607144D01*
X96359779Y-123892961D01*
X96377797Y-123905000D01*
X96359779Y-123917039D01*
X96168802Y-124202856D01*
X96101740Y-124540000D01*
X96168802Y-124877144D01*
X96359779Y-125162961D01*
X96377797Y-125175000D01*
X96359779Y-125187039D01*
X96168802Y-125472856D01*
X96101740Y-125810000D01*
X96168802Y-126147144D01*
X96359779Y-126432961D01*
X96377797Y-126445000D01*
X96359779Y-126457039D01*
X96168802Y-126742856D01*
X96101740Y-127080000D01*
X96168802Y-127417144D01*
X96359779Y-127702961D01*
X96377797Y-127715000D01*
X96359779Y-127727039D01*
X96168802Y-128012856D01*
X96101740Y-128350000D01*
X96168802Y-128687144D01*
X96359779Y-128972961D01*
X96377797Y-128985000D01*
X96359779Y-128997039D01*
X96168802Y-129282856D01*
X96101740Y-129620000D01*
X96168802Y-129957144D01*
X96359779Y-130242961D01*
X96377797Y-130255000D01*
X96359779Y-130267039D01*
X96168802Y-130552856D01*
X96101740Y-130890000D01*
X96168802Y-131227144D01*
X96359779Y-131512961D01*
X96377797Y-131525000D01*
X96359779Y-131537039D01*
X96168802Y-131822856D01*
X96101740Y-132160000D01*
X96168802Y-132497144D01*
X96359779Y-132782961D01*
X96377797Y-132795000D01*
X96359779Y-132807039D01*
X96168802Y-133092856D01*
X96101740Y-133430000D01*
X96168802Y-133767144D01*
X96359779Y-134052961D01*
X96377797Y-134065000D01*
X96359779Y-134077039D01*
X96168802Y-134362856D01*
X96101740Y-134700000D01*
X96168802Y-135037144D01*
X96359779Y-135322961D01*
X96377797Y-135335000D01*
X96359779Y-135347039D01*
X96168802Y-135632856D01*
X96101740Y-135970000D01*
X96168802Y-136307144D01*
X96359779Y-136592961D01*
X96377797Y-136605000D01*
X96359779Y-136617039D01*
X96168802Y-136902856D01*
X96101740Y-137240000D01*
X96168802Y-137577144D01*
X96359779Y-137862961D01*
X96377797Y-137875000D01*
X96359779Y-137887039D01*
X96168802Y-138172856D01*
X96101740Y-138510000D01*
X96168802Y-138847144D01*
X96359779Y-139132961D01*
X96645596Y-139323938D01*
X96982740Y-139391000D01*
X97017260Y-139391000D01*
X97354404Y-139323938D01*
X97640221Y-139132961D01*
X97831198Y-138847144D01*
X97898260Y-138510000D01*
X97831198Y-138172856D01*
X97640221Y-137887039D01*
X97622203Y-137875000D01*
X97640221Y-137862961D01*
X97831198Y-137577144D01*
X97898260Y-137240000D01*
X97831198Y-136902856D01*
X97640221Y-136617039D01*
X97622203Y-136605000D01*
X97640221Y-136592961D01*
X97831198Y-136307144D01*
X97898260Y-135970000D01*
X97831198Y-135632856D01*
X97640221Y-135347039D01*
X97622203Y-135335000D01*
X97640221Y-135322961D01*
X97831198Y-135037144D01*
X97898260Y-134700000D01*
X97831198Y-134362856D01*
X97749809Y-134241049D01*
X99015286Y-135506526D01*
X99179444Y-135616213D01*
X99373082Y-135654730D01*
X100930973Y-135654730D01*
X100755816Y-135727103D01*
X100564081Y-135918505D01*
X100460186Y-136168710D01*
X100459950Y-136439629D01*
X100563407Y-136690016D01*
X100582977Y-136709620D01*
X100578049Y-136714539D01*
X100474154Y-136964744D01*
X100473918Y-137235663D01*
X100577375Y-137486050D01*
X100599068Y-137507780D01*
X100585887Y-137520938D01*
X100481992Y-137771143D01*
X100481756Y-138042062D01*
X100585213Y-138292449D01*
X100776615Y-138484184D01*
X101026820Y-138588079D01*
X101112965Y-138588154D01*
X103060369Y-140535558D01*
X103224527Y-140645245D01*
X103418165Y-140683762D01*
X108093897Y-140683762D01*
X108287535Y-140645245D01*
X108451693Y-140535558D01*
X109393867Y-139593384D01*
X109503554Y-139429226D01*
X109542071Y-139235588D01*
X109542071Y-137550000D01*
X109561536Y-137550000D01*
X109561536Y-138550000D01*
X109588103Y-138691190D01*
X109671546Y-138820865D01*
X109798866Y-138907859D01*
X109950000Y-138938464D01*
X111950000Y-138938464D01*
X112091190Y-138911897D01*
X112220865Y-138828454D01*
X112307859Y-138701134D01*
X112338464Y-138550000D01*
X112338464Y-137550000D01*
X112311897Y-137408810D01*
X112228454Y-137279135D01*
X112101134Y-137192141D01*
X111950000Y-137161536D01*
X109950000Y-137161536D01*
X109808810Y-137188103D01*
X109679135Y-137271546D01*
X109592141Y-137398866D01*
X109561536Y-137550000D01*
X109542071Y-137550000D01*
X109542071Y-135526413D01*
X110605907Y-134462577D01*
X110666380Y-134437590D01*
X110858115Y-134246188D01*
X110962010Y-133995983D01*
X110962246Y-133725064D01*
X110858789Y-133474677D01*
X110667387Y-133282942D01*
X110417182Y-133179047D01*
X110154134Y-133178818D01*
X110127661Y-133114748D01*
X109936259Y-132923013D01*
X109686054Y-132819118D01*
X109415135Y-132818882D01*
X109164748Y-132922339D01*
X108973013Y-133113741D01*
X108944065Y-133183456D01*
X108684031Y-133183229D01*
X108433644Y-133286686D01*
X108241909Y-133478088D01*
X108138014Y-133728293D01*
X108137909Y-133848629D01*
X107717863Y-134268675D01*
X107608176Y-134432833D01*
X107569659Y-134626471D01*
X107569659Y-138671495D01*
X107522729Y-138718425D01*
X107388464Y-138718425D01*
X107388464Y-134250000D01*
X107361897Y-134108810D01*
X107278454Y-133979135D01*
X107151134Y-133892141D01*
X107037197Y-133869069D01*
X107463311Y-133442955D01*
X107572998Y-133278797D01*
X107611515Y-133085159D01*
X107611515Y-132381054D01*
X107643533Y-132394349D01*
X107914452Y-132394585D01*
X108164839Y-132291128D01*
X108356574Y-132099726D01*
X108460469Y-131849521D01*
X108460557Y-131748089D01*
X108752808Y-131455838D01*
X115227330Y-131455838D01*
X115420968Y-131417321D01*
X115585126Y-131307634D01*
X117008479Y-129884281D01*
X117118166Y-129720123D01*
X117156683Y-129526485D01*
X117156683Y-117836342D01*
X117263946Y-117880882D01*
X117365378Y-117880970D01*
X118032204Y-118547796D01*
X118196362Y-118657483D01*
X118390000Y-118696000D01*
X120281628Y-118696000D01*
X120359779Y-118812961D01*
X120377797Y-118825000D01*
X120359779Y-118837039D01*
X120168802Y-119122856D01*
X120101740Y-119460000D01*
X120168802Y-119797144D01*
X120359779Y-120082961D01*
X120377797Y-120095000D01*
X120359779Y-120107039D01*
X120168802Y-120392856D01*
X120101740Y-120730000D01*
X120168802Y-121067144D01*
X120359779Y-121352961D01*
X120377797Y-121365000D01*
X120359779Y-121377039D01*
X120168802Y-121662856D01*
X120101740Y-122000000D01*
X120168802Y-122337144D01*
X120359779Y-122622961D01*
X120377797Y-122635000D01*
X120359779Y-122647039D01*
X120168802Y-122932856D01*
X120101740Y-123270000D01*
X120168802Y-123607144D01*
X120359779Y-123892961D01*
X120377797Y-123905000D01*
X120359779Y-123917039D01*
X120168802Y-124202856D01*
X120101740Y-124540000D01*
X120168802Y-124877144D01*
X120359779Y-125162961D01*
X120377797Y-125175000D01*
X120359779Y-125187039D01*
X120168802Y-125472856D01*
X120101740Y-125810000D01*
X120168802Y-126147144D01*
X120359779Y-126432961D01*
X120377797Y-126445000D01*
X120359779Y-126457039D01*
X120168802Y-126742856D01*
X120101740Y-127080000D01*
X120168802Y-127417144D01*
X120359779Y-127702961D01*
X120377797Y-127715000D01*
X120359779Y-127727039D01*
X120168802Y-128012856D01*
X120101740Y-128350000D01*
X120168802Y-128687144D01*
X120359779Y-128972961D01*
X120377797Y-128985000D01*
X120359779Y-128997039D01*
X120168802Y-129282856D01*
X120101740Y-129620000D01*
X120168802Y-129957144D01*
X120359779Y-130242961D01*
X120377797Y-130255000D01*
X120359779Y-130267039D01*
X120168802Y-130552856D01*
X120101740Y-130890000D01*
X120168802Y-131227144D01*
X120359779Y-131512961D01*
X120377797Y-131525000D01*
X120359779Y-131537039D01*
X120168802Y-131822856D01*
X120101740Y-132160000D01*
X120168802Y-132497144D01*
X120359779Y-132782961D01*
X120377797Y-132795000D01*
X120359779Y-132807039D01*
X120168802Y-133092856D01*
X120101740Y-133430000D01*
X120168802Y-133767144D01*
X120359779Y-134052961D01*
X120377797Y-134065000D01*
X120359779Y-134077039D01*
X120168802Y-134362856D01*
X120101740Y-134700000D01*
X120168802Y-135037144D01*
X120359779Y-135322961D01*
X120377797Y-135335000D01*
X120359779Y-135347039D01*
X120168802Y-135632856D01*
X120101740Y-135970000D01*
X120168802Y-136307144D01*
X120359779Y-136592961D01*
X120377797Y-136605000D01*
X120359779Y-136617039D01*
X120168802Y-136902856D01*
X120101740Y-137240000D01*
X120168802Y-137577144D01*
X120359779Y-137862961D01*
X120377797Y-137875000D01*
X120359779Y-137887039D01*
X120168802Y-138172856D01*
X120101740Y-138510000D01*
X120168802Y-138847144D01*
X120359779Y-139132961D01*
X120645596Y-139323938D01*
X120982740Y-139391000D01*
X121017260Y-139391000D01*
X121354404Y-139323938D01*
X121640221Y-139132961D01*
X121831198Y-138847144D01*
X121898260Y-138510000D01*
X121831198Y-138172856D01*
X121640221Y-137887039D01*
X121622203Y-137875000D01*
X121640221Y-137862961D01*
X121831198Y-137577144D01*
X121898260Y-137240000D01*
X121831198Y-136902856D01*
X121640221Y-136617039D01*
X121622203Y-136605000D01*
X121640221Y-136592961D01*
X121831198Y-136307144D01*
X121898260Y-135970000D01*
X121831198Y-135632856D01*
X121640221Y-135347039D01*
X121622203Y-135335000D01*
X121640221Y-135322961D01*
X121831198Y-135037144D01*
X121898260Y-134700000D01*
X121831198Y-134362856D01*
X121640221Y-134077039D01*
X121622203Y-134065000D01*
X121640221Y-134052961D01*
X121831198Y-133767144D01*
X121898260Y-133430000D01*
X121831198Y-133092856D01*
X121640221Y-132807039D01*
X121622203Y-132795000D01*
X121640221Y-132782961D01*
X121831198Y-132497144D01*
X121898260Y-132160000D01*
X121831198Y-131822856D01*
X121640221Y-131537039D01*
X121622203Y-131525000D01*
X121640221Y-131512961D01*
X121831198Y-131227144D01*
X121898260Y-130890000D01*
X121831198Y-130552856D01*
X121640221Y-130267039D01*
X121622203Y-130255000D01*
X121640221Y-130242961D01*
X121831198Y-129957144D01*
X121898260Y-129620000D01*
X121831198Y-129282856D01*
X121640221Y-128997039D01*
X121622203Y-128985000D01*
X121640221Y-128972961D01*
X121831198Y-128687144D01*
X121898260Y-128350000D01*
X121831198Y-128012856D01*
X121640221Y-127727039D01*
X121622203Y-127715000D01*
X121640221Y-127702961D01*
X121831198Y-127417144D01*
X121898260Y-127080000D01*
X121831198Y-126742856D01*
X121640221Y-126457039D01*
X121622203Y-126445000D01*
X121640221Y-126432961D01*
X121831198Y-126147144D01*
X121898260Y-125810000D01*
X121831198Y-125472856D01*
X121640221Y-125187039D01*
X121622203Y-125175000D01*
X121640221Y-125162961D01*
X121831198Y-124877144D01*
X121898260Y-124540000D01*
X121831198Y-124202856D01*
X121640221Y-123917039D01*
X121622203Y-123905000D01*
X121640221Y-123892961D01*
X121831198Y-123607144D01*
X121898260Y-123270000D01*
X121831198Y-122932856D01*
X121640221Y-122647039D01*
X121622203Y-122635000D01*
X121640221Y-122622961D01*
X121831198Y-122337144D01*
X121898260Y-122000000D01*
X121831198Y-121662856D01*
X121640221Y-121377039D01*
X121622203Y-121365000D01*
X121640221Y-121352961D01*
X121831198Y-121067144D01*
X121898260Y-120730000D01*
X121831198Y-120392856D01*
X121640221Y-120107039D01*
X121622203Y-120095000D01*
X121640221Y-120082961D01*
X121831198Y-119797144D01*
X121898260Y-119460000D01*
X121831198Y-119122856D01*
X121640221Y-118837039D01*
X121622203Y-118825000D01*
X121640221Y-118812961D01*
X121831198Y-118527144D01*
X121898260Y-118190000D01*
X121831198Y-117852856D01*
X121640221Y-117567039D01*
X121622203Y-117555000D01*
X121640221Y-117542961D01*
X121831198Y-117257144D01*
X121898260Y-116920000D01*
X121831198Y-116582856D01*
X121640221Y-116297039D01*
X121622203Y-116285000D01*
X121640221Y-116272961D01*
X121831198Y-115987144D01*
X121898260Y-115650000D01*
X121831198Y-115312856D01*
X121740980Y-115177836D01*
X121822996Y-115095819D01*
X121881000Y-114955785D01*
X121881000Y-114602250D01*
X121785750Y-114507000D01*
X121127000Y-114507000D01*
X121127000Y-114527000D01*
X120873000Y-114527000D01*
X120873000Y-114507000D01*
X120214250Y-114507000D01*
X120119000Y-114602250D01*
X120119000Y-114955785D01*
X120177004Y-115095819D01*
X120259020Y-115177836D01*
X120168802Y-115312856D01*
X120101740Y-115650000D01*
X120168802Y-115987144D01*
X120359779Y-116272961D01*
X120377797Y-116285000D01*
X120359779Y-116297039D01*
X120168802Y-116582856D01*
X120101740Y-116920000D01*
X120168802Y-117257144D01*
X120359779Y-117542961D01*
X120377797Y-117555000D01*
X120359779Y-117567039D01*
X120281628Y-117684000D01*
X118599592Y-117684000D01*
X118081031Y-117165439D01*
X118081118Y-117065135D01*
X117977661Y-116814748D01*
X117786259Y-116623013D01*
X117536054Y-116519118D01*
X117265135Y-116518882D01*
X117156683Y-116563693D01*
X117156683Y-113804215D01*
X120119000Y-113804215D01*
X120119000Y-114157750D01*
X120214250Y-114253000D01*
X120873000Y-114253000D01*
X120873000Y-113594250D01*
X121127000Y-113594250D01*
X121127000Y-114253000D01*
X121785750Y-114253000D01*
X121881000Y-114157750D01*
X121881000Y-113804215D01*
X121822996Y-113664181D01*
X121715820Y-113557004D01*
X121575786Y-113499000D01*
X121222250Y-113499000D01*
X121127000Y-113594250D01*
X120873000Y-113594250D01*
X120777750Y-113499000D01*
X120424214Y-113499000D01*
X120284180Y-113557004D01*
X120177004Y-113664181D01*
X120119000Y-113804215D01*
X117156683Y-113804215D01*
X117156683Y-113058909D01*
X118834561Y-111381031D01*
X118934865Y-111381118D01*
X119185252Y-111277661D01*
X119376987Y-111086259D01*
X119480882Y-110836054D01*
X119481118Y-110565135D01*
X119377661Y-110314748D01*
X119186259Y-110123013D01*
X118936054Y-110019118D01*
X118665135Y-110018882D01*
X118414748Y-110122339D01*
X118223013Y-110313741D01*
X118119118Y-110563946D01*
X118119030Y-110665378D01*
X116292887Y-112491521D01*
X116183200Y-112655679D01*
X116144683Y-112849317D01*
X116144683Y-116032989D01*
X115353898Y-115242204D01*
X115189740Y-115132517D01*
X114996102Y-115094000D01*
X114006000Y-115094000D01*
X114006000Y-110222829D01*
X113967483Y-110029191D01*
X113857796Y-109865033D01*
X112565731Y-108572968D01*
X112401573Y-108463281D01*
X112207935Y-108424764D01*
X111574561Y-108424764D01*
X111503697Y-108353777D01*
X111253492Y-108249882D01*
X110982573Y-108249646D01*
X110732186Y-108353103D01*
X110540451Y-108544505D01*
X110436556Y-108794710D01*
X110436320Y-109065629D01*
X110539777Y-109316016D01*
X110731179Y-109507751D01*
X110981384Y-109611646D01*
X111252303Y-109611882D01*
X111502690Y-109508425D01*
X111574476Y-109436764D01*
X111998343Y-109436764D01*
X112580562Y-110018983D01*
X112465135Y-110018882D01*
X112222829Y-110119000D01*
X104340518Y-110119000D01*
X105056655Y-109402863D01*
X105182600Y-109214373D01*
X105226826Y-108992034D01*
X105226826Y-104574214D01*
X107419000Y-104574214D01*
X107419000Y-105427750D01*
X107514250Y-105523000D01*
X109573000Y-105523000D01*
X109573000Y-104364250D01*
X109827000Y-104364250D01*
X109827000Y-105523000D01*
X111885750Y-105523000D01*
X111981000Y-105427750D01*
X111981000Y-104574214D01*
X111950260Y-104500000D01*
X113661536Y-104500000D01*
X113661536Y-105200000D01*
X113688103Y-105341190D01*
X113771546Y-105470865D01*
X113898866Y-105557859D01*
X114050000Y-105588464D01*
X115350000Y-105588464D01*
X115491190Y-105561897D01*
X115620865Y-105478454D01*
X115704534Y-105356000D01*
X115706900Y-105356000D01*
X115689000Y-105399215D01*
X115689000Y-105577750D01*
X115784250Y-105673000D01*
X116473000Y-105673000D01*
X116473000Y-105653000D01*
X116727000Y-105653000D01*
X116727000Y-105673000D01*
X117415750Y-105673000D01*
X117511000Y-105577750D01*
X117511000Y-105399215D01*
X117483420Y-105332631D01*
X117487859Y-105326134D01*
X117518464Y-105175000D01*
X117518464Y-104525000D01*
X117491897Y-104383810D01*
X117408454Y-104254135D01*
X117281134Y-104167141D01*
X117130000Y-104136536D01*
X116070000Y-104136536D01*
X115928810Y-104163103D01*
X115799135Y-104246546D01*
X115732548Y-104344000D01*
X115702367Y-104344000D01*
X115628454Y-104229135D01*
X115501134Y-104142141D01*
X115350000Y-104111536D01*
X114050000Y-104111536D01*
X113908810Y-104138103D01*
X113779135Y-104221546D01*
X113692141Y-104348866D01*
X113661536Y-104500000D01*
X111950260Y-104500000D01*
X111922996Y-104434180D01*
X111815819Y-104327004D01*
X111675785Y-104269000D01*
X109922250Y-104269000D01*
X109827000Y-104364250D01*
X109573000Y-104364250D01*
X109477750Y-104269000D01*
X107724215Y-104269000D01*
X107584181Y-104327004D01*
X107477004Y-104434180D01*
X107419000Y-104574214D01*
X105226826Y-104574214D01*
X105226826Y-103570644D01*
X108223893Y-103570644D01*
X108327350Y-103821031D01*
X108518752Y-104012766D01*
X108768957Y-104116661D01*
X109039876Y-104116897D01*
X109290263Y-104013440D01*
X109362049Y-103941779D01*
X110289043Y-103941779D01*
X110323147Y-103975942D01*
X110573352Y-104079837D01*
X110844271Y-104080073D01*
X111094658Y-103976616D01*
X111286393Y-103785214D01*
X111390288Y-103535009D01*
X111390524Y-103264090D01*
X111287067Y-103013703D01*
X111095665Y-102821968D01*
X110845460Y-102718073D01*
X110574541Y-102717837D01*
X110324154Y-102821294D01*
X110215480Y-102929779D01*
X109362134Y-102929779D01*
X109291270Y-102858792D01*
X109041065Y-102754897D01*
X108770146Y-102754661D01*
X108519759Y-102858118D01*
X108328024Y-103049520D01*
X108224129Y-103299725D01*
X108223893Y-103570644D01*
X105226826Y-103570644D01*
X105226826Y-102794832D01*
X105444536Y-102577122D01*
X105677171Y-102481000D01*
X113500000Y-102481000D01*
X113722339Y-102436774D01*
X113910829Y-102310829D01*
X114040234Y-102181424D01*
X114075000Y-102188464D01*
X115325000Y-102188464D01*
X115466190Y-102161897D01*
X115595865Y-102078454D01*
X115650230Y-101998888D01*
X115696546Y-102070865D01*
X115823866Y-102157859D01*
X115975000Y-102188464D01*
X116111597Y-102188464D01*
X116132517Y-102293638D01*
X116242204Y-102457796D01*
X118018496Y-104234088D01*
X117999135Y-104246546D01*
X117912141Y-104373866D01*
X117881536Y-104525000D01*
X117881536Y-105175000D01*
X117908103Y-105316190D01*
X117991546Y-105445865D01*
X118118866Y-105532859D01*
X118270000Y-105563464D01*
X119330000Y-105563464D01*
X119471190Y-105536897D01*
X119600865Y-105453454D01*
X119616620Y-105430396D01*
X119652004Y-105515820D01*
X119759181Y-105622996D01*
X119899215Y-105681000D01*
X120377750Y-105681000D01*
X120473000Y-105585750D01*
X120473000Y-104927000D01*
X120453000Y-104927000D01*
X120453000Y-104673000D01*
X120473000Y-104673000D01*
X120473000Y-104014250D01*
X120377750Y-103919000D01*
X119899215Y-103919000D01*
X119759181Y-103977004D01*
X119652004Y-104084180D01*
X119594000Y-104224214D01*
X119594000Y-104244259D01*
X119481134Y-104167141D01*
X119330000Y-104136536D01*
X119273485Y-104136536D01*
X119267483Y-104106362D01*
X119157796Y-103942204D01*
X118504056Y-103288464D01*
X120100000Y-103288464D01*
X120241190Y-103261897D01*
X120370865Y-103178454D01*
X120457859Y-103051134D01*
X120488464Y-102900000D01*
X120488464Y-102681000D01*
X120859342Y-102681000D01*
X121419000Y-103240658D01*
X121419000Y-103967966D01*
X121300785Y-103919000D01*
X120822250Y-103919000D01*
X120727000Y-104014250D01*
X120727000Y-104673000D01*
X120747000Y-104673000D01*
X120747000Y-104927000D01*
X120727000Y-104927000D01*
X120727000Y-105585750D01*
X120822250Y-105681000D01*
X121300785Y-105681000D01*
X121419000Y-105632034D01*
X121419000Y-105959342D01*
X121411819Y-105966523D01*
X121376134Y-105942141D01*
X121225000Y-105911536D01*
X119975000Y-105911536D01*
X119833810Y-105938103D01*
X119704135Y-106021546D01*
X119617141Y-106148866D01*
X119614250Y-106163142D01*
X119608454Y-106154135D01*
X119481134Y-106067141D01*
X119330000Y-106036536D01*
X118270000Y-106036536D01*
X118128810Y-106063103D01*
X117999135Y-106146546D01*
X117912141Y-106273866D01*
X117881536Y-106425000D01*
X117881536Y-106982612D01*
X117739711Y-106923721D01*
X117518464Y-106923528D01*
X117518464Y-106425000D01*
X117491897Y-106283810D01*
X117482597Y-106269357D01*
X117511000Y-106200785D01*
X117511000Y-106022250D01*
X117415750Y-105927000D01*
X116727000Y-105927000D01*
X116727000Y-105947000D01*
X116473000Y-105947000D01*
X116473000Y-105927000D01*
X115784250Y-105927000D01*
X115689000Y-106022250D01*
X115689000Y-106169000D01*
X115654106Y-106169000D01*
X115628454Y-106129135D01*
X115501134Y-106042141D01*
X115350000Y-106011536D01*
X114050000Y-106011536D01*
X113908810Y-106038103D01*
X113779135Y-106121546D01*
X113746711Y-106169000D01*
X113685867Y-106169000D01*
X113463528Y-106213226D01*
X113275038Y-106339171D01*
X113126830Y-106487379D01*
X113000885Y-106675869D01*
X112973402Y-106814036D01*
X112960672Y-106826744D01*
X112875729Y-107031309D01*
X112785815Y-107013424D01*
X111718217Y-107013424D01*
X111815819Y-106972996D01*
X111922996Y-106865820D01*
X111981000Y-106725786D01*
X111981000Y-105872250D01*
X111885750Y-105777000D01*
X109827000Y-105777000D01*
X109827000Y-105797000D01*
X109573000Y-105797000D01*
X109573000Y-105777000D01*
X107514250Y-105777000D01*
X107419000Y-105872250D01*
X107419000Y-106725786D01*
X107477004Y-106865820D01*
X107584181Y-106972996D01*
X107681783Y-107013424D01*
X106763166Y-107013424D01*
X106536054Y-106919118D01*
X106265135Y-106918882D01*
X106014748Y-107022339D01*
X105823013Y-107213741D01*
X105719118Y-107463946D01*
X105718882Y-107734865D01*
X105822339Y-107985252D01*
X106013741Y-108176987D01*
X106263946Y-108280882D01*
X106534865Y-108281118D01*
X106785252Y-108177661D01*
X106787493Y-108175424D01*
X112545157Y-108175424D01*
X112713913Y-108344180D01*
X112902403Y-108470125D01*
X113124742Y-108514351D01*
X117274909Y-108514351D01*
X117497248Y-108470125D01*
X117685738Y-108344180D01*
X117748193Y-108281725D01*
X117980828Y-108185603D01*
X118328731Y-108185603D01*
X118551070Y-108141377D01*
X118739560Y-108015432D01*
X119210829Y-107544163D01*
X119264750Y-107463464D01*
X119330000Y-107463464D01*
X119471190Y-107436897D01*
X119597055Y-107355905D01*
X119613103Y-107441190D01*
X119696546Y-107570865D01*
X119823866Y-107657859D01*
X119975000Y-107688464D01*
X121225000Y-107688464D01*
X121366190Y-107661897D01*
X121495865Y-107578454D01*
X121582859Y-107451134D01*
X121605332Y-107340157D01*
X121622339Y-107336774D01*
X121810829Y-107210829D01*
X122410829Y-106610829D01*
X122536774Y-106422339D01*
X122544000Y-106386011D01*
X122544000Y-141544000D01*
X95456000Y-141544000D01*
X95456000Y-110543959D01*
X97306016Y-110543959D01*
X97337188Y-111012755D01*
X97456617Y-111301082D01*
X97631256Y-111389139D01*
X98320395Y-110700000D01*
X97631256Y-110010861D01*
X97456617Y-110098918D01*
X97306016Y-110543959D01*
X95456000Y-110543959D01*
X95456000Y-108291816D01*
X96158802Y-108291816D01*
X96220039Y-108439695D01*
X96436193Y-108706987D01*
X96738182Y-108871214D01*
X96873000Y-108806565D01*
X96873000Y-108157000D01*
X97127000Y-108157000D01*
X97127000Y-108806565D01*
X97261818Y-108871214D01*
X97563807Y-108706987D01*
X97779961Y-108439695D01*
X97841198Y-108291816D01*
X97775419Y-108157000D01*
X97127000Y-108157000D01*
X96873000Y-108157000D01*
X96224581Y-108157000D01*
X96158802Y-108291816D01*
X95456000Y-108291816D01*
X95456000Y-107021816D01*
X96158802Y-107021816D01*
X96220039Y-107169695D01*
X96402239Y-107395000D01*
X96220039Y-107620305D01*
X96158802Y-107768184D01*
X96224581Y-107903000D01*
X96873000Y-107903000D01*
X96873000Y-106887000D01*
X97127000Y-106887000D01*
X97127000Y-107903000D01*
X97775419Y-107903000D01*
X97841198Y-107768184D01*
X97779961Y-107620305D01*
X97597761Y-107395000D01*
X97779961Y-107169695D01*
X97841198Y-107021816D01*
X97775419Y-106887000D01*
X97127000Y-106887000D01*
X96873000Y-106887000D01*
X96224581Y-106887000D01*
X96158802Y-107021816D01*
X95456000Y-107021816D01*
X95456000Y-105751816D01*
X96158802Y-105751816D01*
X96220039Y-105899695D01*
X96402239Y-106125000D01*
X96220039Y-106350305D01*
X96158802Y-106498184D01*
X96224581Y-106633000D01*
X96873000Y-106633000D01*
X96873000Y-105617000D01*
X97127000Y-105617000D01*
X97127000Y-106633000D01*
X97775419Y-106633000D01*
X97841198Y-106498184D01*
X97779961Y-106350305D01*
X97597761Y-106125000D01*
X97779961Y-105899695D01*
X97841198Y-105751816D01*
X97775419Y-105617000D01*
X97127000Y-105617000D01*
X96873000Y-105617000D01*
X96224581Y-105617000D01*
X96158802Y-105751816D01*
X95456000Y-105751816D01*
X95456000Y-97456000D01*
X122544000Y-97456000D01*
X122544000Y-102813989D01*
X122544000Y-102813989D01*
G37*
X122544000Y-102813989D02*
X122536774Y-102777661D01*
X122410829Y-102589171D01*
X121510829Y-101689171D01*
X121322339Y-101563226D01*
X121100000Y-101519000D01*
X120488464Y-101519000D01*
X120488464Y-101300000D01*
X120461897Y-101158810D01*
X120378454Y-101029135D01*
X120251134Y-100942141D01*
X120173058Y-100926330D01*
X120239498Y-100859890D01*
X120168746Y-100789138D01*
X120343383Y-100701082D01*
X120493984Y-100256041D01*
X120462812Y-99787245D01*
X120343383Y-99498918D01*
X120168744Y-99410861D01*
X119479605Y-100100000D01*
X119493748Y-100114143D01*
X119314143Y-100293748D01*
X119300000Y-100279605D01*
X119285858Y-100293748D01*
X119106253Y-100114143D01*
X119120395Y-100100000D01*
X118431256Y-99410861D01*
X118256617Y-99498918D01*
X118106016Y-99943959D01*
X118137188Y-100412755D01*
X118256617Y-100701082D01*
X118431254Y-100789138D01*
X118360502Y-100859890D01*
X118426061Y-100925449D01*
X118358810Y-100938103D01*
X118229135Y-101021546D01*
X118142141Y-101148866D01*
X118111536Y-101300000D01*
X118111536Y-102895944D01*
X117373065Y-102157473D01*
X117495865Y-102078454D01*
X117582859Y-101951134D01*
X117613464Y-101800000D01*
X117613464Y-100800000D01*
X117586897Y-100658810D01*
X117503454Y-100529135D01*
X117376134Y-100442141D01*
X117225000Y-100411536D01*
X115975000Y-100411536D01*
X115833810Y-100438103D01*
X115704135Y-100521546D01*
X115649770Y-100601112D01*
X115603454Y-100529135D01*
X115476134Y-100442141D01*
X115325000Y-100411536D01*
X114075000Y-100411536D01*
X113933810Y-100438103D01*
X113804135Y-100521546D01*
X113717141Y-100648866D01*
X113702939Y-100719000D01*
X112940658Y-100719000D01*
X112916968Y-100695310D01*
X113020865Y-100628454D01*
X113107859Y-100501134D01*
X113138464Y-100350000D01*
X113138464Y-99522250D01*
X113694000Y-99522250D01*
X113694000Y-99875786D01*
X113752004Y-100015820D01*
X113859181Y-100122996D01*
X113999215Y-100181000D01*
X114477750Y-100181000D01*
X114573000Y-100085750D01*
X114573000Y-99427000D01*
X114827000Y-99427000D01*
X114827000Y-100085750D01*
X114922250Y-100181000D01*
X115400785Y-100181000D01*
X115540819Y-100122996D01*
X115647996Y-100015820D01*
X115650000Y-100010982D01*
X115652004Y-100015820D01*
X115759181Y-100122996D01*
X115899215Y-100181000D01*
X116377750Y-100181000D01*
X116473000Y-100085750D01*
X116473000Y-99427000D01*
X116727000Y-99427000D01*
X116727000Y-100085750D01*
X116822250Y-100181000D01*
X117300785Y-100181000D01*
X117440819Y-100122996D01*
X117547996Y-100015820D01*
X117606000Y-99875786D01*
X117606000Y-99522250D01*
X117510750Y-99427000D01*
X116727000Y-99427000D01*
X116473000Y-99427000D01*
X115689250Y-99427000D01*
X115650000Y-99466250D01*
X115610750Y-99427000D01*
X114827000Y-99427000D01*
X114573000Y-99427000D01*
X113789250Y-99427000D01*
X113694000Y-99522250D01*
X113138464Y-99522250D01*
X113138464Y-99231256D01*
X118610861Y-99231256D01*
X119300000Y-99920395D01*
X119989139Y-99231256D01*
X119901082Y-99056617D01*
X119456041Y-98906016D01*
X118987245Y-98937188D01*
X118698918Y-99056617D01*
X118610861Y-99231256D01*
X113138464Y-99231256D01*
X113138464Y-98724214D01*
X113694000Y-98724214D01*
X113694000Y-99077750D01*
X113789250Y-99173000D01*
X114573000Y-99173000D01*
X114573000Y-98514250D01*
X114827000Y-98514250D01*
X114827000Y-99173000D01*
X115610750Y-99173000D01*
X115650000Y-99133750D01*
X115689250Y-99173000D01*
X116473000Y-99173000D01*
X116473000Y-98514250D01*
X116727000Y-98514250D01*
X116727000Y-99173000D01*
X117510750Y-99173000D01*
X117606000Y-99077750D01*
X117606000Y-98724214D01*
X117547996Y-98584180D01*
X117440819Y-98477004D01*
X117300785Y-98419000D01*
X116822250Y-98419000D01*
X116727000Y-98514250D01*
X116473000Y-98514250D01*
X116377750Y-98419000D01*
X115899215Y-98419000D01*
X115759181Y-98477004D01*
X115652004Y-98584180D01*
X115650000Y-98589018D01*
X115647996Y-98584180D01*
X115540819Y-98477004D01*
X115400785Y-98419000D01*
X114922250Y-98419000D01*
X114827000Y-98514250D01*
X114573000Y-98514250D01*
X114477750Y-98419000D01*
X113999215Y-98419000D01*
X113859181Y-98477004D01*
X113752004Y-98584180D01*
X113694000Y-98724214D01*
X113138464Y-98724214D01*
X113138464Y-98350000D01*
X113111897Y-98208810D01*
X113028454Y-98079135D01*
X112901134Y-97992141D01*
X112750000Y-97961536D01*
X111250000Y-97961536D01*
X111108810Y-97988103D01*
X110979135Y-98071546D01*
X110892141Y-98198866D01*
X110861536Y-98350000D01*
X110861536Y-100350000D01*
X110888103Y-100491190D01*
X110971546Y-100620865D01*
X111098866Y-100707859D01*
X111250000Y-100738464D01*
X111446542Y-100738464D01*
X111463226Y-100822339D01*
X111589171Y-101010829D01*
X111897342Y-101319000D01*
X105676595Y-101319000D01*
X105436054Y-101219118D01*
X105165135Y-101218882D01*
X104914748Y-101322339D01*
X104723013Y-101513741D01*
X104622471Y-101755871D01*
X104234997Y-102143345D01*
X104208777Y-102182586D01*
X104208777Y-101348568D01*
X105626345Y-99931000D01*
X106261536Y-99931000D01*
X106261536Y-100350000D01*
X106288103Y-100491190D01*
X106371546Y-100620865D01*
X106498866Y-100707859D01*
X106650000Y-100738464D01*
X108150000Y-100738464D01*
X108291190Y-100711897D01*
X108420865Y-100628454D01*
X108507859Y-100501134D01*
X108538464Y-100350000D01*
X108538464Y-99572250D01*
X108569000Y-99572250D01*
X108569000Y-100425786D01*
X108627004Y-100565820D01*
X108734181Y-100672996D01*
X108874215Y-100731000D01*
X109477750Y-100731000D01*
X109573000Y-100635750D01*
X109573000Y-99477000D01*
X109827000Y-99477000D01*
X109827000Y-100635750D01*
X109922250Y-100731000D01*
X110525785Y-100731000D01*
X110665819Y-100672996D01*
X110772996Y-100565820D01*
X110831000Y-100425786D01*
X110831000Y-99572250D01*
X110735750Y-99477000D01*
X109827000Y-99477000D01*
X109573000Y-99477000D01*
X108664250Y-99477000D01*
X108569000Y-99572250D01*
X108538464Y-99572250D01*
X108538464Y-98350000D01*
X108524204Y-98274214D01*
X108569000Y-98274214D01*
X108569000Y-99127750D01*
X108664250Y-99223000D01*
X109573000Y-99223000D01*
X109573000Y-98064250D01*
X109827000Y-98064250D01*
X109827000Y-99223000D01*
X110735750Y-99223000D01*
X110831000Y-99127750D01*
X110831000Y-98274214D01*
X110772996Y-98134180D01*
X110665819Y-98027004D01*
X110525785Y-97969000D01*
X109922250Y-97969000D01*
X109827000Y-98064250D01*
X109573000Y-98064250D01*
X109477750Y-97969000D01*
X108874215Y-97969000D01*
X108734181Y-98027004D01*
X108627004Y-98134180D01*
X108569000Y-98274214D01*
X108524204Y-98274214D01*
X108511897Y-98208810D01*
X108428454Y-98079135D01*
X108301134Y-97992141D01*
X108150000Y-97961536D01*
X106650000Y-97961536D01*
X106508810Y-97988103D01*
X106379135Y-98071546D01*
X106292141Y-98198866D01*
X106261536Y-98350000D01*
X106261536Y-98769000D01*
X105385687Y-98769000D01*
X105163348Y-98813226D01*
X104974858Y-98939171D01*
X104383982Y-99530047D01*
X104377661Y-99514748D01*
X104186259Y-99323013D01*
X103936054Y-99219118D01*
X103665135Y-99218882D01*
X103414748Y-99322339D01*
X103223013Y-99513741D01*
X103134849Y-99726062D01*
X102674186Y-100186725D01*
X102548241Y-100375215D01*
X102504015Y-100597554D01*
X102504015Y-104911536D01*
X102500000Y-104911536D01*
X102358810Y-104938103D01*
X102229135Y-105021546D01*
X102142141Y-105148866D01*
X102126330Y-105226942D01*
X102059890Y-105160502D01*
X101989138Y-105231254D01*
X101901082Y-105056617D01*
X101456041Y-104906016D01*
X100987245Y-104937188D01*
X100698918Y-105056617D01*
X100610861Y-105231256D01*
X101300000Y-105920395D01*
X101314143Y-105906253D01*
X101493748Y-106085858D01*
X101479605Y-106100000D01*
X101493748Y-106114143D01*
X101314143Y-106293748D01*
X101300000Y-106279605D01*
X101285858Y-106293748D01*
X101106253Y-106114143D01*
X101120395Y-106100000D01*
X100431256Y-105410861D01*
X100256617Y-105498918D01*
X100106016Y-105943959D01*
X100137188Y-106412755D01*
X100256617Y-106701082D01*
X100431254Y-106789138D01*
X100371025Y-106849367D01*
X99198826Y-105677168D01*
X99198826Y-103417826D01*
X99154600Y-103195487D01*
X99028655Y-103006997D01*
X98560829Y-102539171D01*
X98372339Y-102413226D01*
X98150000Y-102369000D01*
X97831986Y-102369000D01*
X97857859Y-102331134D01*
X97888464Y-102180000D01*
X97888464Y-101180000D01*
X97861897Y-101038810D01*
X97778454Y-100909135D01*
X97651134Y-100822141D01*
X97500000Y-100791536D01*
X96500000Y-100791536D01*
X96358810Y-100818103D01*
X96229135Y-100901546D01*
X96142141Y-101028866D01*
X96111536Y-101180000D01*
X96111536Y-102180000D01*
X96138103Y-102321190D01*
X96221546Y-102450865D01*
X96259646Y-102476898D01*
X96168802Y-102612856D01*
X96101740Y-102950000D01*
X96168802Y-103287144D01*
X96359779Y-103572961D01*
X96377797Y-103585000D01*
X96359779Y-103597039D01*
X96168802Y-103882856D01*
X96101740Y-104220000D01*
X96168802Y-104557144D01*
X96359779Y-104842961D01*
X96393665Y-104865603D01*
X96220039Y-105080305D01*
X96158802Y-105228184D01*
X96224581Y-105363000D01*
X96873000Y-105363000D01*
X96873000Y-105343000D01*
X97127000Y-105343000D01*
X97127000Y-105363000D01*
X97775419Y-105363000D01*
X97841198Y-105228184D01*
X97779961Y-105080305D01*
X97606335Y-104865603D01*
X97640221Y-104842961D01*
X97831198Y-104557144D01*
X97898260Y-104220000D01*
X97831198Y-103882856D01*
X97640221Y-103597039D01*
X97622203Y-103585000D01*
X97640221Y-103572961D01*
X97668258Y-103531000D01*
X97909342Y-103531000D01*
X98036826Y-103658484D01*
X98036826Y-105917826D01*
X98081052Y-106140165D01*
X98206997Y-106328655D01*
X99919000Y-108040658D01*
X99919000Y-109511536D01*
X99700000Y-109511536D01*
X99558810Y-109538103D01*
X99429135Y-109621546D01*
X99342141Y-109748866D01*
X99326330Y-109826942D01*
X99259890Y-109760502D01*
X99189138Y-109831254D01*
X99101082Y-109656617D01*
X98656041Y-109506016D01*
X98187245Y-109537188D01*
X97898918Y-109656617D01*
X97810861Y-109831256D01*
X98500000Y-110520395D01*
X98514143Y-110506253D01*
X98693748Y-110685858D01*
X98679605Y-110700000D01*
X98693748Y-110714143D01*
X98514143Y-110893748D01*
X98500000Y-110879605D01*
X97810861Y-111568744D01*
X97898918Y-111743383D01*
X98343959Y-111893984D01*
X98812755Y-111862812D01*
X99101082Y-111743383D01*
X99189138Y-111568746D01*
X99259890Y-111639498D01*
X99325449Y-111573939D01*
X99338103Y-111641190D01*
X99421546Y-111770865D01*
X99548866Y-111857859D01*
X99700000Y-111888464D01*
X101300000Y-111888464D01*
X101441190Y-111861897D01*
X101494139Y-111827825D01*
X105589420Y-111827825D01*
X106169583Y-112407988D01*
X106749746Y-111827825D01*
X106680191Y-111668737D01*
X106289693Y-111543279D01*
X105880909Y-111576809D01*
X105658975Y-111668737D01*
X105589420Y-111827825D01*
X101494139Y-111827825D01*
X101570865Y-111778454D01*
X101657859Y-111651134D01*
X101688464Y-111500000D01*
X101688464Y-111281000D01*
X112223405Y-111281000D01*
X112463946Y-111380882D01*
X112734865Y-111381118D01*
X112985252Y-111277661D01*
X112994000Y-111268928D01*
X112994000Y-115142877D01*
X112923013Y-115213741D01*
X112819118Y-115463946D01*
X112818882Y-115734865D01*
X112922339Y-115985252D01*
X113113741Y-116176987D01*
X113181524Y-116205133D01*
X110966431Y-116205133D01*
X110663224Y-115901926D01*
X110853112Y-115712370D01*
X111010403Y-115333571D01*
X111010761Y-114923414D01*
X110854132Y-114544342D01*
X110564360Y-114254064D01*
X110185561Y-114096773D01*
X109775404Y-114096415D01*
X109396332Y-114253044D01*
X109106054Y-114542816D01*
X108948763Y-114921615D01*
X108948405Y-115331772D01*
X109105034Y-115710844D01*
X109394806Y-116001122D01*
X109398583Y-116002690D01*
X109398583Y-116039943D01*
X109442809Y-116262282D01*
X109568754Y-116450772D01*
X110314944Y-117196962D01*
X110503434Y-117322907D01*
X110725773Y-117367133D01*
X114475861Y-117367133D01*
X114919000Y-117810272D01*
X114919000Y-120829851D01*
X113464717Y-119375568D01*
X113300559Y-119265881D01*
X113106921Y-119227364D01*
X106066636Y-119227364D01*
X105872998Y-119265881D01*
X105708840Y-119375568D01*
X105265439Y-119818969D01*
X105165135Y-119818882D01*
X104914748Y-119922339D01*
X104723013Y-120113741D01*
X104619118Y-120363946D01*
X104618882Y-120634865D01*
X104722339Y-120885252D01*
X104913741Y-121076987D01*
X105163946Y-121180882D01*
X105434865Y-121181118D01*
X105685252Y-121077661D01*
X105876987Y-120886259D01*
X105980882Y-120636054D01*
X105980970Y-120534622D01*
X106276228Y-120239364D01*
X112897329Y-120239364D01*
X114241647Y-121583682D01*
X114241647Y-128348123D01*
X114158360Y-128431265D01*
X114054465Y-128681470D01*
X114054229Y-128952389D01*
X114157686Y-129202776D01*
X114173882Y-129219000D01*
X112296592Y-129219000D01*
X112557796Y-128957796D01*
X112604122Y-128888464D01*
X112700000Y-128888464D01*
X112841190Y-128861897D01*
X112970865Y-128778454D01*
X113057859Y-128651134D01*
X113088464Y-128500000D01*
X113088464Y-125500000D01*
X113061897Y-125358810D01*
X112978454Y-125229135D01*
X112851134Y-125142141D01*
X112700000Y-125111536D01*
X112661223Y-125111536D01*
X112679690Y-125067062D01*
X112679926Y-124796143D01*
X112576469Y-124545756D01*
X112509422Y-124478592D01*
X112509422Y-121903422D01*
X112470905Y-121709784D01*
X112361218Y-121545626D01*
X111546215Y-120730623D01*
X111382057Y-120620936D01*
X111188419Y-120582419D01*
X107355235Y-120582419D01*
X107284371Y-120511432D01*
X107034166Y-120407537D01*
X106763247Y-120407301D01*
X106512860Y-120510758D01*
X106321125Y-120702160D01*
X106217230Y-120952365D01*
X106216994Y-121223284D01*
X106320451Y-121473671D01*
X106511853Y-121665406D01*
X106762058Y-121769301D01*
X107032977Y-121769537D01*
X107283364Y-121666080D01*
X107355150Y-121594419D01*
X108312460Y-121594419D01*
X108220550Y-121815761D01*
X108220314Y-122086680D01*
X108323771Y-122337067D01*
X108395432Y-122408853D01*
X108395432Y-122967824D01*
X107850486Y-123512770D01*
X107741673Y-123512675D01*
X107491286Y-123616132D01*
X107299551Y-123807534D01*
X107195656Y-124057739D01*
X107195420Y-124328658D01*
X107199106Y-124337580D01*
X104373648Y-124337580D01*
X104180010Y-124376097D01*
X104015852Y-124485784D01*
X103022240Y-125479396D01*
X102900899Y-125479290D01*
X102791542Y-125524475D01*
X102778454Y-125504135D01*
X102651134Y-125417141D01*
X102500000Y-125386536D01*
X101500000Y-125386536D01*
X101358810Y-125413103D01*
X101229135Y-125496546D01*
X101142141Y-125623866D01*
X101111536Y-125775000D01*
X101111536Y-127025000D01*
X101135920Y-127154588D01*
X101111536Y-127275000D01*
X101111536Y-128525000D01*
X101138103Y-128666190D01*
X101159175Y-128698936D01*
X101142141Y-128723866D01*
X101111536Y-128875000D01*
X101111536Y-129095878D01*
X101042204Y-129142204D01*
X100811410Y-129372998D01*
X100785752Y-129372998D01*
X100881000Y-129277750D01*
X100881000Y-128799215D01*
X100839904Y-128700000D01*
X100881000Y-128600785D01*
X100881000Y-128122250D01*
X100785750Y-128027000D01*
X100127000Y-128027000D01*
X100127000Y-129373000D01*
X100147000Y-129373000D01*
X100147000Y-129627000D01*
X100127000Y-129627000D01*
X100127000Y-130410750D01*
X100136843Y-130420593D01*
X100136843Y-130873000D01*
X100156843Y-130873000D01*
X100156843Y-131127000D01*
X100136843Y-131127000D01*
X100136843Y-131147000D01*
X99882843Y-131147000D01*
X99882843Y-131127000D01*
X99862843Y-131127000D01*
X99862843Y-130873000D01*
X99882843Y-130873000D01*
X99882843Y-130089250D01*
X99873000Y-130079407D01*
X99873000Y-129627000D01*
X99853000Y-129627000D01*
X99853000Y-129373000D01*
X99873000Y-129373000D01*
X99873000Y-128027000D01*
X99853000Y-128027000D01*
X99853000Y-127773000D01*
X99873000Y-127773000D01*
X99873000Y-126527000D01*
X100127000Y-126527000D01*
X100127000Y-127773000D01*
X100785750Y-127773000D01*
X100881000Y-127677750D01*
X100881000Y-127199215D01*
X100860614Y-127150000D01*
X100881000Y-127100785D01*
X100881000Y-126622250D01*
X100785750Y-126527000D01*
X100127000Y-126527000D01*
X99873000Y-126527000D01*
X99853000Y-126527000D01*
X99853000Y-126273000D01*
X99873000Y-126273000D01*
X99873000Y-125489250D01*
X100127000Y-125489250D01*
X100127000Y-126273000D01*
X100785750Y-126273000D01*
X100881000Y-126177750D01*
X100881000Y-125699215D01*
X100822996Y-125559181D01*
X100715820Y-125452004D01*
X100575786Y-125394000D01*
X100222250Y-125394000D01*
X100127000Y-125489250D01*
X99873000Y-125489250D01*
X99777750Y-125394000D01*
X99653824Y-125394000D01*
X100105904Y-124941920D01*
X100475694Y-124941920D01*
X100540188Y-125006526D01*
X100790393Y-125110421D01*
X101061312Y-125110657D01*
X101311699Y-125007200D01*
X101503434Y-124815798D01*
X101607329Y-124565593D01*
X101607565Y-124294674D01*
X101504108Y-124044287D01*
X101312706Y-123852552D01*
X101062501Y-123748657D01*
X100791582Y-123748421D01*
X100541195Y-123851878D01*
X100463017Y-123929920D01*
X99896312Y-123929920D01*
X99702674Y-123968437D01*
X99643586Y-124007919D01*
X99542543Y-123763375D01*
X99351141Y-123571640D01*
X99100936Y-123467745D01*
X98830017Y-123467509D01*
X98579630Y-123570966D01*
X98431591Y-123718748D01*
X98290387Y-123660115D01*
X98019468Y-123659879D01*
X97769081Y-123763336D01*
X97642205Y-123889991D01*
X97831198Y-123607144D01*
X97898260Y-123270000D01*
X97831198Y-122932856D01*
X97640221Y-122647039D01*
X97622203Y-122635000D01*
X97640221Y-122622961D01*
X97831198Y-122337144D01*
X97898260Y-122000000D01*
X97831198Y-121662856D01*
X97640221Y-121377039D01*
X97622203Y-121365000D01*
X97640221Y-121352961D01*
X97831198Y-121067144D01*
X97898260Y-120730000D01*
X97831198Y-120392856D01*
X97792450Y-120334865D01*
X100918882Y-120334865D01*
X101022339Y-120585252D01*
X101213741Y-120776987D01*
X101463946Y-120880882D01*
X101734865Y-120881118D01*
X101985252Y-120777661D01*
X102176987Y-120586259D01*
X102280882Y-120336054D01*
X102281118Y-120065135D01*
X102177661Y-119814748D01*
X102106000Y-119742962D01*
X102106000Y-118559486D01*
X102241656Y-118423830D01*
X102341960Y-118423917D01*
X102592347Y-118320460D01*
X102784082Y-118129058D01*
X102887977Y-117878853D01*
X102888213Y-117607934D01*
X102784756Y-117357547D01*
X102593354Y-117165812D01*
X102343149Y-117061917D01*
X102072230Y-117061681D01*
X101821843Y-117165138D01*
X101630108Y-117356540D01*
X101526213Y-117606745D01*
X101526125Y-117708177D01*
X101242204Y-117992098D01*
X101132517Y-118156256D01*
X101094000Y-118349894D01*
X101094000Y-119742877D01*
X101023013Y-119813741D01*
X100919118Y-120063946D01*
X100918882Y-120334865D01*
X97792450Y-120334865D01*
X97640221Y-120107039D01*
X97622203Y-120095000D01*
X97640221Y-120082961D01*
X97831198Y-119797144D01*
X97898260Y-119460000D01*
X97831198Y-119122856D01*
X97640221Y-118837039D01*
X97622203Y-118825000D01*
X97640221Y-118812961D01*
X97831198Y-118527144D01*
X97898260Y-118190000D01*
X97831198Y-117852856D01*
X97640221Y-117567039D01*
X97622203Y-117555000D01*
X97640221Y-117542961D01*
X97831198Y-117257144D01*
X97898260Y-116920000D01*
X97831198Y-116582856D01*
X97640221Y-116297039D01*
X97622203Y-116285000D01*
X97640221Y-116272961D01*
X97831198Y-115987144D01*
X97898260Y-115650000D01*
X97831198Y-115312856D01*
X97740909Y-115177730D01*
X97770865Y-115158454D01*
X97857859Y-115031134D01*
X97888464Y-114880000D01*
X97888464Y-113880000D01*
X97861897Y-113738810D01*
X97778454Y-113609135D01*
X97756438Y-113594092D01*
X102437825Y-113594092D01*
X102594454Y-113973164D01*
X102884226Y-114263442D01*
X103263025Y-114420733D01*
X103673182Y-114421091D01*
X103890767Y-114331187D01*
X103861119Y-114477593D01*
X103861119Y-115777593D01*
X103887686Y-115918783D01*
X103971129Y-116048458D01*
X104098449Y-116135452D01*
X104249583Y-116166057D01*
X105549583Y-116166057D01*
X105690773Y-116139490D01*
X105820448Y-116056047D01*
X105907442Y-115928727D01*
X105938047Y-115777593D01*
X105938047Y-115331772D01*
X106408405Y-115331772D01*
X106565034Y-115710844D01*
X106854806Y-116001122D01*
X107233605Y-116158413D01*
X107643762Y-116158771D01*
X108022834Y-116002142D01*
X108313112Y-115712370D01*
X108470403Y-115333571D01*
X108470761Y-114923414D01*
X108314132Y-114544342D01*
X108024360Y-114254064D01*
X107645561Y-114096773D01*
X107235404Y-114096415D01*
X106856332Y-114253044D01*
X106566054Y-114542816D01*
X106408763Y-114921615D01*
X106408405Y-115331772D01*
X105938047Y-115331772D01*
X105938047Y-114477593D01*
X105911480Y-114336403D01*
X105828037Y-114206728D01*
X105700717Y-114119734D01*
X105549583Y-114089129D01*
X104249583Y-114089129D01*
X104222855Y-114094158D01*
X104342532Y-113974690D01*
X104499823Y-113595891D01*
X104500039Y-113347361D01*
X105589420Y-113347361D01*
X105658975Y-113506449D01*
X106049473Y-113631907D01*
X106458257Y-113598377D01*
X106680191Y-113506449D01*
X106749746Y-113347361D01*
X106169583Y-112767198D01*
X105589420Y-113347361D01*
X104500039Y-113347361D01*
X104500181Y-113185734D01*
X104343552Y-112806662D01*
X104053780Y-112516384D01*
X103936014Y-112467483D01*
X105125269Y-112467483D01*
X105158799Y-112876267D01*
X105250727Y-113098201D01*
X105409815Y-113167756D01*
X105989978Y-112587593D01*
X106349188Y-112587593D01*
X106929351Y-113167756D01*
X107088439Y-113098201D01*
X107186887Y-112791772D01*
X107678405Y-112791772D01*
X107835034Y-113170844D01*
X108124806Y-113461122D01*
X108503605Y-113618413D01*
X108913762Y-113618771D01*
X109292834Y-113462142D01*
X109407815Y-113347361D01*
X110669420Y-113347361D01*
X110738975Y-113506449D01*
X111129473Y-113631907D01*
X111538257Y-113598377D01*
X111760191Y-113506449D01*
X111829746Y-113347361D01*
X111249583Y-112767198D01*
X110669420Y-113347361D01*
X109407815Y-113347361D01*
X109583112Y-113172370D01*
X109740403Y-112793571D01*
X109740687Y-112467483D01*
X110205269Y-112467483D01*
X110238799Y-112876267D01*
X110330727Y-113098201D01*
X110489815Y-113167756D01*
X111069978Y-112587593D01*
X111429188Y-112587593D01*
X112009351Y-113167756D01*
X112168439Y-113098201D01*
X112293897Y-112707703D01*
X112260367Y-112298919D01*
X112168439Y-112076985D01*
X112009351Y-112007430D01*
X111429188Y-112587593D01*
X111069978Y-112587593D01*
X110489815Y-112007430D01*
X110330727Y-112076985D01*
X110205269Y-112467483D01*
X109740687Y-112467483D01*
X109740761Y-112383414D01*
X109584132Y-112004342D01*
X109407923Y-111827825D01*
X110669420Y-111827825D01*
X111249583Y-112407988D01*
X111829746Y-111827825D01*
X111760191Y-111668737D01*
X111369693Y-111543279D01*
X110960909Y-111576809D01*
X110738975Y-111668737D01*
X110669420Y-111827825D01*
X109407923Y-111827825D01*
X109294360Y-111714064D01*
X108915561Y-111556773D01*
X108505404Y-111556415D01*
X108126332Y-111713044D01*
X107836054Y-112002816D01*
X107678763Y-112381615D01*
X107678405Y-112791772D01*
X107186887Y-112791772D01*
X107213897Y-112707703D01*
X107180367Y-112298919D01*
X107088439Y-112076985D01*
X106929351Y-112007430D01*
X106349188Y-112587593D01*
X105989978Y-112587593D01*
X105409815Y-112007430D01*
X105250727Y-112076985D01*
X105125269Y-112467483D01*
X103936014Y-112467483D01*
X103674981Y-112359093D01*
X103264824Y-112358735D01*
X102885752Y-112515364D01*
X102595474Y-112805136D01*
X102438183Y-113183935D01*
X102437825Y-113594092D01*
X97756438Y-113594092D01*
X97651134Y-113522141D01*
X97500000Y-113491536D01*
X96500000Y-113491536D01*
X96358810Y-113518103D01*
X96229135Y-113601546D01*
X96142141Y-113728866D01*
X96111536Y-113880000D01*
X96111536Y-114880000D01*
X96138103Y-115021190D01*
X96221546Y-115150865D01*
X96259646Y-115176898D01*
X96168802Y-115312856D01*
X96101740Y-115650000D01*
X96168802Y-115987144D01*
X96359779Y-116272961D01*
X96377797Y-116285000D01*
X96359779Y-116297039D01*
X96168802Y-116582856D01*
X96101740Y-116920000D01*
X96168802Y-117257144D01*
X96359779Y-117542961D01*
X96377797Y-117555000D01*
X96359779Y-117567039D01*
X96168802Y-117852856D01*
X96101740Y-118190000D01*
X96168802Y-118527144D01*
X96359779Y-118812961D01*
X96377797Y-118825000D01*
X96359779Y-118837039D01*
X96168802Y-119122856D01*
X96101740Y-119460000D01*
X96168802Y-119797144D01*
X96359779Y-120082961D01*
X96377797Y-120095000D01*
X96359779Y-120107039D01*
X96168802Y-120392856D01*
X96101740Y-120730000D01*
X96168802Y-121067144D01*
X96359779Y-121352961D01*
X96377797Y-121365000D01*
X96359779Y-121377039D01*
X96168802Y-121662856D01*
X96101740Y-122000000D01*
X96168802Y-122337144D01*
X96359779Y-122622961D01*
X96377797Y-122635000D01*
X96359779Y-122647039D01*
X96168802Y-122932856D01*
X96101740Y-123270000D01*
X96168802Y-123607144D01*
X96359779Y-123892961D01*
X96377797Y-123905000D01*
X96359779Y-123917039D01*
X96168802Y-124202856D01*
X96101740Y-124540000D01*
X96168802Y-124877144D01*
X96359779Y-125162961D01*
X96377797Y-125175000D01*
X96359779Y-125187039D01*
X96168802Y-125472856D01*
X96101740Y-125810000D01*
X96168802Y-126147144D01*
X96359779Y-126432961D01*
X96377797Y-126445000D01*
X96359779Y-126457039D01*
X96168802Y-126742856D01*
X96101740Y-127080000D01*
X96168802Y-127417144D01*
X96359779Y-127702961D01*
X96377797Y-127715000D01*
X96359779Y-127727039D01*
X96168802Y-128012856D01*
X96101740Y-128350000D01*
X96168802Y-128687144D01*
X96359779Y-128972961D01*
X96377797Y-128985000D01*
X96359779Y-128997039D01*
X96168802Y-129282856D01*
X96101740Y-129620000D01*
X96168802Y-129957144D01*
X96359779Y-130242961D01*
X96377797Y-130255000D01*
X96359779Y-130267039D01*
X96168802Y-130552856D01*
X96101740Y-130890000D01*
X96168802Y-131227144D01*
X96359779Y-131512961D01*
X96377797Y-131525000D01*
X96359779Y-131537039D01*
X96168802Y-131822856D01*
X96101740Y-132160000D01*
X96168802Y-132497144D01*
X96359779Y-132782961D01*
X96377797Y-132795000D01*
X96359779Y-132807039D01*
X96168802Y-133092856D01*
X96101740Y-133430000D01*
X96168802Y-133767144D01*
X96359779Y-134052961D01*
X96377797Y-134065000D01*
X96359779Y-134077039D01*
X96168802Y-134362856D01*
X96101740Y-134700000D01*
X96168802Y-135037144D01*
X96359779Y-135322961D01*
X96377797Y-135335000D01*
X96359779Y-135347039D01*
X96168802Y-135632856D01*
X96101740Y-135970000D01*
X96168802Y-136307144D01*
X96359779Y-136592961D01*
X96377797Y-136605000D01*
X96359779Y-136617039D01*
X96168802Y-136902856D01*
X96101740Y-137240000D01*
X96168802Y-137577144D01*
X96359779Y-137862961D01*
X96377797Y-137875000D01*
X96359779Y-137887039D01*
X96168802Y-138172856D01*
X96101740Y-138510000D01*
X96168802Y-138847144D01*
X96359779Y-139132961D01*
X96645596Y-139323938D01*
X96982740Y-139391000D01*
X97017260Y-139391000D01*
X97354404Y-139323938D01*
X97640221Y-139132961D01*
X97831198Y-138847144D01*
X97898260Y-138510000D01*
X97831198Y-138172856D01*
X97640221Y-137887039D01*
X97622203Y-137875000D01*
X97640221Y-137862961D01*
X97831198Y-137577144D01*
X97898260Y-137240000D01*
X97831198Y-136902856D01*
X97640221Y-136617039D01*
X97622203Y-136605000D01*
X97640221Y-136592961D01*
X97831198Y-136307144D01*
X97898260Y-135970000D01*
X97831198Y-135632856D01*
X97640221Y-135347039D01*
X97622203Y-135335000D01*
X97640221Y-135322961D01*
X97831198Y-135037144D01*
X97898260Y-134700000D01*
X97831198Y-134362856D01*
X97749809Y-134241049D01*
X99015286Y-135506526D01*
X99179444Y-135616213D01*
X99373082Y-135654730D01*
X100930973Y-135654730D01*
X100755816Y-135727103D01*
X100564081Y-135918505D01*
X100460186Y-136168710D01*
X100459950Y-136439629D01*
X100563407Y-136690016D01*
X100582977Y-136709620D01*
X100578049Y-136714539D01*
X100474154Y-136964744D01*
X100473918Y-137235663D01*
X100577375Y-137486050D01*
X100599068Y-137507780D01*
X100585887Y-137520938D01*
X100481992Y-137771143D01*
X100481756Y-138042062D01*
X100585213Y-138292449D01*
X100776615Y-138484184D01*
X101026820Y-138588079D01*
X101112965Y-138588154D01*
X103060369Y-140535558D01*
X103224527Y-140645245D01*
X103418165Y-140683762D01*
X108093897Y-140683762D01*
X108287535Y-140645245D01*
X108451693Y-140535558D01*
X109393867Y-139593384D01*
X109503554Y-139429226D01*
X109542071Y-139235588D01*
X109542071Y-137550000D01*
X109561536Y-137550000D01*
X109561536Y-138550000D01*
X109588103Y-138691190D01*
X109671546Y-138820865D01*
X109798866Y-138907859D01*
X109950000Y-138938464D01*
X111950000Y-138938464D01*
X112091190Y-138911897D01*
X112220865Y-138828454D01*
X112307859Y-138701134D01*
X112338464Y-138550000D01*
X112338464Y-137550000D01*
X112311897Y-137408810D01*
X112228454Y-137279135D01*
X112101134Y-137192141D01*
X111950000Y-137161536D01*
X109950000Y-137161536D01*
X109808810Y-137188103D01*
X109679135Y-137271546D01*
X109592141Y-137398866D01*
X109561536Y-137550000D01*
X109542071Y-137550000D01*
X109542071Y-135526413D01*
X110605907Y-134462577D01*
X110666380Y-134437590D01*
X110858115Y-134246188D01*
X110962010Y-133995983D01*
X110962246Y-133725064D01*
X110858789Y-133474677D01*
X110667387Y-133282942D01*
X110417182Y-133179047D01*
X110154134Y-133178818D01*
X110127661Y-133114748D01*
X109936259Y-132923013D01*
X109686054Y-132819118D01*
X109415135Y-132818882D01*
X109164748Y-132922339D01*
X108973013Y-133113741D01*
X108944065Y-133183456D01*
X108684031Y-133183229D01*
X108433644Y-133286686D01*
X108241909Y-133478088D01*
X108138014Y-133728293D01*
X108137909Y-133848629D01*
X107717863Y-134268675D01*
X107608176Y-134432833D01*
X107569659Y-134626471D01*
X107569659Y-138671495D01*
X107522729Y-138718425D01*
X107388464Y-138718425D01*
X107388464Y-134250000D01*
X107361897Y-134108810D01*
X107278454Y-133979135D01*
X107151134Y-133892141D01*
X107037197Y-133869069D01*
X107463311Y-133442955D01*
X107572998Y-133278797D01*
X107611515Y-133085159D01*
X107611515Y-132381054D01*
X107643533Y-132394349D01*
X107914452Y-132394585D01*
X108164839Y-132291128D01*
X108356574Y-132099726D01*
X108460469Y-131849521D01*
X108460557Y-131748089D01*
X108752808Y-131455838D01*
X115227330Y-131455838D01*
X115420968Y-131417321D01*
X115585126Y-131307634D01*
X117008479Y-129884281D01*
X117118166Y-129720123D01*
X117156683Y-129526485D01*
X117156683Y-117836342D01*
X117263946Y-117880882D01*
X117365378Y-117880970D01*
X118032204Y-118547796D01*
X118196362Y-118657483D01*
X118390000Y-118696000D01*
X120281628Y-118696000D01*
X120359779Y-118812961D01*
X120377797Y-118825000D01*
X120359779Y-118837039D01*
X120168802Y-119122856D01*
X120101740Y-119460000D01*
X120168802Y-119797144D01*
X120359779Y-120082961D01*
X120377797Y-120095000D01*
X120359779Y-120107039D01*
X120168802Y-120392856D01*
X120101740Y-120730000D01*
X120168802Y-121067144D01*
X120359779Y-121352961D01*
X120377797Y-121365000D01*
X120359779Y-121377039D01*
X120168802Y-121662856D01*
X120101740Y-122000000D01*
X120168802Y-122337144D01*
X120359779Y-122622961D01*
X120377797Y-122635000D01*
X120359779Y-122647039D01*
X120168802Y-122932856D01*
X120101740Y-123270000D01*
X120168802Y-123607144D01*
X120359779Y-123892961D01*
X120377797Y-123905000D01*
X120359779Y-123917039D01*
X120168802Y-124202856D01*
X120101740Y-124540000D01*
X120168802Y-124877144D01*
X120359779Y-125162961D01*
X120377797Y-125175000D01*
X120359779Y-125187039D01*
X120168802Y-125472856D01*
X120101740Y-125810000D01*
X120168802Y-126147144D01*
X120359779Y-126432961D01*
X120377797Y-126445000D01*
X120359779Y-126457039D01*
X120168802Y-126742856D01*
X120101740Y-127080000D01*
X120168802Y-127417144D01*
X120359779Y-127702961D01*
X120377797Y-127715000D01*
X120359779Y-127727039D01*
X120168802Y-128012856D01*
X120101740Y-128350000D01*
X120168802Y-128687144D01*
X120359779Y-128972961D01*
X120377797Y-128985000D01*
X120359779Y-128997039D01*
X120168802Y-129282856D01*
X120101740Y-129620000D01*
X120168802Y-129957144D01*
X120359779Y-130242961D01*
X120377797Y-130255000D01*
X120359779Y-130267039D01*
X120168802Y-130552856D01*
X120101740Y-130890000D01*
X120168802Y-131227144D01*
X120359779Y-131512961D01*
X120377797Y-131525000D01*
X120359779Y-131537039D01*
X120168802Y-131822856D01*
X120101740Y-132160000D01*
X120168802Y-132497144D01*
X120359779Y-132782961D01*
X120377797Y-132795000D01*
X120359779Y-132807039D01*
X120168802Y-133092856D01*
X120101740Y-133430000D01*
X120168802Y-133767144D01*
X120359779Y-134052961D01*
X120377797Y-134065000D01*
X120359779Y-134077039D01*
X120168802Y-134362856D01*
X120101740Y-134700000D01*
X120168802Y-135037144D01*
X120359779Y-135322961D01*
X120377797Y-135335000D01*
X120359779Y-135347039D01*
X120168802Y-135632856D01*
X120101740Y-135970000D01*
X120168802Y-136307144D01*
X120359779Y-136592961D01*
X120377797Y-136605000D01*
X120359779Y-136617039D01*
X120168802Y-136902856D01*
X120101740Y-137240000D01*
X120168802Y-137577144D01*
X120359779Y-137862961D01*
X120377797Y-137875000D01*
X120359779Y-137887039D01*
X120168802Y-138172856D01*
X120101740Y-138510000D01*
X120168802Y-138847144D01*
X120359779Y-139132961D01*
X120645596Y-139323938D01*
X120982740Y-139391000D01*
X121017260Y-139391000D01*
X121354404Y-139323938D01*
X121640221Y-139132961D01*
X121831198Y-138847144D01*
X121898260Y-138510000D01*
X121831198Y-138172856D01*
X121640221Y-137887039D01*
X121622203Y-137875000D01*
X121640221Y-137862961D01*
X121831198Y-137577144D01*
X121898260Y-137240000D01*
X121831198Y-136902856D01*
X121640221Y-136617039D01*
X121622203Y-136605000D01*
X121640221Y-136592961D01*
X121831198Y-136307144D01*
X121898260Y-135970000D01*
X121831198Y-135632856D01*
X121640221Y-135347039D01*
X121622203Y-135335000D01*
X121640221Y-135322961D01*
X121831198Y-135037144D01*
X121898260Y-134700000D01*
X121831198Y-134362856D01*
X121640221Y-134077039D01*
X121622203Y-134065000D01*
X121640221Y-134052961D01*
X121831198Y-133767144D01*
X121898260Y-133430000D01*
X121831198Y-133092856D01*
X121640221Y-132807039D01*
X121622203Y-132795000D01*
X121640221Y-132782961D01*
X121831198Y-132497144D01*
X121898260Y-132160000D01*
X121831198Y-131822856D01*
X121640221Y-131537039D01*
X121622203Y-131525000D01*
X121640221Y-131512961D01*
X121831198Y-131227144D01*
X121898260Y-130890000D01*
X121831198Y-130552856D01*
X121640221Y-130267039D01*
X121622203Y-130255000D01*
X121640221Y-130242961D01*
X121831198Y-129957144D01*
X121898260Y-129620000D01*
X121831198Y-129282856D01*
X121640221Y-128997039D01*
X121622203Y-128985000D01*
X121640221Y-128972961D01*
X121831198Y-128687144D01*
X121898260Y-128350000D01*
X121831198Y-128012856D01*
X121640221Y-127727039D01*
X121622203Y-127715000D01*
X121640221Y-127702961D01*
X121831198Y-127417144D01*
X121898260Y-127080000D01*
X121831198Y-126742856D01*
X121640221Y-126457039D01*
X121622203Y-126445000D01*
X121640221Y-126432961D01*
X121831198Y-126147144D01*
X121898260Y-125810000D01*
X121831198Y-125472856D01*
X121640221Y-125187039D01*
X121622203Y-125175000D01*
X121640221Y-125162961D01*
X121831198Y-124877144D01*
X121898260Y-124540000D01*
X121831198Y-124202856D01*
X121640221Y-123917039D01*
X121622203Y-123905000D01*
X121640221Y-123892961D01*
X121831198Y-123607144D01*
X121898260Y-123270000D01*
X121831198Y-122932856D01*
X121640221Y-122647039D01*
X121622203Y-122635000D01*
X121640221Y-122622961D01*
X121831198Y-122337144D01*
X121898260Y-122000000D01*
X121831198Y-121662856D01*
X121640221Y-121377039D01*
X121622203Y-121365000D01*
X121640221Y-121352961D01*
X121831198Y-121067144D01*
X121898260Y-120730000D01*
X121831198Y-120392856D01*
X121640221Y-120107039D01*
X121622203Y-120095000D01*
X121640221Y-120082961D01*
X121831198Y-119797144D01*
X121898260Y-119460000D01*
X121831198Y-119122856D01*
X121640221Y-118837039D01*
X121622203Y-118825000D01*
X121640221Y-118812961D01*
X121831198Y-118527144D01*
X121898260Y-118190000D01*
X121831198Y-117852856D01*
X121640221Y-117567039D01*
X121622203Y-117555000D01*
X121640221Y-117542961D01*
X121831198Y-117257144D01*
X121898260Y-116920000D01*
X121831198Y-116582856D01*
X121640221Y-116297039D01*
X121622203Y-116285000D01*
X121640221Y-116272961D01*
X121831198Y-115987144D01*
X121898260Y-115650000D01*
X121831198Y-115312856D01*
X121740980Y-115177836D01*
X121822996Y-115095819D01*
X121881000Y-114955785D01*
X121881000Y-114602250D01*
X121785750Y-114507000D01*
X121127000Y-114507000D01*
X121127000Y-114527000D01*
X120873000Y-114527000D01*
X120873000Y-114507000D01*
X120214250Y-114507000D01*
X120119000Y-114602250D01*
X120119000Y-114955785D01*
X120177004Y-115095819D01*
X120259020Y-115177836D01*
X120168802Y-115312856D01*
X120101740Y-115650000D01*
X120168802Y-115987144D01*
X120359779Y-116272961D01*
X120377797Y-116285000D01*
X120359779Y-116297039D01*
X120168802Y-116582856D01*
X120101740Y-116920000D01*
X120168802Y-117257144D01*
X120359779Y-117542961D01*
X120377797Y-117555000D01*
X120359779Y-117567039D01*
X120281628Y-117684000D01*
X118599592Y-117684000D01*
X118081031Y-117165439D01*
X118081118Y-117065135D01*
X117977661Y-116814748D01*
X117786259Y-116623013D01*
X117536054Y-116519118D01*
X117265135Y-116518882D01*
X117156683Y-116563693D01*
X117156683Y-113804215D01*
X120119000Y-113804215D01*
X120119000Y-114157750D01*
X120214250Y-114253000D01*
X120873000Y-114253000D01*
X120873000Y-113594250D01*
X121127000Y-113594250D01*
X121127000Y-114253000D01*
X121785750Y-114253000D01*
X121881000Y-114157750D01*
X121881000Y-113804215D01*
X121822996Y-113664181D01*
X121715820Y-113557004D01*
X121575786Y-113499000D01*
X121222250Y-113499000D01*
X121127000Y-113594250D01*
X120873000Y-113594250D01*
X120777750Y-113499000D01*
X120424214Y-113499000D01*
X120284180Y-113557004D01*
X120177004Y-113664181D01*
X120119000Y-113804215D01*
X117156683Y-113804215D01*
X117156683Y-113058909D01*
X118834561Y-111381031D01*
X118934865Y-111381118D01*
X119185252Y-111277661D01*
X119376987Y-111086259D01*
X119480882Y-110836054D01*
X119481118Y-110565135D01*
X119377661Y-110314748D01*
X119186259Y-110123013D01*
X118936054Y-110019118D01*
X118665135Y-110018882D01*
X118414748Y-110122339D01*
X118223013Y-110313741D01*
X118119118Y-110563946D01*
X118119030Y-110665378D01*
X116292887Y-112491521D01*
X116183200Y-112655679D01*
X116144683Y-112849317D01*
X116144683Y-116032989D01*
X115353898Y-115242204D01*
X115189740Y-115132517D01*
X114996102Y-115094000D01*
X114006000Y-115094000D01*
X114006000Y-110222829D01*
X113967483Y-110029191D01*
X113857796Y-109865033D01*
X112565731Y-108572968D01*
X112401573Y-108463281D01*
X112207935Y-108424764D01*
X111574561Y-108424764D01*
X111503697Y-108353777D01*
X111253492Y-108249882D01*
X110982573Y-108249646D01*
X110732186Y-108353103D01*
X110540451Y-108544505D01*
X110436556Y-108794710D01*
X110436320Y-109065629D01*
X110539777Y-109316016D01*
X110731179Y-109507751D01*
X110981384Y-109611646D01*
X111252303Y-109611882D01*
X111502690Y-109508425D01*
X111574476Y-109436764D01*
X111998343Y-109436764D01*
X112580562Y-110018983D01*
X112465135Y-110018882D01*
X112222829Y-110119000D01*
X104340518Y-110119000D01*
X105056655Y-109402863D01*
X105182600Y-109214373D01*
X105226826Y-108992034D01*
X105226826Y-104574214D01*
X107419000Y-104574214D01*
X107419000Y-105427750D01*
X107514250Y-105523000D01*
X109573000Y-105523000D01*
X109573000Y-104364250D01*
X109827000Y-104364250D01*
X109827000Y-105523000D01*
X111885750Y-105523000D01*
X111981000Y-105427750D01*
X111981000Y-104574214D01*
X111950260Y-104500000D01*
X113661536Y-104500000D01*
X113661536Y-105200000D01*
X113688103Y-105341190D01*
X113771546Y-105470865D01*
X113898866Y-105557859D01*
X114050000Y-105588464D01*
X115350000Y-105588464D01*
X115491190Y-105561897D01*
X115620865Y-105478454D01*
X115704534Y-105356000D01*
X115706900Y-105356000D01*
X115689000Y-105399215D01*
X115689000Y-105577750D01*
X115784250Y-105673000D01*
X116473000Y-105673000D01*
X116473000Y-105653000D01*
X116727000Y-105653000D01*
X116727000Y-105673000D01*
X117415750Y-105673000D01*
X117511000Y-105577750D01*
X117511000Y-105399215D01*
X117483420Y-105332631D01*
X117487859Y-105326134D01*
X117518464Y-105175000D01*
X117518464Y-104525000D01*
X117491897Y-104383810D01*
X117408454Y-104254135D01*
X117281134Y-104167141D01*
X117130000Y-104136536D01*
X116070000Y-104136536D01*
X115928810Y-104163103D01*
X115799135Y-104246546D01*
X115732548Y-104344000D01*
X115702367Y-104344000D01*
X115628454Y-104229135D01*
X115501134Y-104142141D01*
X115350000Y-104111536D01*
X114050000Y-104111536D01*
X113908810Y-104138103D01*
X113779135Y-104221546D01*
X113692141Y-104348866D01*
X113661536Y-104500000D01*
X111950260Y-104500000D01*
X111922996Y-104434180D01*
X111815819Y-104327004D01*
X111675785Y-104269000D01*
X109922250Y-104269000D01*
X109827000Y-104364250D01*
X109573000Y-104364250D01*
X109477750Y-104269000D01*
X107724215Y-104269000D01*
X107584181Y-104327004D01*
X107477004Y-104434180D01*
X107419000Y-104574214D01*
X105226826Y-104574214D01*
X105226826Y-103570644D01*
X108223893Y-103570644D01*
X108327350Y-103821031D01*
X108518752Y-104012766D01*
X108768957Y-104116661D01*
X109039876Y-104116897D01*
X109290263Y-104013440D01*
X109362049Y-103941779D01*
X110289043Y-103941779D01*
X110323147Y-103975942D01*
X110573352Y-104079837D01*
X110844271Y-104080073D01*
X111094658Y-103976616D01*
X111286393Y-103785214D01*
X111390288Y-103535009D01*
X111390524Y-103264090D01*
X111287067Y-103013703D01*
X111095665Y-102821968D01*
X110845460Y-102718073D01*
X110574541Y-102717837D01*
X110324154Y-102821294D01*
X110215480Y-102929779D01*
X109362134Y-102929779D01*
X109291270Y-102858792D01*
X109041065Y-102754897D01*
X108770146Y-102754661D01*
X108519759Y-102858118D01*
X108328024Y-103049520D01*
X108224129Y-103299725D01*
X108223893Y-103570644D01*
X105226826Y-103570644D01*
X105226826Y-102794832D01*
X105444536Y-102577122D01*
X105677171Y-102481000D01*
X113500000Y-102481000D01*
X113722339Y-102436774D01*
X113910829Y-102310829D01*
X114040234Y-102181424D01*
X114075000Y-102188464D01*
X115325000Y-102188464D01*
X115466190Y-102161897D01*
X115595865Y-102078454D01*
X115650230Y-101998888D01*
X115696546Y-102070865D01*
X115823866Y-102157859D01*
X115975000Y-102188464D01*
X116111597Y-102188464D01*
X116132517Y-102293638D01*
X116242204Y-102457796D01*
X118018496Y-104234088D01*
X117999135Y-104246546D01*
X117912141Y-104373866D01*
X117881536Y-104525000D01*
X117881536Y-105175000D01*
X117908103Y-105316190D01*
X117991546Y-105445865D01*
X118118866Y-105532859D01*
X118270000Y-105563464D01*
X119330000Y-105563464D01*
X119471190Y-105536897D01*
X119600865Y-105453454D01*
X119616620Y-105430396D01*
X119652004Y-105515820D01*
X119759181Y-105622996D01*
X119899215Y-105681000D01*
X120377750Y-105681000D01*
X120473000Y-105585750D01*
X120473000Y-104927000D01*
X120453000Y-104927000D01*
X120453000Y-104673000D01*
X120473000Y-104673000D01*
X120473000Y-104014250D01*
X120377750Y-103919000D01*
X119899215Y-103919000D01*
X119759181Y-103977004D01*
X119652004Y-104084180D01*
X119594000Y-104224214D01*
X119594000Y-104244259D01*
X119481134Y-104167141D01*
X119330000Y-104136536D01*
X119273485Y-104136536D01*
X119267483Y-104106362D01*
X119157796Y-103942204D01*
X118504056Y-103288464D01*
X120100000Y-103288464D01*
X120241190Y-103261897D01*
X120370865Y-103178454D01*
X120457859Y-103051134D01*
X120488464Y-102900000D01*
X120488464Y-102681000D01*
X120859342Y-102681000D01*
X121419000Y-103240658D01*
X121419000Y-103967966D01*
X121300785Y-103919000D01*
X120822250Y-103919000D01*
X120727000Y-104014250D01*
X120727000Y-104673000D01*
X120747000Y-104673000D01*
X120747000Y-104927000D01*
X120727000Y-104927000D01*
X120727000Y-105585750D01*
X120822250Y-105681000D01*
X121300785Y-105681000D01*
X121419000Y-105632034D01*
X121419000Y-105959342D01*
X121411819Y-105966523D01*
X121376134Y-105942141D01*
X121225000Y-105911536D01*
X119975000Y-105911536D01*
X119833810Y-105938103D01*
X119704135Y-106021546D01*
X119617141Y-106148866D01*
X119614250Y-106163142D01*
X119608454Y-106154135D01*
X119481134Y-106067141D01*
X119330000Y-106036536D01*
X118270000Y-106036536D01*
X118128810Y-106063103D01*
X117999135Y-106146546D01*
X117912141Y-106273866D01*
X117881536Y-106425000D01*
X117881536Y-106982612D01*
X117739711Y-106923721D01*
X117518464Y-106923528D01*
X117518464Y-106425000D01*
X117491897Y-106283810D01*
X117482597Y-106269357D01*
X117511000Y-106200785D01*
X117511000Y-106022250D01*
X117415750Y-105927000D01*
X116727000Y-105927000D01*
X116727000Y-105947000D01*
X116473000Y-105947000D01*
X116473000Y-105927000D01*
X115784250Y-105927000D01*
X115689000Y-106022250D01*
X115689000Y-106169000D01*
X115654106Y-106169000D01*
X115628454Y-106129135D01*
X115501134Y-106042141D01*
X115350000Y-106011536D01*
X114050000Y-106011536D01*
X113908810Y-106038103D01*
X113779135Y-106121546D01*
X113746711Y-106169000D01*
X113685867Y-106169000D01*
X113463528Y-106213226D01*
X113275038Y-106339171D01*
X113126830Y-106487379D01*
X113000885Y-106675869D01*
X112973402Y-106814036D01*
X112960672Y-106826744D01*
X112875729Y-107031309D01*
X112785815Y-107013424D01*
X111718217Y-107013424D01*
X111815819Y-106972996D01*
X111922996Y-106865820D01*
X111981000Y-106725786D01*
X111981000Y-105872250D01*
X111885750Y-105777000D01*
X109827000Y-105777000D01*
X109827000Y-105797000D01*
X109573000Y-105797000D01*
X109573000Y-105777000D01*
X107514250Y-105777000D01*
X107419000Y-105872250D01*
X107419000Y-106725786D01*
X107477004Y-106865820D01*
X107584181Y-106972996D01*
X107681783Y-107013424D01*
X106763166Y-107013424D01*
X106536054Y-106919118D01*
X106265135Y-106918882D01*
X106014748Y-107022339D01*
X105823013Y-107213741D01*
X105719118Y-107463946D01*
X105718882Y-107734865D01*
X105822339Y-107985252D01*
X106013741Y-108176987D01*
X106263946Y-108280882D01*
X106534865Y-108281118D01*
X106785252Y-108177661D01*
X106787493Y-108175424D01*
X112545157Y-108175424D01*
X112713913Y-108344180D01*
X112902403Y-108470125D01*
X113124742Y-108514351D01*
X117274909Y-108514351D01*
X117497248Y-108470125D01*
X117685738Y-108344180D01*
X117748193Y-108281725D01*
X117980828Y-108185603D01*
X118328731Y-108185603D01*
X118551070Y-108141377D01*
X118739560Y-108015432D01*
X119210829Y-107544163D01*
X119264750Y-107463464D01*
X119330000Y-107463464D01*
X119471190Y-107436897D01*
X119597055Y-107355905D01*
X119613103Y-107441190D01*
X119696546Y-107570865D01*
X119823866Y-107657859D01*
X119975000Y-107688464D01*
X121225000Y-107688464D01*
X121366190Y-107661897D01*
X121495865Y-107578454D01*
X121582859Y-107451134D01*
X121605332Y-107340157D01*
X121622339Y-107336774D01*
X121810829Y-107210829D01*
X122410829Y-106610829D01*
X122536774Y-106422339D01*
X122544000Y-106386011D01*
X122544000Y-141544000D01*
X95456000Y-141544000D01*
X95456000Y-110543959D01*
X97306016Y-110543959D01*
X97337188Y-111012755D01*
X97456617Y-111301082D01*
X97631256Y-111389139D01*
X98320395Y-110700000D01*
X97631256Y-110010861D01*
X97456617Y-110098918D01*
X97306016Y-110543959D01*
X95456000Y-110543959D01*
X95456000Y-108291816D01*
X96158802Y-108291816D01*
X96220039Y-108439695D01*
X96436193Y-108706987D01*
X96738182Y-108871214D01*
X96873000Y-108806565D01*
X96873000Y-108157000D01*
X97127000Y-108157000D01*
X97127000Y-108806565D01*
X97261818Y-108871214D01*
X97563807Y-108706987D01*
X97779961Y-108439695D01*
X97841198Y-108291816D01*
X97775419Y-108157000D01*
X97127000Y-108157000D01*
X96873000Y-108157000D01*
X96224581Y-108157000D01*
X96158802Y-108291816D01*
X95456000Y-108291816D01*
X95456000Y-107021816D01*
X96158802Y-107021816D01*
X96220039Y-107169695D01*
X96402239Y-107395000D01*
X96220039Y-107620305D01*
X96158802Y-107768184D01*
X96224581Y-107903000D01*
X96873000Y-107903000D01*
X96873000Y-106887000D01*
X97127000Y-106887000D01*
X97127000Y-107903000D01*
X97775419Y-107903000D01*
X97841198Y-107768184D01*
X97779961Y-107620305D01*
X97597761Y-107395000D01*
X97779961Y-107169695D01*
X97841198Y-107021816D01*
X97775419Y-106887000D01*
X97127000Y-106887000D01*
X96873000Y-106887000D01*
X96224581Y-106887000D01*
X96158802Y-107021816D01*
X95456000Y-107021816D01*
X95456000Y-105751816D01*
X96158802Y-105751816D01*
X96220039Y-105899695D01*
X96402239Y-106125000D01*
X96220039Y-106350305D01*
X96158802Y-106498184D01*
X96224581Y-106633000D01*
X96873000Y-106633000D01*
X96873000Y-105617000D01*
X97127000Y-105617000D01*
X97127000Y-106633000D01*
X97775419Y-106633000D01*
X97841198Y-106498184D01*
X97779961Y-106350305D01*
X97597761Y-106125000D01*
X97779961Y-105899695D01*
X97841198Y-105751816D01*
X97775419Y-105617000D01*
X97127000Y-105617000D01*
X96873000Y-105617000D01*
X96224581Y-105617000D01*
X96158802Y-105751816D01*
X95456000Y-105751816D01*
X95456000Y-97456000D01*
X122544000Y-97456000D01*
X122544000Y-102813989D01*
G36*
X111497422Y-122113014D02*
X111497422Y-124469279D01*
X111421821Y-124544749D01*
X111317926Y-124794954D01*
X111317690Y-125065873D01*
X111399770Y-125264523D01*
X111342141Y-125348866D01*
X111311536Y-125500000D01*
X111311536Y-128500000D01*
X111330088Y-128598592D01*
X110528499Y-128598592D01*
X110548464Y-128500000D01*
X110548464Y-125500000D01*
X110521897Y-125358810D01*
X110438454Y-125229135D01*
X110311134Y-125142141D01*
X110160000Y-125111536D01*
X110101520Y-125111536D01*
X110017796Y-124986235D01*
X109517345Y-124485784D01*
X109353187Y-124376097D01*
X109159549Y-124337580D01*
X108554209Y-124337580D01*
X108557420Y-124329847D01*
X108557501Y-124236939D01*
X109259228Y-123535212D01*
X109368915Y-123371054D01*
X109407432Y-123177416D01*
X109407432Y-122408938D01*
X109478419Y-122338074D01*
X109582314Y-122087869D01*
X109582550Y-121816950D01*
X109490603Y-121594419D01*
X110978827Y-121594419D01*
X111497422Y-122113014D01*
X111497422Y-122113014D01*
G37*
X111497422Y-122113014D02*
X111497422Y-124469279D01*
X111421821Y-124544749D01*
X111317926Y-124794954D01*
X111317690Y-125065873D01*
X111399770Y-125264523D01*
X111342141Y-125348866D01*
X111311536Y-125500000D01*
X111311536Y-128500000D01*
X111330088Y-128598592D01*
X110528499Y-128598592D01*
X110548464Y-128500000D01*
X110548464Y-125500000D01*
X110521897Y-125358810D01*
X110438454Y-125229135D01*
X110311134Y-125142141D01*
X110160000Y-125111536D01*
X110101520Y-125111536D01*
X110017796Y-124986235D01*
X109517345Y-124485784D01*
X109353187Y-124376097D01*
X109159549Y-124337580D01*
X108554209Y-124337580D01*
X108557420Y-124329847D01*
X108557501Y-124236939D01*
X109259228Y-123535212D01*
X109368915Y-123371054D01*
X109407432Y-123177416D01*
X109407432Y-122408938D01*
X109478419Y-122338074D01*
X109582314Y-122087869D01*
X109582550Y-121816950D01*
X109490603Y-121594419D01*
X110978827Y-121594419D01*
X111497422Y-122113014D01*
G36*
X102059890Y-107039498D02*
X102125449Y-106973939D01*
X102138103Y-107041190D01*
X102221546Y-107170865D01*
X102348866Y-107257859D01*
X102500000Y-107288464D01*
X104064826Y-107288464D01*
X104064826Y-108751376D01*
X103215107Y-109601095D01*
X101537416Y-109601095D01*
X101451134Y-109542141D01*
X101300000Y-109511536D01*
X101081000Y-109511536D01*
X101081000Y-107800000D01*
X101036774Y-107577661D01*
X100910829Y-107389171D01*
X100550633Y-107028975D01*
X100610862Y-106968746D01*
X100698918Y-107143383D01*
X101143959Y-107293984D01*
X101612755Y-107262812D01*
X101901082Y-107143383D01*
X101989138Y-106968746D01*
X102059890Y-107039498D01*
X102059890Y-107039498D01*
G37*
X102059890Y-107039498D02*
X102125449Y-106973939D01*
X102138103Y-107041190D01*
X102221546Y-107170865D01*
X102348866Y-107257859D01*
X102500000Y-107288464D01*
X104064826Y-107288464D01*
X104064826Y-108751376D01*
X103215107Y-109601095D01*
X101537416Y-109601095D01*
X101451134Y-109542141D01*
X101300000Y-109511536D01*
X101081000Y-109511536D01*
X101081000Y-107800000D01*
X101036774Y-107577661D01*
X100910829Y-107389171D01*
X100550633Y-107028975D01*
X100610862Y-106968746D01*
X100698918Y-107143383D01*
X101143959Y-107293984D01*
X101612755Y-107262812D01*
X101901082Y-107143383D01*
X101989138Y-106968746D01*
X102059890Y-107039498D01*
M02*
